<svg width="385" height="42" viewBox="0 0 385 42" fill="none" xmlns="http://www.w3.org/2000/svg">
<path fill-rule="evenodd" clip-rule="evenodd" d="M20.4402 18.6362L20.4358 18.6256C20.1402 17.9135 19.7355 17.306 19.2226 16.793C18.7096 16.2801 18.1021 15.8754 17.3901 15.5798L17.3794 15.5754L17.3689 15.5708C16.6887 15.2699 15.9598 15.1172 15.1719 15.1172C14.384 15.1172 13.6447 15.2699 12.945 15.5736L12.9365 15.5773C12.2398 15.872 11.6373 16.2769 11.1212 16.793C10.6059 17.3083 10.1917 17.9195 9.88015 18.636C9.59205 19.3185 9.44531 20.0512 9.44531 20.8438V26.5703H20.8984V20.8438C20.8984 20.0558 20.7457 19.327 20.4448 18.6467L20.4402 18.6362ZM21.8984 27.5703H8.44531V20.8438C8.44531 19.9219 8.61719 19.0547 8.96094 18.2422C9.32031 17.4141 9.80469 16.6953 10.4141 16.0859C11.0234 15.4766 11.7344 15 12.5469 14.6562C13.375 14.2969 14.25 14.1172 15.1719 14.1172C16.0938 14.1172 16.9609 14.2969 17.7734 14.6562C18.6016 15 19.3203 15.4766 19.9297 16.0859C20.5391 16.6953 21.0156 17.4141 21.3594 18.2422C21.7188 19.0547 21.8984 19.9219 21.8984 20.8438V27.5703ZM29.625 42H20.8984V35.2734H9.44531V42H0.742188V20.8438C0.742188 18.8554 1.1188 16.9778 1.87841 15.2217C2.62862 13.4717 3.65032 11.9367 4.9446 10.6256L4.94913 10.621C6.25946 9.31068 7.7873 8.27933 9.52476 7.52754L9.52795 7.52616C11.2982 6.76747 13.1828 6.39062 15.1719 6.39062C17.1603 6.39062 19.0379 6.76727 20.7941 7.52693C22.5467 8.27829 24.0831 9.30955 25.3946 10.621C26.7061 11.9326 27.7374 13.4691 28.4888 15.2217C29.2484 16.9779 29.625 18.8554 29.625 20.8438V42ZM27.5703 15.6172C26.8672 13.9766 25.9062 12.5469 24.6875 11.3281C23.4688 10.1094 22.0391 9.14844 20.3984 8.44531C18.7734 7.74219 17.0312 7.39062 15.1719 7.39062C13.3125 7.39062 11.5625 7.74219 9.92188 8.44531C8.29688 9.14844 6.875 10.1094 5.65625 11.3281C4.45312 12.5469 3.5 13.9766 2.79688 15.6172C2.09375 17.2422 1.74219 18.9844 1.74219 20.8438V41H8.44531V34.2734H21.8984V41H28.625V20.8438C28.625 18.9844 28.2734 17.2422 27.5703 15.6172ZM99.7922 6.39062V15.1172H83.3703C83.0269 15.1172 82.7228 15.1795 82.4475 15.296C82.16 15.4176 81.9084 15.5871 81.6868 15.8087C81.4856 16.0099 81.3218 16.2521 81.1975 16.5459C81.081 16.8213 81.0188 17.1254 81.0188 17.4688C81.0188 17.8096 81.0802 18.1245 81.2002 18.4213C81.3225 18.7086 81.4846 18.958 81.6871 19.1754C81.9061 19.3793 82.1575 19.5423 82.4475 19.665C82.7228 19.7815 83.0269 19.8438 83.3703 19.8438H90.0969C91.6159 19.8438 93.0549 20.1342 94.4034 20.7208C95.7507 21.2847 96.9293 22.0744 97.9292 23.0899C98.9446 24.0897 99.7341 25.2681 100.298 26.6153C100.885 27.9638 101.175 29.4028 101.175 30.9219C101.175 32.4416 100.884 33.8813 100.297 35.2304C99.7321 36.564 98.9421 37.7409 97.929 38.754C96.9292 39.7537 95.7523 40.5421 94.4079 41.121C93.0581 41.7089 91.6176 42 90.0969 42H74.1672V33.2734H90.0969C90.4403 33.2734 90.7444 33.2112 91.0197 33.0947C91.3135 32.9704 91.5557 32.8066 91.757 32.6054C91.9786 32.3838 92.1481 32.1321 92.2697 31.8447C92.3862 31.5694 92.4484 31.2653 92.4484 30.9219C92.4484 30.5785 92.3862 30.2744 92.2697 29.999C92.15 29.7163 91.9858 29.4797 91.7753 29.2797L91.7567 29.262L91.7391 29.2434C91.5391 29.0329 91.3025 28.8687 91.0197 28.7491C90.7444 28.6326 90.4403 28.5703 90.0969 28.5703H83.3703C81.8486 28.5703 80.4072 28.2789 79.0567 27.6901C77.7291 27.1114 76.5558 26.3247 75.5443 25.3303L75.5382 25.3243L75.5322 25.3182C74.5378 24.3067 73.7511 23.1334 73.1724 21.8058L73.1705 21.8016C72.5836 20.438 72.2922 18.9905 72.2922 17.4688C72.2922 15.9471 72.5837 14.5057 73.1724 13.1551C73.7517 11.826 74.5402 10.6581 75.5382 9.66008C76.5503 8.64795 77.7255 7.85105 79.0567 7.2708C80.4072 6.68209 81.8486 6.39062 83.3703 6.39062H99.7922ZM94.0109 40.2031C95.2453 39.6719 96.3156 38.9531 97.2219 38.0469C98.1438 37.125 98.8625 36.0547 99.3781 34.8359C99.9094 33.6172 100.175 32.3125 100.175 30.9219C100.175 29.5312 99.9094 28.2266 99.3781 27.0078C98.8625 25.7734 98.1438 24.7031 97.2219 23.7969C96.3156 22.875 95.2453 22.1562 94.0109 21.6406C92.7922 21.1094 91.4875 20.8438 90.0969 20.8438H83.3703C82.9016 20.8438 82.4641 20.7578 82.0578 20.5859C81.6516 20.4141 81.2922 20.1797 80.9797 19.8828C80.6828 19.5703 80.4484 19.2109 80.2766 18.8047C80.1047 18.3828 80.0188 17.9375 80.0188 17.4688C80.0188 17 80.1047 16.5625 80.2766 16.1562C80.4484 15.75 80.6828 15.3984 80.9797 15.1016C81.2922 14.7891 81.6516 14.5469 82.0578 14.375C82.4641 14.2031 82.9016 14.1172 83.3703 14.1172H98.7922V7.39062H83.3703C81.9797 7.39062 80.675 7.65625 79.4563 8.1875C78.2375 8.71875 77.1672 9.44531 76.2453 10.3672C75.3391 11.2734 74.6203 12.3359 74.0891 13.5547C73.5578 14.7734 73.2922 16.0781 73.2922 17.4688C73.2922 18.8594 73.5578 20.1719 74.0891 21.4062C74.6203 22.625 75.3391 23.6953 76.2453 24.6172C77.1672 25.5234 78.2375 26.2422 79.4563 26.7734C80.675 27.3047 81.9797 27.5703 83.3703 27.5703H90.0969C90.5656 27.5703 91.0031 27.6562 91.4094 27.8281C91.8156 28 92.1672 28.2422 92.4641 28.5547C92.7766 28.8516 93.0188 29.2031 93.1906 29.6094C93.3625 30.0156 93.4484 30.4531 93.4484 30.9219C93.4484 31.3906 93.3625 31.8281 93.1906 32.2344C93.0188 32.6406 92.7766 33 92.4641 33.3125C92.1672 33.6094 91.8156 33.8438 91.4094 34.0156C91.0031 34.1875 90.5656 34.2734 90.0969 34.2734H75.1672V41H90.0969C91.4875 41 92.7922 40.7344 94.0109 40.2031ZM160.045 42H151.342V15.1172H141.241V6.39062H170.123V15.1172H160.045V42ZM152.342 14.1172V41H159.045V14.1172H169.123V7.39062H142.241V14.1172H152.342ZM232.182 23.0791L232.186 23.0706C232.489 22.3709 232.642 21.6316 232.642 20.8438C232.642 20.0558 232.489 19.327 232.189 18.6467L232.184 18.6362L232.18 18.6256C231.884 17.9135 231.479 17.306 230.966 16.793C230.45 16.2769 229.848 15.872 229.151 15.5772L229.144 15.5741L229.136 15.5708C228.456 15.2699 227.727 15.1172 226.939 15.1172H221.212V26.5703H226.939C227.73 26.5703 228.462 26.4241 229.143 26.137C229.844 25.8263 230.449 25.4121 230.966 24.8945C231.482 24.3783 231.887 23.7759 232.182 23.0791ZM229.541 27.0547C228.728 27.3984 227.861 27.5703 226.939 27.5703H220.212V14.1172H226.939C227.861 14.1172 228.728 14.2969 229.541 14.6562C230.353 15 231.064 15.4766 231.673 16.0859C232.283 16.6953 232.759 17.4141 233.103 18.2422C233.462 19.0547 233.642 19.9219 233.642 20.8438C233.642 21.7656 233.462 22.6406 233.103 23.4688C232.759 24.2812 232.283 24.9922 231.673 25.6016C231.064 26.2109 230.353 26.6953 229.541 27.0547ZM221.212 42H212.486V6.39062H226.939C228.261 6.39062 229.54 6.5662 230.772 6.92001C231.993 7.25521 233.136 7.74194 234.198 8.38112C235.27 9.00215 236.243 9.75708 237.115 10.6442C238.003 11.5169 238.759 12.4912 239.38 13.5655C240.018 14.6404 240.504 15.7898 240.839 17.0109C241.193 18.2431 241.369 19.5218 241.369 20.8438C241.369 22.0847 241.21 23.2959 240.89 24.4749C240.588 25.6465 240.144 26.7611 239.558 27.8165C238.985 28.8769 238.278 29.852 237.44 30.7409C236.796 31.4235 236.093 32.037 235.331 32.5809L239.324 42H230.009L227.081 35.2307L221.212 35.2672V42ZM220.212 34.2734L227.736 34.2266L230.666 41H237.814L234.087 32.2109C235.056 31.6016 235.931 30.8828 236.712 30.0547C237.494 29.2266 238.15 28.3203 238.681 27.3359C239.228 26.3516 239.642 25.3125 239.923 24.2188C240.22 23.125 240.369 22 240.369 20.8438C240.369 19.6094 240.205 18.4219 239.877 17.2812C239.564 16.1406 239.111 15.0703 238.517 14.0703C237.939 13.0703 237.236 12.1641 236.408 11.3516C235.595 10.5234 234.689 9.82031 233.689 9.24219C232.705 8.64844 231.642 8.19531 230.502 7.88281C229.361 7.55469 228.173 7.39062 226.939 7.39062H213.486V41H220.212V34.2734ZM301.716 42H293.013V31.2342C291.708 30.8307 290.489 30.2545 289.359 29.5055L289.354 29.5023C288.034 28.6168 286.893 27.5605 285.935 26.3342L285.931 26.329C284.976 25.0893 284.231 23.724 283.697 22.2368L283.692 22.2241C283.17 20.7089 282.911 19.122 282.911 17.4688V6.39062H291.638V17.4688C291.638 18.2589 291.783 18.9999 292.072 19.7C292.383 20.3986 292.797 21.0027 293.313 21.5195C293.83 22.0363 294.434 22.4499 295.133 22.7604C295.833 23.0494 296.574 23.1953 297.364 23.1953C298.157 23.1953 298.889 23.0486 299.572 22.7605C300.288 22.449 300.899 22.0348 301.415 21.5195C301.931 21.0033 302.336 20.4009 302.631 19.7041L302.634 19.6956C302.938 18.9959 303.091 18.2566 303.091 17.4688V6.39062H311.794V17.4688C311.794 19.1233 311.526 20.7115 310.988 22.2274C310.469 23.7184 309.73 25.087 308.773 26.329L308.769 26.3342C307.812 27.5605 306.671 28.6168 305.351 29.5023C304.232 30.2531 303.019 30.8302 301.716 31.234V42ZM310.044 21.8984C310.544 20.4922 310.794 19.0156 310.794 17.4688V7.39062H304.091V17.4688C304.091 18.3906 303.911 19.2656 303.552 20.0938C303.208 20.9062 302.731 21.6172 302.122 22.2266C301.513 22.8359 300.794 23.3203 299.966 23.6797C299.153 24.0234 298.286 24.1953 297.364 24.1953C296.442 24.1953 295.567 24.0234 294.739 23.6797C293.927 23.3203 293.216 22.8359 292.606 22.2266C291.997 21.6172 291.513 20.9062 291.153 20.0938C290.809 19.2656 290.638 18.3906 290.638 17.4688V7.39062H283.911V17.4688C283.911 19.0156 284.153 20.4922 284.638 21.8984C285.138 23.2891 285.833 24.5625 286.723 25.7188C287.614 26.8594 288.677 27.8438 289.911 28.6719C291.161 29.5 292.528 30.1016 294.013 30.4766V41H300.716V30.4766C302.2 30.1016 303.559 29.5 304.794 28.6719C306.028 27.8438 307.091 26.8594 307.981 25.7188C308.872 24.5625 309.559 23.2891 310.044 21.8984ZM384.06 42H373.549L367.647 32.0988L361.723 42H351.26L362.186 24.1953L351.26 6.39062H361.723L367.647 16.2918L373.549 6.39062H384.06L373.134 24.1953L384.06 42ZM371.961 24.1953L382.273 7.39062H374.117L367.648 18.2422L361.156 7.39062H353.047L363.359 24.1953L353.047 41H361.156L367.648 30.1484L374.117 41H382.273L371.961 24.1953Z" fill="black" fill-opacity="0.3"/>
<path fill-rule="evenodd" clip-rule="evenodd" d="M20.4402 15.6362L20.4358 15.6256C20.1402 14.9135 19.7355 14.306 19.2226 13.793C18.7096 13.2801 18.1021 12.8754 17.3901 12.5798L17.3794 12.5754L17.3689 12.5708C16.6887 12.2699 15.9598 12.1172 15.1719 12.1172C14.384 12.1172 13.6447 12.2699 12.945 12.5736L12.9365 12.5773C12.2398 12.872 11.6373 13.2769 11.1212 13.793C10.6059 14.3083 10.1917 14.9195 9.88015 15.636C9.59205 16.3185 9.44531 17.0512 9.44531 17.8438V23.5703H20.8984V17.8438C20.8984 17.0558 20.7457 16.327 20.4448 15.6467L20.4402 15.6362ZM21.8984 24.5703H8.44531V17.8438C8.44531 16.9219 8.61719 16.0547 8.96094 15.2422C9.32031 14.4141 9.80469 13.6953 10.4141 13.0859C11.0234 12.4766 11.7344 12 12.5469 11.6562C13.375 11.2969 14.25 11.1172 15.1719 11.1172C16.0938 11.1172 16.9609 11.2969 17.7734 11.6562C18.6016 12 19.3203 12.4766 19.9297 13.0859C20.5391 13.6953 21.0156 14.4141 21.3594 15.2422C21.7188 16.0547 21.8984 16.9219 21.8984 17.8438V24.5703ZM29.625 39H20.8984V32.2734H9.44531V39H0.742188V17.8438C0.742188 15.8554 1.1188 13.9778 1.87841 12.2217C2.62862 10.4717 3.65032 8.93668 4.9446 7.6256L4.94913 7.621C6.25946 6.31068 7.7873 5.27933 9.52476 4.52754L9.52795 4.52616C11.2982 3.76747 13.1828 3.39062 15.1719 3.39062C17.1603 3.39062 19.0379 3.76727 20.7941 4.52693C22.5467 5.27829 24.0831 6.30955 25.3946 7.62102C26.7061 8.93255 27.7374 10.4691 28.4888 12.2217C29.2484 13.9779 29.625 15.8554 29.625 17.8438V39ZM27.5703 12.6172C26.8672 10.9766 25.9062 9.54688 24.6875 8.32812C23.4688 7.10938 22.0391 6.14844 20.3984 5.44531C18.7734 4.74219 17.0312 4.39062 15.1719 4.39062C13.3125 4.39062 11.5625 4.74219 9.92188 5.44531C8.29688 6.14844 6.875 7.10938 5.65625 8.32812C4.45312 9.54688 3.5 10.9766 2.79688 12.6172C2.09375 14.2422 1.74219 15.9844 1.74219 17.8438V38H8.44531V31.2734H21.8984V38H28.625V17.8438C28.625 15.9844 28.2734 14.2422 27.5703 12.6172ZM99.7922 3.39062V12.1172H83.3703C83.0269 12.1172 82.7228 12.1795 82.4475 12.296C82.16 12.4176 81.9084 12.5871 81.6868 12.8087C81.4856 13.0099 81.3218 13.2521 81.1975 13.5459C81.081 13.8213 81.0188 14.1254 81.0188 14.4688C81.0188 14.8096 81.0802 15.1245 81.2002 15.4213C81.3225 15.7086 81.4846 15.958 81.6871 16.1754C81.9061 16.3793 82.1575 16.5423 82.4475 16.665C82.7228 16.7815 83.0269 16.8438 83.3703 16.8438H90.0969C91.6159 16.8438 93.0549 17.1342 94.4034 17.7208C95.7507 18.2847 96.9293 19.0744 97.9292 20.0899C98.9446 21.0897 99.7341 22.2681 100.298 23.6153C100.885 24.9638 101.175 26.4028 101.175 27.9219C101.175 29.4416 100.884 30.8813 100.297 32.2304C99.7321 33.564 98.9421 34.7409 97.929 35.754C96.9292 36.7537 95.7523 37.5421 94.4079 38.121C93.0581 38.7089 91.6176 39 90.0969 39H74.1672V30.2734H90.0969C90.4403 30.2734 90.7444 30.2112 91.0197 30.0947C91.3135 29.9704 91.5557 29.8066 91.757 29.6054C91.9786 29.3838 92.1481 29.1321 92.2697 28.8447C92.3862 28.5694 92.4484 28.2653 92.4484 27.9219C92.4484 27.5785 92.3862 27.2744 92.2697 26.999C92.15 26.7163 91.9858 26.4797 91.7753 26.2797L91.7567 26.262L91.7391 26.2434C91.5391 26.0329 91.3025 25.8687 91.0197 25.7491C90.7444 25.6326 90.4403 25.5703 90.0969 25.5703H83.3703C81.8486 25.5703 80.4072 25.2789 79.0567 24.6901C77.7291 24.1114 76.5558 23.3247 75.5443 22.3303L75.5382 22.3243L75.5322 22.3182C74.5378 21.3067 73.7511 20.1334 73.1724 18.8058L73.1705 18.8016C72.5836 17.438 72.2922 15.9905 72.2922 14.4688C72.2922 12.9471 72.5837 11.5057 73.1724 10.1551C73.7517 8.82599 74.5402 7.65812 75.5382 6.66008C76.5503 5.64795 77.7255 4.85105 79.0567 4.2708C80.4072 3.68209 81.8486 3.39062 83.3703 3.39062H99.7922ZM94.0109 37.2031C95.2453 36.6719 96.3156 35.9531 97.2219 35.0469C98.1438 34.125 98.8625 33.0547 99.3781 31.8359C99.9094 30.6172 100.175 29.3125 100.175 27.9219C100.175 26.5312 99.9094 25.2266 99.3781 24.0078C98.8625 22.7734 98.1438 21.7031 97.2219 20.7969C96.3156 19.875 95.2453 19.1562 94.0109 18.6406C92.7922 18.1094 91.4875 17.8438 90.0969 17.8438H83.3703C82.9016 17.8438 82.4641 17.7578 82.0578 17.5859C81.6516 17.4141 81.2922 17.1797 80.9797 16.8828C80.6828 16.5703 80.4484 16.2109 80.2766 15.8047C80.1047 15.3828 80.0188 14.9375 80.0188 14.4688C80.0188 14 80.1047 13.5625 80.2766 13.1562C80.4484 12.75 80.6828 12.3984 80.9797 12.1016C81.2922 11.7891 81.6516 11.5469 82.0578 11.375C82.4641 11.2031 82.9016 11.1172 83.3703 11.1172H98.7922V4.39062H83.3703C81.9797 4.39062 80.675 4.65625 79.4563 5.1875C78.2375 5.71875 77.1672 6.44531 76.2453 7.36719C75.3391 8.27344 74.6203 9.33594 74.0891 10.5547C73.5578 11.7734 73.2922 13.0781 73.2922 14.4688C73.2922 15.8594 73.5578 17.1719 74.0891 18.4062C74.6203 19.625 75.3391 20.6953 76.2453 21.6172C77.1672 22.5234 78.2375 23.2422 79.4563 23.7734C80.675 24.3047 81.9797 24.5703 83.3703 24.5703H90.0969C90.5656 24.5703 91.0031 24.6562 91.4094 24.8281C91.8156 25 92.1672 25.2422 92.4641 25.5547C92.7766 25.8516 93.0188 26.2031 93.1906 26.6094C93.3625 27.0156 93.4484 27.4531 93.4484 27.9219C93.4484 28.3906 93.3625 28.8281 93.1906 29.2344C93.0188 29.6406 92.7766 30 92.4641 30.3125C92.1672 30.6094 91.8156 30.8438 91.4094 31.0156C91.0031 31.1875 90.5656 31.2734 90.0969 31.2734H75.1672V38H90.0969C91.4875 38 92.7922 37.7344 94.0109 37.2031ZM160.045 39H151.342V12.1172H141.241V3.39062H170.123V12.1172H160.045V39ZM152.342 11.1172V38H159.045V11.1172H169.123V4.39062H142.241V11.1172H152.342ZM232.182 20.0791L232.186 20.0706C232.489 19.3709 232.642 18.6316 232.642 17.8438C232.642 17.0558 232.489 16.327 232.189 15.6467L232.184 15.6362L232.18 15.6256C231.884 14.9135 231.479 14.306 230.966 13.793C230.45 13.2769 229.848 12.872 229.151 12.5772L229.144 12.5741L229.136 12.5708C228.456 12.2699 227.727 12.1172 226.939 12.1172H221.212V23.5703H226.939C227.73 23.5703 228.462 23.4241 229.143 23.137C229.844 22.8263 230.449 22.4121 230.966 21.8945C231.482 21.3783 231.887 20.7759 232.182 20.0791ZM229.541 24.0547C228.728 24.3984 227.861 24.5703 226.939 24.5703H220.212V11.1172H226.939C227.861 11.1172 228.728 11.2969 229.541 11.6562C230.353 12 231.064 12.4766 231.673 13.0859C232.283 13.6953 232.759 14.4141 233.103 15.2422C233.462 16.0547 233.642 16.9219 233.642 17.8438C233.642 18.7656 233.462 19.6406 233.103 20.4688C232.759 21.2812 232.283 21.9922 231.673 22.6016C231.064 23.2109 230.353 23.6953 229.541 24.0547ZM221.212 39H212.486V3.39062H226.939C228.261 3.39062 229.54 3.5662 230.772 3.92001C231.993 4.25521 233.136 4.74194 234.198 5.38112C235.27 6.00215 236.243 6.75708 237.115 7.64416C238.003 8.51687 238.759 9.49124 239.38 10.5655C240.018 11.6404 240.504 12.7898 240.839 14.0109C241.193 15.2431 241.369 16.5218 241.369 17.8438C241.369 19.0847 241.21 20.2959 240.89 21.4749C240.588 22.6465 240.144 23.7611 239.558 24.8165C238.985 25.8769 238.278 26.852 237.44 27.7409C236.796 28.4235 236.093 29.037 235.331 29.5809L239.324 39H230.009L227.081 32.2307L221.212 32.2672V39ZM220.212 31.2734L227.736 31.2266L230.666 38H237.814L234.087 29.2109C235.056 28.6016 235.931 27.8828 236.712 27.0547C237.494 26.2266 238.15 25.3203 238.681 24.3359C239.228 23.3516 239.642 22.3125 239.923 21.2188C240.22 20.125 240.369 19 240.369 17.8438C240.369 16.6094 240.205 15.4219 239.877 14.2812C239.564 13.1406 239.111 12.0703 238.517 11.0703C237.939 10.0703 237.236 9.16406 236.408 8.35156C235.595 7.52344 234.689 6.82031 233.689 6.24219C232.705 5.64844 231.642 5.19531 230.502 4.88281C229.361 4.55469 228.173 4.39062 226.939 4.39062H213.486V38H220.212V31.2734ZM301.716 39H293.013V28.2342C291.708 27.8307 290.489 27.2545 289.359 26.5055L289.354 26.5023C288.034 25.6168 286.893 24.5605 285.935 23.3342L285.931 23.329C284.976 22.0893 284.231 20.724 283.697 19.2368L283.692 19.2241C283.17 17.7089 282.911 16.122 282.911 14.4688V3.39062H291.638V14.4688C291.638 15.2589 291.783 15.9999 292.072 16.7C292.383 17.3986 292.797 18.0027 293.313 18.5195C293.83 19.0363 294.434 19.4499 295.133 19.7604C295.833 20.0494 296.574 20.1953 297.364 20.1953C298.157 20.1953 298.889 20.0486 299.572 19.7605C300.288 19.449 300.899 19.0348 301.415 18.5195C301.931 18.0033 302.336 17.4009 302.631 16.7041L302.634 16.6956C302.938 15.9959 303.091 15.2566 303.091 14.4688V3.39062H311.794V14.4688C311.794 16.1233 311.526 17.7115 310.988 19.2274C310.469 20.7184 309.73 22.087 308.773 23.329L308.769 23.3342C307.812 24.5605 306.671 25.6168 305.351 26.5023C304.232 27.2531 303.019 27.8302 301.716 28.234V39ZM310.044 18.8984C310.544 17.4922 310.794 16.0156 310.794 14.4688V4.39062H304.091V14.4688C304.091 15.3906 303.911 16.2656 303.552 17.0938C303.208 17.9062 302.731 18.6172 302.122 19.2266C301.513 19.8359 300.794 20.3203 299.966 20.6797C299.153 21.0234 298.286 21.1953 297.364 21.1953C296.442 21.1953 295.567 21.0234 294.739 20.6797C293.927 20.3203 293.216 19.8359 292.606 19.2266C291.997 18.6172 291.513 17.9062 291.153 17.0938C290.809 16.2656 290.638 15.3906 290.638 14.4688V4.39062H283.911V14.4688C283.911 16.0156 284.153 17.4922 284.638 18.8984C285.138 20.2891 285.833 21.5625 286.723 22.7188C287.614 23.8594 288.677 24.8438 289.911 25.6719C291.161 26.5 292.528 27.1016 294.013 27.4766V38H300.716V27.4766C302.2 27.1016 303.559 26.5 304.794 25.6719C306.028 24.8438 307.091 23.8594 307.981 22.7188C308.872 21.5625 309.559 20.2891 310.044 18.8984ZM384.06 39H373.549L367.647 29.0988L361.723 39H351.26L362.186 21.1953L351.26 3.39062H361.723L367.647 13.2918L373.549 3.39062H384.06L373.134 21.1953L384.06 39ZM371.961 21.1953L382.273 4.39062H374.117L367.648 15.2422L361.156 4.39062H353.047L363.359 21.1953L353.047 38H361.156L367.648 27.1484L374.117 38H382.273L371.961 21.1953Z" fill="black" fill-opacity="0.8"/>
<path d="M21.8984 21.5703V14.8438C21.8984 13.9219 21.7188 13.0547 21.3594 12.2422C21.0156 11.4141 20.5391 10.6953 19.9297 10.0859C19.3203 9.47656 18.6016 9 17.7734 8.65625C16.9609 8.29688 16.0938 8.11719 15.1719 8.11719C14.25 8.11719 13.375 8.29688 12.5469 8.65625C11.7344 9 11.0234 9.47656 10.4141 10.0859C9.80469 10.6953 9.32031 11.4141 8.96094 12.2422C8.61719 13.0547 8.44531 13.9219 8.44531 14.8438V21.5703H21.8984ZM28.625 35H21.8984V28.2734H8.44531V35H1.74219V14.8438C1.74219 12.9844 2.09375 11.2422 2.79688 9.61719C3.5 7.97656 4.45312 6.54688 5.65625 5.32812C6.875 4.10938 8.29688 3.14844 9.92188 2.44531C11.5625 1.74219 13.3125 1.39062 15.1719 1.39062C17.0312 1.39062 18.7734 1.74219 20.3984 2.44531C22.0391 3.14844 23.4688 4.10938 24.6875 5.32812C25.9062 6.54688 26.8672 7.97656 27.5703 9.61719C28.2734 11.2422 28.625 12.9844 28.625 14.8438V35Z" fill="white"/>
<path d="M73.2922 11.4688C73.2922 10.0781 73.5578 8.77344 74.0891 7.55469C74.6203 6.33594 75.3391 5.27344 76.2453 4.36719C77.1672 3.44531 78.2375 2.71875 79.4563 2.1875C80.675 1.65625 81.9797 1.39062 83.3703 1.39062H98.7922V8.11719H83.3703C82.9016 8.11719 82.4641 8.20312 82.0578 8.375C81.6516 8.54688 81.2922 8.78906 80.9797 9.10156C80.6828 9.39844 80.4484 9.75 80.2766 10.1562C80.1047 10.5625 80.0188 11 80.0188 11.4688C80.0188 11.9375 80.1047 12.3828 80.2766 12.8047C80.4484 13.2109 80.6828 13.5703 80.9797 13.8828C81.2922 14.1797 81.6516 14.4141 82.0578 14.5859C82.4641 14.7578 82.9016 14.8438 83.3703 14.8438H90.0969C91.4875 14.8438 92.7922 15.1094 94.0109 15.6406C95.2453 16.1562 96.3156 16.875 97.2219 17.7969C98.1438 18.7031 98.8625 19.7734 99.3781 21.0078C99.9094 22.2266 100.175 23.5312 100.175 24.9219C100.175 26.3125 99.9094 27.6172 99.3781 28.8359C98.8625 30.0547 98.1438 31.125 97.2219 32.0469C96.3156 32.9531 95.2453 33.6719 94.0109 34.2031C92.7922 34.7344 91.4875 35 90.0969 35H75.1672V28.2734H90.0969C90.5656 28.2734 91.0031 28.1875 91.4094 28.0156C91.8156 27.8438 92.1672 27.6094 92.4641 27.3125C92.7766 27 93.0188 26.6406 93.1906 26.2344C93.3625 25.8281 93.4484 25.3906 93.4484 24.9219C93.4484 24.4531 93.3625 24.0156 93.1906 23.6094C93.0188 23.2031 92.7766 22.8516 92.4641 22.5547C92.1672 22.2422 91.8156 22 91.4094 21.8281C91.0031 21.6562 90.5656 21.5703 90.0969 21.5703H83.3703C81.9797 21.5703 80.675 21.3047 79.4563 20.7734C78.2375 20.2422 77.1672 19.5234 76.2453 18.6172C75.3391 17.6953 74.6203 16.625 74.0891 15.4062C73.5578 14.1719 73.2922 12.8594 73.2922 11.4688Z" fill="white"/>
<path d="M159.045 35H152.342V8.11719H142.241V1.39062H169.123V8.11719H159.045V35Z" fill="white"/>
<path d="M220.212 8.11719V21.5703H226.939C227.861 21.5703 228.728 21.3984 229.541 21.0547C230.353 20.6953 231.064 20.2109 231.673 19.6016C232.283 18.9922 232.759 18.2812 233.103 17.4688C233.462 16.6406 233.642 15.7656 233.642 14.8438C233.642 13.9219 233.462 13.0547 233.103 12.2422C232.759 11.4141 232.283 10.6953 231.673 10.0859C231.064 9.47656 230.353 9 229.541 8.65625C228.728 8.29688 227.861 8.11719 226.939 8.11719H220.212ZM220.212 35H213.486V1.39062H226.939C228.173 1.39062 229.361 1.55469 230.502 1.88281C231.642 2.19531 232.705 2.64844 233.689 3.24219C234.689 3.82031 235.595 4.52344 236.408 5.35156C237.236 6.16406 237.939 7.07031 238.517 8.07031C239.111 9.07031 239.564 10.1406 239.877 11.2812C240.205 12.4219 240.369 13.6094 240.369 14.8438C240.369 16 240.22 17.125 239.923 18.2188C239.642 19.3125 239.228 20.3516 238.681 21.3359C238.15 22.3203 237.494 23.2266 236.712 24.0547C235.931 24.8828 235.056 25.6016 234.087 26.2109L237.814 35H230.666L227.736 28.2266L220.212 28.2734V35Z" fill="white"/>
<path d="M300.716 35H294.013V24.4766C292.528 24.1016 291.161 23.5 289.911 22.6719C288.677 21.8438 287.614 20.8594 286.723 19.7188C285.833 18.5625 285.138 17.2891 284.638 15.8984C284.153 14.4922 283.911 13.0156 283.911 11.4688V1.39062H290.638V11.4688C290.638 12.3906 290.809 13.2656 291.153 14.0938C291.513 14.9062 291.997 15.6172 292.606 16.2266C293.216 16.8359 293.927 17.3203 294.739 17.6797C295.567 18.0234 296.442 18.1953 297.364 18.1953C298.286 18.1953 299.153 18.0234 299.966 17.6797C300.794 17.3203 301.513 16.8359 302.122 16.2266C302.731 15.6172 303.208 14.9062 303.552 14.0938C303.911 13.2656 304.091 12.3906 304.091 11.4688V1.39062H310.794V11.4688C310.794 13.0156 310.544 14.4922 310.044 15.8984C309.559 17.2891 308.872 18.5625 307.981 19.7188C307.091 20.8594 306.028 21.8438 304.794 22.6719C303.559 23.5 302.2 24.1016 300.716 24.4766V35Z" fill="white"/>
<path d="M382.273 35H374.117L367.648 24.1484L361.156 35H353.047L363.359 18.1953L353.047 1.39062H361.156L367.648 12.2422L374.117 1.39062H382.273L371.961 18.1953L382.273 35Z" fill="white"/>
<path fill-rule="evenodd" clip-rule="evenodd" d="M20.4402 12.6362L20.4358 12.6256C20.1402 11.9135 19.7355 11.306 19.2226 10.793C18.7096 10.2801 18.1021 9.87541 17.3901 9.57984L17.3794 9.57544L17.3689 9.57079C16.6887 9.2699 15.9598 9.11719 15.1719 9.11719C14.384 9.11719 13.6447 9.26992 12.945 9.5736L12.9365 9.57726C12.2398 9.87204 11.6373 10.2769 11.1212 10.793C10.6059 11.3083 10.1917 11.9195 9.88015 12.636C9.59205 13.3185 9.44531 14.0512 9.44531 14.8438V20.5703H20.8984V14.8438C20.8984 14.0558 20.7457 13.327 20.4448 12.6467L20.4402 12.6362ZM21.8984 21.5703H8.44531V14.8438C8.44531 13.9219 8.61719 13.0547 8.96094 12.2422C9.32031 11.4141 9.80469 10.6953 10.4141 10.0859C11.0234 9.47656 11.7344 9 12.5469 8.65625C13.375 8.29688 14.25 8.11719 15.1719 8.11719C16.0938 8.11719 16.9609 8.29688 17.7734 8.65625C18.6016 9 19.3203 9.47656 19.9297 10.0859C20.5391 10.6953 21.0156 11.4141 21.3594 12.2422C21.7188 13.0547 21.8984 13.9219 21.8984 14.8438V21.5703ZM29.625 36H20.8984V29.2734H9.44531V36H0.742188V14.8438C0.742188 12.8554 1.1188 10.9778 1.87841 9.22168C2.62862 7.47171 3.65032 5.93668 4.9446 4.6256L4.94913 4.621C6.25946 3.31068 7.7873 2.27933 9.52476 1.52754L9.52795 1.52616C11.2982 0.76747 13.1828 0.390625 15.1719 0.390625C17.1603 0.390625 19.0379 0.767265 20.7941 1.52693C22.5467 2.27829 24.0831 3.30955 25.3946 4.62102C26.7061 5.93255 27.7374 7.46906 28.4888 9.22174C29.2484 10.9779 29.625 12.8554 29.625 14.8438V36ZM27.5703 9.61719C26.8672 7.97656 25.9062 6.54688 24.6875 5.32812C23.4688 4.10938 22.0391 3.14844 20.3984 2.44531C18.7734 1.74219 17.0312 1.39062 15.1719 1.39062C13.3125 1.39062 11.5625 1.74219 9.92188 2.44531C8.29688 3.14844 6.875 4.10938 5.65625 5.32812C4.45312 6.54688 3.5 7.97656 2.79688 9.61719C2.09375 11.2422 1.74219 12.9844 1.74219 14.8438V35H8.44531V28.2734H21.8984V35H28.625V14.8438C28.625 12.9844 28.2734 11.2422 27.5703 9.61719ZM99.7922 0.390625V9.11719H83.3703C83.0269 9.11719 82.7228 9.17947 82.4475 9.29597C82.16 9.41757 81.9084 9.58706 81.6868 9.80867C81.4856 10.0099 81.3218 10.2521 81.1975 10.5459C81.081 10.8213 81.0188 11.1254 81.0188 11.4688C81.0188 11.8096 81.0802 12.1245 81.2002 12.4213C81.3225 12.7086 81.4846 12.958 81.6871 13.1754C81.9061 13.3793 82.1575 13.5423 82.4475 13.665C82.7228 13.7815 83.0269 13.8438 83.3703 13.8438H90.0969C91.6159 13.8438 93.0549 14.1342 94.4034 14.7208C95.7507 15.2847 96.9293 16.0744 97.9292 17.0899C98.9446 18.0897 99.7341 19.2681 100.298 20.6153C100.885 21.9638 101.175 23.4028 101.175 24.9219C101.175 26.4416 100.884 27.8813 100.297 29.2304C99.7321 30.564 98.9421 31.7409 97.929 32.754C96.9292 33.7537 95.7523 34.5421 94.4079 35.121C93.0581 35.7089 91.6176 36 90.0969 36H74.1672V27.2734H90.0969C90.4403 27.2734 90.7444 27.2112 91.0197 27.0947C91.3135 26.9704 91.5557 26.8066 91.757 26.6054C91.9786 26.3838 92.1481 26.1321 92.2697 25.8447C92.3862 25.5694 92.4484 25.2653 92.4484 24.9219C92.4484 24.5785 92.3862 24.2744 92.2697 23.999C92.15 23.7163 91.9858 23.4797 91.7753 23.2797L91.7567 23.262L91.7391 23.2434C91.5391 23.0329 91.3025 22.8687 91.0197 22.7491C90.7444 22.6326 90.4403 22.5703 90.0969 22.5703H83.3703C81.8486 22.5703 80.4072 22.2789 79.0567 21.6901C77.7291 21.1114 76.5558 20.3247 75.5443 19.3303L75.5382 19.3243L75.5322 19.3182C74.5378 18.3067 73.7511 17.1334 73.1724 15.8058L73.1705 15.8016C72.5836 14.438 72.2922 12.9905 72.2922 11.4688C72.2922 9.94707 72.5837 8.50569 73.1724 7.1551C73.7517 5.82599 74.5402 4.65812 75.5382 3.66008C76.5503 2.64795 77.7255 1.85105 79.0567 1.2708C80.4072 0.682088 81.8486 0.390625 83.3703 0.390625H99.7922ZM94.0109 34.2031C95.2453 33.6719 96.3156 32.9531 97.2219 32.0469C98.1438 31.125 98.8625 30.0547 99.3781 28.8359C99.9094 27.6172 100.175 26.3125 100.175 24.9219C100.175 23.5312 99.9094 22.2266 99.3781 21.0078C98.8625 19.7734 98.1438 18.7031 97.2219 17.7969C96.3156 16.875 95.2453 16.1562 94.0109 15.6406C92.7922 15.1094 91.4875 14.8438 90.0969 14.8438H83.3703C82.9016 14.8438 82.4641 14.7578 82.0578 14.5859C81.6516 14.4141 81.2922 14.1797 80.9797 13.8828C80.6828 13.5703 80.4484 13.2109 80.2766 12.8047C80.1047 12.3828 80.0188 11.9375 80.0188 11.4688C80.0188 11 80.1047 10.5625 80.2766 10.1562C80.4484 9.75 80.6828 9.39844 80.9797 9.10156C81.2922 8.78906 81.6516 8.54688 82.0578 8.375C82.4641 8.20312 82.9016 8.11719 83.3703 8.11719H98.7922V1.39062H83.3703C81.9797 1.39062 80.675 1.65625 79.4563 2.1875C78.2375 2.71875 77.1672 3.44531 76.2453 4.36719C75.3391 5.27344 74.6203 6.33594 74.0891 7.55469C73.5578 8.77344 73.2922 10.0781 73.2922 11.4688C73.2922 12.8594 73.5578 14.1719 74.0891 15.4062C74.6203 16.625 75.3391 17.6953 76.2453 18.6172C77.1672 19.5234 78.2375 20.2422 79.4563 20.7734C80.675 21.3047 81.9797 21.5703 83.3703 21.5703H90.0969C90.5656 21.5703 91.0031 21.6562 91.4094 21.8281C91.8156 22 92.1672 22.2422 92.4641 22.5547C92.7766 22.8516 93.0188 23.2031 93.1906 23.6094C93.3625 24.0156 93.4484 24.4531 93.4484 24.9219C93.4484 25.3906 93.3625 25.8281 93.1906 26.2344C93.0188 26.6406 92.7766 27 92.4641 27.3125C92.1672 27.6094 91.8156 27.8438 91.4094 28.0156C91.0031 28.1875 90.5656 28.2734 90.0969 28.2734H75.1672V35H90.0969C91.4875 35 92.7922 34.7344 94.0109 34.2031ZM160.045 36H151.342V9.11719H141.241V0.390625H170.123V9.11719H160.045V36ZM152.342 8.11719V35H159.045V8.11719H169.123V1.39062H142.241V8.11719H152.342ZM232.182 17.0791L232.186 17.0706C232.489 16.3709 232.642 15.6316 232.642 14.8438C232.642 14.0558 232.489 13.327 232.189 12.6467L232.184 12.6362L232.18 12.6256C231.884 11.9135 231.479 11.306 230.966 10.793C230.45 10.2769 229.848 9.872 229.151 9.57722L229.144 9.57406L229.136 9.57079C228.456 9.2699 227.727 9.11719 226.939 9.11719H221.212V20.5703H226.939C227.73 20.5703 228.462 20.4241 229.143 20.137C229.844 19.8263 230.449 19.4121 230.966 18.8945C231.482 18.3783 231.887 17.7759 232.182 17.0791ZM229.541 21.0547C228.728 21.3984 227.861 21.5703 226.939 21.5703H220.212V8.11719H226.939C227.861 8.11719 228.728 8.29688 229.541 8.65625C230.353 9 231.064 9.47656 231.673 10.0859C232.283 10.6953 232.759 11.4141 233.103 12.2422C233.462 13.0547 233.642 13.9219 233.642 14.8438C233.642 15.7656 233.462 16.6406 233.103 17.4688C232.759 18.2812 232.283 18.9922 231.673 19.6016C231.064 20.2109 230.353 20.6953 229.541 21.0547ZM221.212 36H212.486V0.390625H226.939C228.261 0.390625 229.54 0.566198 230.772 0.920007C231.993 1.25521 233.136 1.74194 234.198 2.38112C235.27 3.00215 236.243 3.75708 237.115 4.64416C238.003 5.51687 238.759 6.49124 239.38 7.5655C240.018 8.64042 240.504 9.78981 240.839 11.0109C241.193 12.2431 241.369 13.5218 241.369 14.8438C241.369 16.0847 241.21 17.2959 240.89 18.4749C240.588 19.6465 240.144 20.7611 239.558 21.8165C238.985 22.8769 238.278 23.852 237.44 24.7409C236.796 25.4235 236.093 26.037 235.331 26.5809L239.324 36H230.009L227.081 29.2307L221.212 29.2672V36ZM220.212 28.2734L227.736 28.2266L230.666 35H237.814L234.087 26.2109C235.056 25.6016 235.931 24.8828 236.712 24.0547C237.494 23.2266 238.15 22.3203 238.681 21.3359C239.228 20.3516 239.642 19.3125 239.923 18.2188C240.22 17.125 240.369 16 240.369 14.8438C240.369 13.6094 240.205 12.4219 239.877 11.2812C239.564 10.1406 239.111 9.07031 238.517 8.07031C237.939 7.07031 237.236 6.16406 236.408 5.35156C235.595 4.52344 234.689 3.82031 233.689 3.24219C232.705 2.64844 231.642 2.19531 230.502 1.88281C229.361 1.55469 228.173 1.39062 226.939 1.39062H213.486V35H220.212V28.2734ZM301.716 36H293.013V25.2342C291.708 24.8307 290.489 24.2545 289.359 23.5055L289.354 23.5023C288.034 22.6168 286.893 21.5605 285.935 20.3342L285.931 20.329C284.976 19.0893 284.231 17.724 283.697 16.2368L283.692 16.2241C283.17 14.7089 282.911 13.122 282.911 11.4688V0.390625H291.638V11.4688C291.638 12.2589 291.783 12.9999 292.072 13.7C292.383 14.3986 292.797 15.0027 293.313 15.5195C293.83 16.0363 294.434 16.4499 295.133 16.7604C295.833 17.0494 296.574 17.1953 297.364 17.1953C298.157 17.1953 298.889 17.0486 299.572 16.7605C300.288 16.449 300.899 16.0348 301.415 15.5195C301.931 15.0033 302.336 14.4009 302.631 13.7041L302.634 13.6956C302.938 12.9959 303.091 12.2566 303.091 11.4688V0.390625H311.794V11.4688C311.794 13.1233 311.526 14.7115 310.988 16.2274C310.469 17.7184 309.73 19.087 308.773 20.329L308.769 20.3342C307.812 21.5605 306.671 22.6168 305.351 23.5023C304.232 24.2531 303.019 24.8302 301.716 25.234V36ZM310.044 15.8984C310.544 14.4922 310.794 13.0156 310.794 11.4688V1.39062H304.091V11.4688C304.091 12.3906 303.911 13.2656 303.552 14.0938C303.208 14.9062 302.731 15.6172 302.122 16.2266C301.513 16.8359 300.794 17.3203 299.966 17.6797C299.153 18.0234 298.286 18.1953 297.364 18.1953C296.442 18.1953 295.567 18.0234 294.739 17.6797C293.927 17.3203 293.216 16.8359 292.606 16.2266C291.997 15.6172 291.513 14.9062 291.153 14.0938C290.809 13.2656 290.638 12.3906 290.638 11.4688V1.39062H283.911V11.4688C283.911 13.0156 284.153 14.4922 284.638 15.8984C285.138 17.2891 285.833 18.5625 286.723 19.7188C287.614 20.8594 288.677 21.8438 289.911 22.6719C291.161 23.5 292.528 24.1016 294.013 24.4766V35H300.716V24.4766C302.2 24.1016 303.559 23.5 304.794 22.6719C306.028 21.8438 307.091 20.8594 307.981 19.7188C308.872 18.5625 309.559 17.2891 310.044 15.8984ZM384.06 36H373.549L367.647 26.0988L361.723 36H351.26L362.186 18.1953L351.26 0.390625H361.723L367.647 10.2918L373.549 0.390625H384.06L373.134 18.1953L384.06 36ZM371.961 18.1953L382.273 1.39062H374.117L367.648 12.2422L361.156 1.39062H353.047L363.359 18.1953L353.047 35H361.156L367.648 24.1484L374.117 35H382.273L371.961 18.1953Z" fill="black"/>
</svg>
