<svg width="358" height="66" viewBox="0 0 358 66" fill="none" xmlns="http://www.w3.org/2000/svg">
<path d="M22.8984 39.5703V40.5703H23.8984V39.5703H22.8984ZM22.3594 30.2422L21.4358 30.6256L21.4402 30.6362L21.4448 30.6467L22.3594 30.2422ZM18.7734 26.6562L18.3689 27.5708L18.3794 27.5754L18.3901 27.5798L18.7734 26.6562ZM13.5469 26.6562L13.9365 27.5773L13.945 27.5736L13.5469 26.6562ZM9.96094 30.2422L9.04355 29.8441L9.03997 29.8525L9.96094 30.2422ZM9.44531 39.5703H8.44531V40.5703H9.44531V39.5703ZM29.625 53V54H30.625V53H29.625ZM22.8984 53H21.8984V54H22.8984V53ZM22.8984 46.2734H23.8984V45.2734H22.8984V46.2734ZM9.44531 46.2734V45.2734H8.44531V46.2734H9.44531ZM9.44531 53V54H10.4453V53H9.44531ZM2.74219 53H1.74219V54H2.74219V53ZM3.79688 27.6172L4.71465 28.0143L4.71602 28.0111L3.79688 27.6172ZM6.65625 23.3281L5.94913 22.621L5.9446 22.6256L6.65625 23.3281ZM10.9219 20.4453L10.528 19.5262L10.5248 19.5275L10.9219 20.4453ZM21.3984 20.4453L21.0013 21.3631L21.0045 21.3645L21.3984 20.4453ZM28.5703 27.6172L27.6512 28.0111L27.6525 28.0143L28.5703 27.6172ZM23.8984 39.5703V32.8438H21.8984V39.5703H23.8984ZM23.8984 32.8438C23.8984 31.7879 23.6918 30.7824 23.2739 29.8377L21.4448 30.6467C21.7457 31.327 21.8984 32.0558 21.8984 32.8438H23.8984ZM23.283 29.8588C22.891 28.9146 22.3426 28.0846 21.6368 27.3788L20.2226 28.793C20.7355 29.306 21.1402 29.9135 21.4358 30.6256L23.283 29.8588ZM21.6368 27.3788C20.931 26.673 20.101 26.1246 19.1568 25.7327L18.3901 27.5798C19.1021 27.8754 19.7096 28.2801 20.2226 28.793L21.6368 27.3788ZM19.1779 25.7417C18.2332 25.3239 17.2277 25.1172 16.1719 25.1172V27.1172C16.9598 27.1172 17.6887 27.2699 18.3689 27.5708L19.1779 25.7417ZM16.1719 25.1172C15.116 25.1172 14.1053 25.3238 13.1488 25.7389L13.945 27.5736C14.6447 27.2699 15.384 27.1172 16.1719 27.1172V25.1172ZM13.1572 25.7353C12.229 26.128 11.4096 26.6762 10.707 27.3788L12.1212 28.793C12.6373 28.2769 13.2397 27.872 13.9365 27.5772L13.1572 25.7353ZM10.707 27.3788C10.0045 28.0813 9.45059 28.9062 9.04359 29.8441L10.8783 30.6403C11.19 29.9219 11.6049 29.3094 12.1212 28.793L10.707 27.3788ZM9.03997 29.8525C8.64173 30.7939 8.44531 31.7941 8.44531 32.8438H10.4453C10.4453 32.0496 10.5926 31.3155 10.8819 30.6318L9.03997 29.8525ZM8.44531 32.8438V39.5703H10.4453V32.8438H8.44531ZM9.44531 40.5703H22.8984V38.5703H9.44531V40.5703ZM29.625 52H22.8984V54H29.625V52ZM23.8984 53V46.2734H21.8984V53H23.8984ZM22.8984 45.2734H9.44531V47.2734H22.8984V45.2734ZM8.44531 46.2734V53H10.4453V46.2734H8.44531ZM9.44531 52H2.74219V54H9.44531V52ZM3.74219 53V32.8438H1.74219V53H3.74219ZM3.74219 32.8438C3.74219 31.114 4.06847 29.5077 4.71465 28.0143L2.8791 27.2201C2.11903 28.9767 1.74219 30.8548 1.74219 32.8438H3.74219ZM4.71602 28.0111C5.372 26.4805 6.25633 25.1567 7.3679 24.0307L5.9446 22.6256C4.64992 23.9371 3.628 25.4726 2.87773 27.2233L4.71602 28.0111ZM7.36336 24.0352C8.49053 22.9081 9.80645 22.0175 11.319 21.3631L10.5248 19.5275C8.7873 20.2793 7.25947 21.3107 5.94914 22.621L7.36336 24.0352ZM11.3158 21.3645C12.8268 20.7169 14.4422 20.3906 16.1719 20.3906V18.3906C14.1828 18.3906 12.2982 18.7675 10.528 19.5262L11.3158 21.3645ZM16.1719 20.3906C17.9016 20.3906 19.5079 20.7169 21.0013 21.3631L21.7955 19.5275C20.0389 18.7675 18.1609 18.3906 16.1719 18.3906V20.3906ZM21.0045 21.3645C22.5325 22.0193 23.8548 22.9096 24.9804 24.0352L26.3946 22.621C25.0827 21.3091 23.5457 20.2776 21.7924 19.5262L21.0045 21.3645ZM24.9804 24.0352C26.106 25.1608 26.9963 26.4832 27.6512 28.0111L29.4895 27.2233C28.738 25.47 27.7065 23.9329 26.3946 22.621L24.9804 24.0352ZM27.6525 28.0143C28.2987 29.5077 28.625 31.114 28.625 32.8438H30.625C30.625 30.8548 30.2482 28.9767 29.4881 27.2201L27.6525 28.0143ZM28.625 32.8438V53H30.625V32.8438H28.625ZM94.2722 19.3906H95.2722V18.3906H94.2722V19.3906ZM94.2722 26.1172V27.1172H95.2722V26.1172H94.2722ZM75.7566 30.8047L74.8304 31.182L74.8356 31.1943L75.7566 30.8047ZM76.4597 31.8828L75.7347 32.5716L75.7523 32.5902L75.7709 32.6078L76.4597 31.8828ZM89.4909 33.6406L89.0914 34.5573L89.0984 34.5604L89.1055 34.5634L89.4909 33.6406ZM92.7019 35.7969L91.9887 36.4979L91.9947 36.504L92.0008 36.51L92.7019 35.7969ZM94.8581 39.0078L93.9354 39.3933L93.9384 39.4004L93.9414 39.4074L94.8581 39.0078ZM94.8581 46.8359L93.9414 46.4363L93.9372 46.4463L94.8581 46.8359ZM89.4909 52.2031L89.0956 51.2846L89.0914 51.2864L89.4909 52.2031ZM70.6472 53H69.6472V54H70.6472V53ZM70.6472 46.2734V45.2734H69.6472V46.2734H70.6472ZM87.9441 40.5547L87.2191 41.2434L87.2367 41.262L87.2553 41.2797L87.9441 40.5547ZM71.7253 36.6172L71.0122 37.3182L71.0182 37.3243L71.0243 37.3303L71.7253 36.6172ZM69.5691 33.4062L68.6505 33.8016L68.6524 33.8058L69.5691 33.4062ZM69.7722 29.4688C69.7722 28.2092 70.012 27.0412 70.4858 25.9543L68.6524 25.1551C68.0636 26.5057 67.7722 27.9471 67.7722 29.4688H69.7722ZM70.4858 25.9543C70.9689 24.8459 71.618 23.8888 72.4324 23.0743L71.0182 21.6601C70.0202 22.6581 69.2317 23.826 68.6524 25.1551L70.4858 25.9543ZM72.4324 23.0743C73.264 22.2427 74.2295 21.5865 75.3358 21.1042L74.5367 19.2708C73.2055 19.851 72.0303 20.6479 71.0182 21.6601L72.4324 23.0743ZM75.3358 21.1042C76.4228 20.6304 77.5907 20.3906 78.8503 20.3906V18.3906C77.3286 18.3906 75.8872 18.6821 74.5367 19.2708L75.3358 21.1042ZM78.8503 20.3906H94.2722V18.3906H78.8503V20.3906ZM93.2722 19.3906V26.1172H95.2722V19.3906H93.2722ZM94.2722 25.1172H78.8503V27.1172H94.2722V25.1172ZM78.8503 25.1172C78.2562 25.1172 77.6853 25.2268 77.1482 25.454L77.9275 27.296C78.2028 27.1795 78.5069 27.1172 78.8503 27.1172V25.1172ZM77.1482 25.454C76.6231 25.6762 76.156 25.9911 75.7526 26.3945L77.1668 27.8087C77.3884 27.5871 77.64 27.4176 77.9275 27.296L77.1482 25.454ZM75.7526 26.3945C75.3601 26.787 75.0551 27.2479 74.8356 27.7666L76.6775 28.5459C76.8018 28.2521 76.9656 28.0099 77.1668 27.8087L75.7526 26.3945ZM74.8356 27.7666C74.6083 28.3037 74.4987 28.8746 74.4987 29.4688H76.4987C76.4987 29.1254 76.561 28.8213 76.6775 28.5459L74.8356 27.7666ZM74.4987 29.4688C74.4987 30.063 74.6084 30.6368 74.8305 31.182L76.6827 30.4274C76.561 30.1288 76.4987 29.812 76.4987 29.4688H74.4987ZM74.8356 31.1943C75.0532 31.7086 75.3531 32.1699 75.7347 32.5716L77.1847 31.1941C76.9725 30.9707 76.8037 30.7133 76.6775 30.415L74.8356 31.1943ZM75.7709 32.6078C76.1726 32.9894 76.6339 33.2893 77.1482 33.5069L77.9275 31.665C77.6292 31.5388 77.3718 31.37 77.1484 31.1578L75.7709 32.6078ZM77.1482 33.5069C77.6853 33.7342 78.2562 33.8438 78.8503 33.8438V31.8438C78.5069 31.8438 78.2028 31.7815 77.9275 31.665L77.1482 33.5069ZM78.8503 33.8438H85.5769V31.8438H78.8503V33.8438ZM85.5769 33.8438C86.8364 33.8438 88.0044 34.0835 89.0914 34.5573L89.8905 32.7239C88.5399 32.1352 87.0986 31.8438 85.5769 31.8438V33.8438ZM89.1055 34.5634C90.2213 35.0295 91.1791 35.6743 91.9887 36.4979L93.415 35.0958C92.4121 34.0757 91.2293 33.283 89.8764 32.7179L89.1055 34.5634ZM92.0008 36.51C92.8244 37.3196 93.4693 38.2774 93.9354 39.3933L95.7809 38.6224C95.2157 37.2695 94.4231 36.0866 93.4029 35.0838L92.0008 36.51ZM93.9414 39.4074C94.4152 40.4943 94.655 41.6623 94.655 42.9219H96.655C96.655 41.4002 96.3635 39.9588 95.7748 38.6082L93.9414 39.4074ZM94.655 42.9219C94.655 44.1814 94.4152 45.3494 93.9414 46.4364L95.7748 47.2355C96.3635 45.8849 96.655 44.4436 96.655 42.9219H94.655ZM93.9372 46.4463C93.4709 47.5483 92.8242 48.5104 91.9948 49.3398L93.409 50.754C94.4233 49.7396 95.2141 48.5611 95.7791 47.2256L93.9372 46.4463ZM91.9948 49.3398C91.1824 50.1521 90.2193 50.801 89.0956 51.2846L89.8863 53.1217C91.2313 52.5428 92.4088 51.7541 93.409 50.754L91.9948 49.3398ZM89.0914 51.2864C88.0044 51.7602 86.8364 52 85.5769 52V54C87.0986 54 88.5399 53.7085 89.8905 53.1198L89.0914 51.2864ZM85.5769 52H70.6472V54H85.5769V52ZM71.6472 53V46.2734H69.6472V53H71.6472ZM70.6472 47.2734H85.5769V45.2734H70.6472V47.2734ZM85.5769 47.2734C86.171 47.2734 86.7419 47.1638 87.279 46.9366L86.4997 45.0947C86.2244 45.2112 85.9203 45.2734 85.5769 45.2734V47.2734ZM87.279 46.9366C87.7978 46.7171 88.2587 46.4121 88.6512 46.0196L87.237 44.6054C87.0357 44.8066 86.7935 44.9704 86.4997 45.0947L87.279 46.9366ZM88.6512 46.0196C89.0546 45.6162 89.3694 45.1491 89.5916 44.624L87.7497 43.8447C87.6281 44.1322 87.4586 44.3838 87.237 44.6054L88.6512 46.0196ZM89.5916 44.624C89.8188 44.0869 89.9284 43.516 89.9284 42.9219H87.9284C87.9284 43.2653 87.8662 43.5694 87.7497 43.8447L89.5916 44.624ZM89.9284 42.9219C89.9284 42.3278 89.8188 41.7569 89.5916 41.2197L87.7497 41.999C87.8662 42.2744 87.9284 42.5785 87.9284 42.9219H89.9284ZM89.5916 41.2197C89.3675 40.69 89.0473 40.2235 88.6328 39.8297L87.2553 41.2797C87.4658 41.4797 87.63 41.7163 87.7497 41.999L89.5916 41.2197ZM88.6691 39.8659C88.2753 39.4514 87.8088 39.1313 87.279 38.9072L86.4997 40.7491C86.7825 40.8687 87.0191 41.0329 87.2191 41.2434L88.6691 39.8659ZM87.279 38.9072C86.7419 38.6799 86.171 38.5703 85.5769 38.5703V40.5703C85.9203 40.5703 86.2244 40.6326 86.4997 40.7491L87.279 38.9072ZM85.5769 38.5703H78.8503V40.5703H85.5769V38.5703ZM78.8503 38.5703C77.5907 38.5703 76.4228 38.3305 75.3358 37.8567L74.5367 39.6901C75.8872 40.2788 77.3286 40.5703 78.8503 40.5703V38.5703ZM75.3358 37.8567C74.2259 37.3729 73.2585 36.7221 72.4263 35.9041L71.0243 37.3303C72.0358 38.3247 73.2091 39.1114 74.5367 39.6901L75.3358 37.8567ZM72.4384 35.9161C71.6203 35.084 70.9696 34.1166 70.4858 33.0067L68.6524 33.8058C69.2311 35.1334 70.0178 36.3067 71.0122 37.3182L72.4384 35.9161ZM70.4876 33.0109C70.012 31.9058 69.7722 30.7283 69.7722 29.4688H67.7722C67.7722 30.9905 68.0636 32.438 68.6505 33.8016L70.4876 33.0109ZM149.005 53V54H150.005V53H149.005ZM142.302 53H141.302V54H142.302V53ZM142.302 26.1172H143.302V25.1172H142.302V26.1172ZM132.201 26.1172H131.201V27.1172H132.201V26.1172ZM132.201 19.3906V18.3906H131.201V19.3906H132.201ZM159.083 19.3906H160.083V18.3906H159.083V19.3906ZM159.083 26.1172V27.1172H160.083V26.1172H159.083ZM149.005 26.1172V25.1172H148.005V26.1172H149.005ZM149.005 52H142.302V54H149.005V52ZM143.302 53V26.1172H141.302V53H143.302ZM142.302 25.1172H132.201V27.1172H142.302V25.1172ZM133.201 26.1172V19.3906H131.201V26.1172H133.201ZM132.201 20.3906H159.083V18.3906H132.201V20.3906ZM158.083 19.3906V26.1172H160.083V19.3906H158.083ZM159.083 25.1172H149.005V27.1172H159.083V25.1172ZM148.005 26.1172V53H150.005V26.1172H148.005ZM204.652 26.1172V25.1172H203.652V26.1172H204.652ZM204.652 39.5703H203.652V40.5703H204.652V39.5703ZM213.981 39.0547L214.37 39.9757L214.378 39.9725L214.385 39.9692L213.981 39.0547ZM217.543 35.4688L216.626 35.0706L216.622 35.0791L217.543 35.4688ZM217.543 30.2422L216.62 30.6256L216.624 30.6362L216.629 30.6467L217.543 30.2422ZM213.981 26.6562L213.576 27.5708L213.584 27.5741L213.591 27.5772L213.981 26.6562ZM204.652 53V54H205.652V53H204.652ZM197.926 53H196.926V54H197.926V53ZM197.926 19.3906V18.3906H196.926V19.3906H197.926ZM214.942 19.8828L214.665 20.8439L214.677 20.8473L214.942 19.8828ZM218.129 21.2422L217.613 22.0985L217.621 22.1033L217.629 22.1079L218.129 21.2422ZM220.848 23.3516L220.134 24.0519L220.141 24.0587L220.147 24.0654L220.848 23.3516ZM222.957 26.0703L222.091 26.5708L222.097 26.5809L222.957 26.0703ZM224.317 29.2812L223.352 29.5455L223.356 29.5577L224.317 29.2812ZM224.363 36.2188L223.398 35.9568L223.395 35.9697L224.363 36.2188ZM223.121 39.3359L222.247 38.8503L222.241 38.861L223.121 39.3359ZM218.527 44.2109L217.995 43.3645L217.275 43.8177L217.607 44.6013L218.527 44.2109ZM222.254 53V54H223.764L223.175 52.6096L222.254 53ZM215.106 53L214.188 53.397L214.449 54H215.106V53ZM212.176 46.2266L213.094 45.8296L212.831 45.2225L212.17 45.2266L212.176 46.2266ZM204.652 46.2734L204.646 45.2735L203.652 45.2796V46.2734H204.652ZM203.652 26.1172V39.5703H205.652V26.1172H203.652ZM204.652 40.5703H211.379V38.5703H204.652V40.5703ZM211.379 40.5703C212.429 40.5703 213.429 40.3739 214.37 39.9757L213.591 38.1337C212.907 38.423 212.173 38.5703 211.379 38.5703V40.5703ZM214.385 39.9692C215.307 39.5615 216.121 39.008 216.821 38.3087L215.406 36.8945C214.887 37.4139 214.279 37.8291 213.576 38.1402L214.385 39.9692ZM216.821 38.3087C217.523 37.606 218.071 36.7866 218.464 35.8584L216.622 35.0791C216.327 35.7759 215.922 36.3783 215.406 36.8945L216.821 38.3087ZM218.46 35.8668C218.876 34.9104 219.082 33.8996 219.082 32.8438H217.082C217.082 33.6316 216.929 34.3709 216.626 35.0707L218.46 35.8668ZM219.082 32.8438C219.082 31.7879 218.876 30.7824 218.458 29.8377L216.629 30.6467C216.929 31.327 217.082 32.0558 217.082 32.8438H219.082ZM218.467 29.8588C218.075 28.9146 217.526 28.0846 216.821 27.3788L215.406 28.793C215.919 29.306 216.324 29.9135 216.62 30.6256L218.467 29.8588ZM216.821 27.3788C216.118 26.6762 215.298 26.128 214.37 25.7353L213.591 27.5772C214.288 27.872 214.89 28.2769 215.406 28.793L216.821 27.3788ZM214.385 25.7417C213.44 25.3239 212.435 25.1172 211.379 25.1172V27.1172C212.167 27.1172 212.896 27.2699 213.576 27.5708L214.385 25.7417ZM211.379 25.1172H204.652V27.1172H211.379V25.1172ZM204.652 52H197.926V54H204.652V52ZM198.926 53V19.3906H196.926V53H198.926ZM197.926 20.3906H211.379V18.3906H197.926V20.3906ZM211.379 20.3906C212.524 20.3906 213.618 20.5426 214.665 20.8438L215.218 18.9218C213.984 18.5668 212.703 18.3906 211.379 18.3906V20.3906ZM214.677 20.8473C215.732 21.1362 216.709 21.5536 217.613 22.0985L218.646 20.3859C217.58 19.7433 216.433 19.2544 215.206 18.9184L214.677 20.8473ZM217.629 22.1079C218.55 22.6406 219.385 23.288 220.134 24.0519L221.562 22.6512C220.686 21.7589 219.708 21 218.63 20.3765L217.629 22.1079ZM220.147 24.0654C220.911 24.8149 221.559 25.6494 222.091 26.5708L223.823 25.5698C223.199 24.4912 222.441 23.5133 221.548 22.6378L220.147 24.0654ZM222.097 26.5809C222.645 27.5025 223.063 28.4898 223.352 29.5455L225.281 29.017C224.945 27.7914 224.457 26.6381 223.817 25.5598L222.097 26.5809ZM223.356 29.5577C223.657 30.6049 223.809 31.6991 223.809 32.8438H225.809C225.809 31.5196 225.633 30.2388 225.278 29.0048L223.356 29.5577ZM223.809 32.8438C223.809 33.9133 223.672 34.9502 223.398 35.9568L225.329 36.4807C225.649 35.2998 225.809 34.0867 225.809 32.8438H223.809ZM223.395 35.9697C223.135 36.9811 222.752 37.9407 222.247 38.8503L223.995 39.8216C224.584 38.7625 225.03 37.6439 225.332 36.4678L223.395 35.9697ZM222.241 38.861C221.752 39.7672 221.148 40.6027 220.425 41.3685L221.88 42.7409C222.72 41.8505 223.428 40.8734 224.001 39.8109L222.241 38.861ZM220.425 41.3685C219.702 42.1348 218.893 42.7998 217.995 43.3645L219.06 45.0574C220.1 44.4033 221.04 43.6308 221.88 42.7409L220.425 41.3685ZM217.607 44.6013L221.333 53.3904L223.175 52.6096L219.448 43.8206L217.607 44.6013ZM222.254 52H215.106V54H222.254V52ZM216.023 52.603L213.094 45.8296L211.258 46.6235L214.188 53.397L216.023 52.603ZM212.17 45.2266L204.646 45.2735L204.659 47.2734L212.182 47.2265L212.17 45.2266ZM203.652 46.2734V53H205.652V46.2734H203.652ZM279.636 53V54H280.636V53H279.636ZM272.932 53H271.932V54H272.932V53ZM272.932 42.4766H273.932V41.6978L273.177 41.507L272.932 42.4766ZM268.831 40.6719L268.274 41.5023L268.279 41.5055L268.831 40.6719ZM265.643 37.7188L264.851 38.329L264.855 38.3342L265.643 37.7188ZM263.557 33.8984L262.612 34.2241L262.616 34.2368L263.557 33.8984ZM262.831 19.3906V18.3906H261.831V19.3906H262.831ZM269.557 19.3906H270.557V18.3906H269.557V19.3906ZM270.073 32.0938L269.15 32.4771L269.154 32.4877L269.159 32.4983L270.073 32.0938ZM273.659 35.6797L273.255 36.5942L273.265 36.5989L273.276 36.6033L273.659 35.6797ZM278.886 35.6797L279.275 36.6007L279.284 36.597L278.886 35.6797ZM282.472 32.0938L281.554 31.6956L281.551 31.7041L282.472 32.0938ZM283.011 19.3906V18.3906H282.011V19.3906H283.011ZM289.714 19.3906H290.714V18.3906H289.714V19.3906ZM288.964 33.8984L288.022 33.5634L288.019 33.5695L288.964 33.8984ZM286.901 37.7188L287.689 38.3342L287.693 38.329L286.901 37.7188ZM279.636 42.4766L279.391 41.507L278.636 41.6978V42.4766H279.636ZM279.636 52H272.932V54H279.636V52ZM273.932 53V42.4766H271.932V53H273.932ZM273.177 41.507C271.8 41.1591 270.537 40.6027 269.383 39.8382L268.279 41.5055C269.625 42.3973 271.096 43.0441 272.688 43.4461L273.177 41.507ZM269.388 39.8414C268.239 39.0707 267.255 38.1582 266.432 37.1033L264.855 38.3342C265.813 39.5605 266.954 40.6168 268.274 41.5023L269.388 39.8414ZM266.436 37.1085C265.609 36.0357 264.964 34.8542 264.499 33.5601L262.616 34.2368C263.151 35.724 263.896 37.0893 264.851 38.329L266.436 37.1085ZM264.503 33.5728C264.056 32.2755 263.831 30.9093 263.831 29.4688H261.831C261.831 31.122 262.09 32.7089 262.612 34.2241L264.503 33.5728ZM263.831 29.4688V19.3906H261.831V29.4688H263.831ZM262.831 20.3906H269.557V18.3906H262.831V20.3906ZM268.557 19.3906V29.4688H270.557V19.3906H268.557ZM268.557 29.4688C268.557 30.5184 268.754 31.524 269.15 32.4771L270.997 31.7104C270.705 31.0072 270.557 30.2628 270.557 29.4688H268.557ZM269.159 32.4983C269.566 33.42 270.12 34.2344 270.819 34.9337L272.233 33.5195C271.714 33 271.299 32.3925 270.988 31.6892L269.159 32.4983ZM270.819 34.9337C271.518 35.633 272.333 36.1865 273.255 36.5942L274.064 34.7652C273.36 34.4541 272.753 34.0389 272.233 33.5195L270.819 34.9337ZM273.276 36.6033C274.229 36.9989 275.234 37.1953 276.284 37.1953V35.1953C275.49 35.1953 274.746 35.048 274.042 34.7561L273.276 36.6033ZM276.284 37.1953C277.334 37.1953 278.334 36.9989 279.275 36.6007L278.496 34.7587C277.812 35.048 277.078 35.1953 276.284 35.1953V37.1953ZM279.284 36.597C280.222 36.19 281.047 35.6361 281.749 34.9337L280.335 33.5195C279.818 34.0358 279.206 34.4506 278.488 34.7623L279.284 36.597ZM281.749 34.9337C282.452 34.231 283 33.4116 283.393 32.4834L281.551 31.7041C281.256 32.4009 280.851 33.0033 280.335 33.5195L281.749 34.9337ZM283.389 32.4918C283.804 31.5354 284.011 30.5246 284.011 29.4688H282.011C282.011 30.2566 281.858 30.9959 281.554 31.6957L283.389 32.4918ZM284.011 29.4688V19.3906H282.011V29.4688H284.011ZM283.011 20.3906H289.714V18.3906H283.011V20.3906ZM288.714 19.3906V29.4688H290.714V19.3906H288.714ZM288.714 29.4688C288.714 30.9057 288.482 32.2686 288.022 33.5634L289.906 34.2334C290.446 32.7157 290.714 31.1256 290.714 29.4688H288.714ZM288.019 33.5695C287.57 34.8597 286.934 36.038 286.109 37.1085L287.693 38.329C288.65 37.087 289.389 35.7184 289.908 34.2274L288.019 33.5695ZM286.113 37.1033C285.289 38.1582 284.305 39.0707 283.157 39.8414L284.271 41.5023C285.591 40.6168 286.732 39.5605 287.689 38.3342L286.113 37.1033ZM283.157 39.8414C282.02 40.6037 280.767 41.1593 279.391 41.507L279.881 43.4461C281.473 43.0438 282.938 42.3963 284.271 41.5023L283.157 39.8414ZM278.636 42.4766V53H280.636V42.4766H278.636ZM355.673 53V54H357.46L356.526 52.477L355.673 53ZM347.517 53L346.658 53.512L346.949 54H347.517V53ZM341.048 42.1484L341.907 41.6364L341.05 40.1981L340.19 41.635L341.048 42.1484ZM334.556 53V54H335.123L335.414 53.5134L334.556 53ZM326.447 53L325.595 52.477L324.66 54H326.447V53ZM336.759 36.1953L337.612 36.7183L337.933 36.1953L337.612 35.6723L336.759 36.1953ZM326.447 19.3906V18.3906H324.66L325.595 19.9137L326.447 19.3906ZM334.556 19.3906L335.414 18.8772L335.123 18.3906H334.556V19.3906ZM341.048 30.2422L340.19 30.7556L341.05 32.1926L341.907 30.7542L341.048 30.2422ZM347.517 19.3906V18.3906H346.949L346.658 18.8786L347.517 19.3906ZM355.673 19.3906L356.526 19.9137L357.46 18.3906H355.673V19.3906ZM345.361 36.1953L344.509 35.6723L344.188 36.1953L344.509 36.7183L345.361 36.1953ZM355.673 52H347.517V54H355.673V52ZM348.376 52.488L341.907 41.6364L340.189 42.6605L346.658 53.512L348.376 52.488ZM340.19 41.635L333.698 52.4866L335.414 53.5134L341.907 42.6618L340.19 41.635ZM334.556 52H326.447V54H334.556V52ZM327.299 53.523L337.612 36.7183L335.907 35.6723L325.595 52.477L327.299 53.523ZM337.612 35.6723L327.299 18.8676L325.595 19.9137L335.907 36.7183L337.612 35.6723ZM326.447 20.3906H334.556V18.3906H326.447V20.3906ZM333.698 19.904L340.19 30.7556L341.907 29.7288L335.414 18.8772L333.698 19.904ZM341.907 30.7542L348.376 19.9027L346.658 18.8786L340.189 29.7301L341.907 30.7542ZM347.517 20.3906H355.673V18.3906H347.517V20.3906ZM354.821 18.8676L344.509 35.6723L346.213 36.7183L356.526 19.9137L354.821 18.8676ZM344.509 36.7183L354.821 53.523L356.526 52.477L346.213 35.6723L344.509 36.7183Z" fill="black" fill-opacity="0.3"/>
<path d="M22.8984 36.5703V37.5703H23.8984V36.5703H22.8984ZM22.3594 27.2422L21.4358 27.6256L21.4402 27.6362L21.4448 27.6467L22.3594 27.2422ZM18.7734 23.6562L18.3689 24.5708L18.3794 24.5754L18.3901 24.5798L18.7734 23.6562ZM13.5469 23.6562L13.9365 24.5773L13.945 24.5736L13.5469 23.6562ZM9.96094 27.2422L9.04355 26.8441L9.03997 26.8525L9.96094 27.2422ZM9.44531 36.5703H8.44531V37.5703H9.44531V36.5703ZM29.625 50V51H30.625V50H29.625ZM22.8984 50H21.8984V51H22.8984V50ZM22.8984 43.2734H23.8984V42.2734H22.8984V43.2734ZM9.44531 43.2734V42.2734H8.44531V43.2734H9.44531ZM9.44531 50V51H10.4453V50H9.44531ZM2.74219 50H1.74219V51H2.74219V50ZM3.79688 24.6172L4.71465 25.0143L4.71602 25.0111L3.79688 24.6172ZM6.65625 20.3281L5.94913 19.621L5.9446 19.6256L6.65625 20.3281ZM10.9219 17.4453L10.528 16.5262L10.5248 16.5275L10.9219 17.4453ZM21.3984 17.4453L21.0013 18.3631L21.0045 18.3645L21.3984 17.4453ZM28.5703 24.6172L27.6512 25.0111L27.6525 25.0143L28.5703 24.6172ZM23.8984 36.5703V29.8438H21.8984V36.5703H23.8984ZM23.8984 29.8438C23.8984 28.7879 23.6918 27.7824 23.2739 26.8377L21.4448 27.6467C21.7457 28.327 21.8984 29.0558 21.8984 29.8438H23.8984ZM23.283 26.8588C22.891 25.9146 22.3426 25.0846 21.6368 24.3788L20.2226 25.793C20.7355 26.306 21.1402 26.9135 21.4358 27.6256L23.283 26.8588ZM21.6368 24.3788C20.931 23.673 20.101 23.1246 19.1568 22.7327L18.3901 24.5798C19.1021 24.8754 19.7096 25.2801 20.2226 25.793L21.6368 24.3788ZM19.1779 22.7417C18.2332 22.3239 17.2277 22.1172 16.1719 22.1172V24.1172C16.9598 24.1172 17.6887 24.2699 18.3689 24.5708L19.1779 22.7417ZM16.1719 22.1172C15.116 22.1172 14.1053 22.3238 13.1488 22.7389L13.945 24.5736C14.6447 24.2699 15.384 24.1172 16.1719 24.1172V22.1172ZM13.1572 22.7353C12.229 23.128 11.4096 23.6762 10.707 24.3788L12.1212 25.793C12.6373 25.2769 13.2397 24.872 13.9365 24.5772L13.1572 22.7353ZM10.707 24.3788C10.0045 25.0813 9.45059 25.9062 9.04359 26.8441L10.8783 27.6403C11.19 26.9219 11.6049 26.3094 12.1212 25.793L10.707 24.3788ZM9.03997 26.8525C8.64173 27.7939 8.44531 28.7941 8.44531 29.8438H10.4453C10.4453 29.0496 10.5926 28.3155 10.8819 27.6318L9.03997 26.8525ZM8.44531 29.8438V36.5703H10.4453V29.8438H8.44531ZM9.44531 37.5703H22.8984V35.5703H9.44531V37.5703ZM29.625 49H22.8984V51H29.625V49ZM23.8984 50V43.2734H21.8984V50H23.8984ZM22.8984 42.2734H9.44531V44.2734H22.8984V42.2734ZM8.44531 43.2734V50H10.4453V43.2734H8.44531ZM9.44531 49H2.74219V51H9.44531V49ZM3.74219 50V29.8438H1.74219V50H3.74219ZM3.74219 29.8438C3.74219 28.114 4.06847 26.5077 4.71465 25.0143L2.8791 24.2201C2.11903 25.9767 1.74219 27.8548 1.74219 29.8438H3.74219ZM4.71602 25.0111C5.372 23.4805 6.25633 22.1567 7.3679 21.0307L5.9446 19.6256C4.64992 20.9371 3.628 22.4726 2.87773 24.2233L4.71602 25.0111ZM7.36336 21.0352C8.49053 19.9081 9.80645 19.0175 11.319 18.3631L10.5248 16.5275C8.7873 17.2793 7.25947 18.3107 5.94914 19.621L7.36336 21.0352ZM11.3158 18.3645C12.8268 17.7169 14.4422 17.3906 16.1719 17.3906V15.3906C14.1828 15.3906 12.2982 15.7675 10.528 16.5262L11.3158 18.3645ZM16.1719 17.3906C17.9016 17.3906 19.5079 17.7169 21.0013 18.3631L21.7955 16.5275C20.0389 15.7675 18.1609 15.3906 16.1719 15.3906V17.3906ZM21.0045 18.3645C22.5325 19.0193 23.8548 19.9096 24.9804 21.0352L26.3946 19.621C25.0827 18.3091 23.5457 17.2776 21.7924 16.5262L21.0045 18.3645ZM24.9804 21.0352C26.106 22.1608 26.9963 23.4832 27.6512 25.0111L29.4895 24.2233C28.738 22.47 27.7065 20.9329 26.3946 19.621L24.9804 21.0352ZM27.6525 25.0143C28.2987 26.5077 28.625 28.114 28.625 29.8438H30.625C30.625 27.8548 30.2482 25.9767 29.4881 24.2201L27.6525 25.0143ZM28.625 29.8438V50H30.625V29.8438H28.625ZM94.2722 16.3906H95.2722V15.3906H94.2722V16.3906ZM94.2722 23.1172V24.1172H95.2722V23.1172H94.2722ZM75.7566 27.8047L74.8304 28.182L74.8356 28.1943L75.7566 27.8047ZM76.4597 28.8828L75.7347 29.5716L75.7523 29.5902L75.7709 29.6078L76.4597 28.8828ZM89.4909 30.6406L89.0914 31.5573L89.0984 31.5604L89.1055 31.5634L89.4909 30.6406ZM92.7019 32.7969L91.9887 33.4979L91.9947 33.504L92.0008 33.51L92.7019 32.7969ZM94.8581 36.0078L93.9354 36.3933L93.9384 36.4004L93.9414 36.4074L94.8581 36.0078ZM94.8581 43.8359L93.9414 43.4363L93.9372 43.4463L94.8581 43.8359ZM89.4909 49.2031L89.0956 48.2846L89.0914 48.2864L89.4909 49.2031ZM70.6472 50H69.6472V51H70.6472V50ZM70.6472 43.2734V42.2734H69.6472V43.2734H70.6472ZM87.9441 37.5547L87.2191 38.2434L87.2367 38.262L87.2553 38.2797L87.9441 37.5547ZM71.7253 33.6172L71.0122 34.3182L71.0182 34.3243L71.0243 34.3303L71.7253 33.6172ZM69.5691 30.4062L68.6505 30.8016L68.6524 30.8058L69.5691 30.4062ZM69.7722 26.4688C69.7722 25.2092 70.012 24.0412 70.4858 22.9543L68.6524 22.1551C68.0636 23.5057 67.7722 24.9471 67.7722 26.4688H69.7722ZM70.4858 22.9543C70.9689 21.8459 71.618 20.8888 72.4324 20.0743L71.0182 18.6601C70.0202 19.6581 69.2317 20.826 68.6524 22.1551L70.4858 22.9543ZM72.4324 20.0743C73.264 19.2427 74.2295 18.5865 75.3358 18.1042L74.5367 16.2708C73.2055 16.851 72.0303 17.6479 71.0182 18.6601L72.4324 20.0743ZM75.3358 18.1042C76.4228 17.6304 77.5907 17.3906 78.8503 17.3906V15.3906C77.3286 15.3906 75.8872 15.6821 74.5367 16.2708L75.3358 18.1042ZM78.8503 17.3906H94.2722V15.3906H78.8503V17.3906ZM93.2722 16.3906V23.1172H95.2722V16.3906H93.2722ZM94.2722 22.1172H78.8503V24.1172H94.2722V22.1172ZM78.8503 22.1172C78.2562 22.1172 77.6853 22.2268 77.1482 22.454L77.9275 24.296C78.2028 24.1795 78.5069 24.1172 78.8503 24.1172V22.1172ZM77.1482 22.454C76.6231 22.6762 76.156 22.9911 75.7526 23.3945L77.1668 24.8087C77.3884 24.5871 77.64 24.4176 77.9275 24.296L77.1482 22.454ZM75.7526 23.3945C75.3601 23.787 75.0551 24.2479 74.8356 24.7666L76.6775 25.5459C76.8018 25.2521 76.9656 25.0099 77.1668 24.8087L75.7526 23.3945ZM74.8356 24.7666C74.6083 25.3037 74.4987 25.8746 74.4987 26.4688H76.4987C76.4987 26.1254 76.561 25.8213 76.6775 25.5459L74.8356 24.7666ZM74.4987 26.4688C74.4987 27.063 74.6084 27.6368 74.8305 28.182L76.6827 27.4274C76.561 27.1288 76.4987 26.812 76.4987 26.4688H74.4987ZM74.8356 28.1943C75.0532 28.7086 75.3531 29.1699 75.7347 29.5716L77.1847 28.1941C76.9725 27.9707 76.8037 27.7133 76.6775 27.415L74.8356 28.1943ZM75.7709 29.6078C76.1726 29.9894 76.6339 30.2893 77.1482 30.5069L77.9275 28.665C77.6292 28.5388 77.3718 28.37 77.1484 28.1578L75.7709 29.6078ZM77.1482 30.5069C77.6853 30.7342 78.2562 30.8438 78.8503 30.8438V28.8438C78.5069 28.8438 78.2028 28.7815 77.9275 28.665L77.1482 30.5069ZM78.8503 30.8438H85.5769V28.8438H78.8503V30.8438ZM85.5769 30.8438C86.8364 30.8438 88.0044 31.0835 89.0914 31.5573L89.8905 29.7239C88.5399 29.1352 87.0986 28.8438 85.5769 28.8438V30.8438ZM89.1055 31.5634C90.2213 32.0295 91.1791 32.6743 91.9887 33.4979L93.415 32.0958C92.4121 31.0757 91.2293 30.283 89.8764 29.7179L89.1055 31.5634ZM92.0008 33.51C92.8244 34.3196 93.4693 35.2774 93.9354 36.3933L95.7809 35.6224C95.2157 34.2695 94.4231 33.0866 93.4029 32.0838L92.0008 33.51ZM93.9414 36.4074C94.4152 37.4943 94.655 38.6623 94.655 39.9219H96.655C96.655 38.4002 96.3635 36.9588 95.7748 35.6082L93.9414 36.4074ZM94.655 39.9219C94.655 41.1814 94.4152 42.3494 93.9414 43.4364L95.7748 44.2355C96.3635 42.8849 96.655 41.4436 96.655 39.9219H94.655ZM93.9372 43.4463C93.4709 44.5483 92.8242 45.5104 91.9948 46.3398L93.409 47.754C94.4233 46.7396 95.2141 45.5611 95.7791 44.2256L93.9372 43.4463ZM91.9948 46.3398C91.1824 47.1521 90.2193 47.801 89.0956 48.2846L89.8863 50.1217C91.2313 49.5428 92.4088 48.7541 93.409 47.754L91.9948 46.3398ZM89.0914 48.2864C88.0044 48.7602 86.8364 49 85.5769 49V51C87.0986 51 88.5399 50.7085 89.8905 50.1198L89.0914 48.2864ZM85.5769 49H70.6472V51H85.5769V49ZM71.6472 50V43.2734H69.6472V50H71.6472ZM70.6472 44.2734H85.5769V42.2734H70.6472V44.2734ZM85.5769 44.2734C86.171 44.2734 86.7419 44.1638 87.279 43.9366L86.4997 42.0947C86.2244 42.2112 85.9203 42.2734 85.5769 42.2734V44.2734ZM87.279 43.9366C87.7978 43.7171 88.2587 43.4121 88.6512 43.0196L87.237 41.6054C87.0357 41.8066 86.7935 41.9704 86.4997 42.0947L87.279 43.9366ZM88.6512 43.0196C89.0546 42.6162 89.3694 42.1491 89.5916 41.624L87.7497 40.8447C87.6281 41.1322 87.4586 41.3838 87.237 41.6054L88.6512 43.0196ZM89.5916 41.624C89.8188 41.0869 89.9284 40.516 89.9284 39.9219H87.9284C87.9284 40.2653 87.8662 40.5694 87.7497 40.8447L89.5916 41.624ZM89.9284 39.9219C89.9284 39.3278 89.8188 38.7569 89.5916 38.2197L87.7497 38.999C87.8662 39.2744 87.9284 39.5785 87.9284 39.9219H89.9284ZM89.5916 38.2197C89.3675 37.69 89.0473 37.2235 88.6328 36.8297L87.2553 38.2797C87.4658 38.4797 87.63 38.7163 87.7497 38.999L89.5916 38.2197ZM88.6691 36.8659C88.2753 36.4514 87.8088 36.1313 87.279 35.9072L86.4997 37.7491C86.7825 37.8687 87.0191 38.0329 87.2191 38.2434L88.6691 36.8659ZM87.279 35.9072C86.7419 35.6799 86.171 35.5703 85.5769 35.5703V37.5703C85.9203 37.5703 86.2244 37.6326 86.4997 37.7491L87.279 35.9072ZM85.5769 35.5703H78.8503V37.5703H85.5769V35.5703ZM78.8503 35.5703C77.5907 35.5703 76.4228 35.3305 75.3358 34.8567L74.5367 36.6901C75.8872 37.2788 77.3286 37.5703 78.8503 37.5703V35.5703ZM75.3358 34.8567C74.2259 34.3729 73.2585 33.7221 72.4263 32.9041L71.0243 34.3303C72.0358 35.3247 73.2091 36.1114 74.5367 36.6901L75.3358 34.8567ZM72.4384 32.9161C71.6203 32.084 70.9696 31.1166 70.4858 30.0067L68.6524 30.8058C69.2311 32.1334 70.0178 33.3067 71.0122 34.3182L72.4384 32.9161ZM70.4876 30.0109C70.012 28.9058 69.7722 27.7283 69.7722 26.4688H67.7722C67.7722 27.9905 68.0636 29.438 68.6505 30.8016L70.4876 30.0109ZM149.005 50V51H150.005V50H149.005ZM142.302 50H141.302V51H142.302V50ZM142.302 23.1172H143.302V22.1172H142.302V23.1172ZM132.201 23.1172H131.201V24.1172H132.201V23.1172ZM132.201 16.3906V15.3906H131.201V16.3906H132.201ZM159.083 16.3906H160.083V15.3906H159.083V16.3906ZM159.083 23.1172V24.1172H160.083V23.1172H159.083ZM149.005 23.1172V22.1172H148.005V23.1172H149.005ZM149.005 49H142.302V51H149.005V49ZM143.302 50V23.1172H141.302V50H143.302ZM142.302 22.1172H132.201V24.1172H142.302V22.1172ZM133.201 23.1172V16.3906H131.201V23.1172H133.201ZM132.201 17.3906H159.083V15.3906H132.201V17.3906ZM158.083 16.3906V23.1172H160.083V16.3906H158.083ZM159.083 22.1172H149.005V24.1172H159.083V22.1172ZM148.005 23.1172V50H150.005V23.1172H148.005ZM204.652 23.1172V22.1172H203.652V23.1172H204.652ZM204.652 36.5703H203.652V37.5703H204.652V36.5703ZM213.981 36.0547L214.37 36.9757L214.378 36.9725L214.385 36.9692L213.981 36.0547ZM217.543 32.4688L216.626 32.0706L216.622 32.0791L217.543 32.4688ZM217.543 27.2422L216.62 27.6256L216.624 27.6362L216.629 27.6467L217.543 27.2422ZM213.981 23.6562L213.576 24.5708L213.584 24.5741L213.591 24.5772L213.981 23.6562ZM204.652 50V51H205.652V50H204.652ZM197.926 50H196.926V51H197.926V50ZM197.926 16.3906V15.3906H196.926V16.3906H197.926ZM214.942 16.8828L214.665 17.8439L214.677 17.8473L214.942 16.8828ZM218.129 18.2422L217.613 19.0985L217.621 19.1033L217.629 19.1079L218.129 18.2422ZM220.848 20.3516L220.134 21.0519L220.141 21.0587L220.147 21.0654L220.848 20.3516ZM222.957 23.0703L222.091 23.5708L222.097 23.5809L222.957 23.0703ZM224.317 26.2812L223.352 26.5455L223.356 26.5577L224.317 26.2812ZM224.363 33.2188L223.398 32.9568L223.395 32.9697L224.363 33.2188ZM223.121 36.3359L222.247 35.8503L222.241 35.861L223.121 36.3359ZM218.527 41.2109L217.995 40.3645L217.275 40.8177L217.607 41.6013L218.527 41.2109ZM222.254 50V51H223.764L223.175 49.6096L222.254 50ZM215.106 50L214.188 50.397L214.449 51H215.106V50ZM212.176 43.2266L213.094 42.8296L212.831 42.2225L212.17 42.2266L212.176 43.2266ZM204.652 43.2734L204.646 42.2735L203.652 42.2796V43.2734H204.652ZM203.652 23.1172V36.5703H205.652V23.1172H203.652ZM204.652 37.5703H211.379V35.5703H204.652V37.5703ZM211.379 37.5703C212.429 37.5703 213.429 37.3739 214.37 36.9757L213.591 35.1337C212.907 35.423 212.173 35.5703 211.379 35.5703V37.5703ZM214.385 36.9692C215.307 36.5615 216.121 36.008 216.821 35.3087L215.406 33.8945C214.887 34.4139 214.279 34.8291 213.576 35.1402L214.385 36.9692ZM216.821 35.3087C217.523 34.606 218.071 33.7866 218.464 32.8584L216.622 32.0791C216.327 32.7759 215.922 33.3783 215.406 33.8945L216.821 35.3087ZM218.46 32.8668C218.876 31.9104 219.082 30.8996 219.082 29.8438H217.082C217.082 30.6316 216.929 31.3709 216.626 32.0707L218.46 32.8668ZM219.082 29.8438C219.082 28.7879 218.876 27.7824 218.458 26.8377L216.629 27.6467C216.929 28.327 217.082 29.0558 217.082 29.8438H219.082ZM218.467 26.8588C218.075 25.9146 217.526 25.0846 216.821 24.3788L215.406 25.793C215.919 26.306 216.324 26.9135 216.62 27.6256L218.467 26.8588ZM216.821 24.3788C216.118 23.6762 215.298 23.128 214.37 22.7353L213.591 24.5772C214.288 24.872 214.89 25.2769 215.406 25.793L216.821 24.3788ZM214.385 22.7417C213.44 22.3239 212.435 22.1172 211.379 22.1172V24.1172C212.167 24.1172 212.896 24.2699 213.576 24.5708L214.385 22.7417ZM211.379 22.1172H204.652V24.1172H211.379V22.1172ZM204.652 49H197.926V51H204.652V49ZM198.926 50V16.3906H196.926V50H198.926ZM197.926 17.3906H211.379V15.3906H197.926V17.3906ZM211.379 17.3906C212.524 17.3906 213.618 17.5426 214.665 17.8438L215.218 15.9218C213.984 15.5668 212.703 15.3906 211.379 15.3906V17.3906ZM214.677 17.8473C215.732 18.1362 216.709 18.5536 217.613 19.0985L218.646 17.3859C217.58 16.7433 216.433 16.2544 215.206 15.9184L214.677 17.8473ZM217.629 19.1079C218.55 19.6406 219.385 20.288 220.134 21.0519L221.562 19.6512C220.686 18.7589 219.708 18 218.63 17.3765L217.629 19.1079ZM220.147 21.0654C220.911 21.8149 221.559 22.6494 222.091 23.5708L223.823 22.5698C223.199 21.4912 222.441 20.5133 221.548 19.6378L220.147 21.0654ZM222.097 23.5809C222.645 24.5025 223.063 25.4898 223.352 26.5455L225.281 26.017C224.945 24.7914 224.457 23.6381 223.817 22.5598L222.097 23.5809ZM223.356 26.5577C223.657 27.6049 223.809 28.6991 223.809 29.8438H225.809C225.809 28.5196 225.633 27.2388 225.278 26.0048L223.356 26.5577ZM223.809 29.8438C223.809 30.9133 223.672 31.9502 223.398 32.9568L225.329 33.4807C225.649 32.2998 225.809 31.0867 225.809 29.8438H223.809ZM223.395 32.9697C223.135 33.9811 222.752 34.9407 222.247 35.8503L223.995 36.8216C224.584 35.7625 225.03 34.6439 225.332 33.4678L223.395 32.9697ZM222.241 35.861C221.752 36.7672 221.148 37.6027 220.425 38.3685L221.88 39.7409C222.72 38.8505 223.428 37.8734 224.001 36.8109L222.241 35.861ZM220.425 38.3685C219.702 39.1348 218.893 39.7998 217.995 40.3645L219.06 42.0574C220.1 41.4033 221.04 40.6308 221.88 39.7409L220.425 38.3685ZM217.607 41.6013L221.333 50.3904L223.175 49.6096L219.448 40.8206L217.607 41.6013ZM222.254 49H215.106V51H222.254V49ZM216.023 49.603L213.094 42.8296L211.258 43.6235L214.188 50.397L216.023 49.603ZM212.17 42.2266L204.646 42.2735L204.659 44.2734L212.182 44.2265L212.17 42.2266ZM203.652 43.2734V50H205.652V43.2734H203.652ZM279.636 50V51H280.636V50H279.636ZM272.932 50H271.932V51H272.932V50ZM272.932 39.4766H273.932V38.6978L273.177 38.507L272.932 39.4766ZM268.831 37.6719L268.274 38.5023L268.279 38.5055L268.831 37.6719ZM265.643 34.7188L264.851 35.329L264.855 35.3342L265.643 34.7188ZM263.557 30.8984L262.612 31.2241L262.616 31.2368L263.557 30.8984ZM262.831 16.3906V15.3906H261.831V16.3906H262.831ZM269.557 16.3906H270.557V15.3906H269.557V16.3906ZM270.073 29.0938L269.15 29.4771L269.154 29.4877L269.159 29.4983L270.073 29.0938ZM273.659 32.6797L273.255 33.5942L273.265 33.5989L273.276 33.6033L273.659 32.6797ZM278.886 32.6797L279.275 33.6007L279.284 33.597L278.886 32.6797ZM282.472 29.0938L281.554 28.6956L281.551 28.7041L282.472 29.0938ZM283.011 16.3906V15.3906H282.011V16.3906H283.011ZM289.714 16.3906H290.714V15.3906H289.714V16.3906ZM288.964 30.8984L288.022 30.5634L288.019 30.5695L288.964 30.8984ZM286.901 34.7188L287.689 35.3342L287.693 35.329L286.901 34.7188ZM279.636 39.4766L279.391 38.507L278.636 38.6978V39.4766H279.636ZM279.636 49H272.932V51H279.636V49ZM273.932 50V39.4766H271.932V50H273.932ZM273.177 38.507C271.8 38.1591 270.537 37.6027 269.383 36.8382L268.279 38.5055C269.625 39.3973 271.096 40.0441 272.688 40.4461L273.177 38.507ZM269.388 36.8414C268.239 36.0707 267.255 35.1582 266.432 34.1033L264.855 35.3342C265.813 36.5605 266.954 37.6168 268.274 38.5023L269.388 36.8414ZM266.436 34.1085C265.609 33.0357 264.964 31.8542 264.499 30.5601L262.616 31.2368C263.151 32.724 263.896 34.0893 264.851 35.329L266.436 34.1085ZM264.503 30.5728C264.056 29.2755 263.831 27.9093 263.831 26.4688H261.831C261.831 28.122 262.09 29.7089 262.612 31.2241L264.503 30.5728ZM263.831 26.4688V16.3906H261.831V26.4688H263.831ZM262.831 17.3906H269.557V15.3906H262.831V17.3906ZM268.557 16.3906V26.4688H270.557V16.3906H268.557ZM268.557 26.4688C268.557 27.5184 268.754 28.524 269.15 29.4771L270.997 28.7104C270.705 28.0072 270.557 27.2628 270.557 26.4688H268.557ZM269.159 29.4983C269.566 30.42 270.12 31.2344 270.819 31.9337L272.233 30.5195C271.714 30 271.299 29.3925 270.988 28.6892L269.159 29.4983ZM270.819 31.9337C271.518 32.633 272.333 33.1865 273.255 33.5942L274.064 31.7652C273.36 31.4541 272.753 31.0389 272.233 30.5195L270.819 31.9337ZM273.276 33.6033C274.229 33.9989 275.234 34.1953 276.284 34.1953V32.1953C275.49 32.1953 274.746 32.048 274.042 31.7561L273.276 33.6033ZM276.284 34.1953C277.334 34.1953 278.334 33.9989 279.275 33.6007L278.496 31.7587C277.812 32.048 277.078 32.1953 276.284 32.1953V34.1953ZM279.284 33.597C280.222 33.19 281.047 32.6361 281.749 31.9337L280.335 30.5195C279.818 31.0358 279.206 31.4506 278.488 31.7623L279.284 33.597ZM281.749 31.9337C282.452 31.231 283 30.4116 283.393 29.4834L281.551 28.7041C281.256 29.4009 280.851 30.0033 280.335 30.5195L281.749 31.9337ZM283.389 29.4918C283.804 28.5354 284.011 27.5246 284.011 26.4688H282.011C282.011 27.2566 281.858 27.9959 281.554 28.6957L283.389 29.4918ZM284.011 26.4688V16.3906H282.011V26.4688H284.011ZM283.011 17.3906H289.714V15.3906H283.011V17.3906ZM288.714 16.3906V26.4688H290.714V16.3906H288.714ZM288.714 26.4688C288.714 27.9057 288.482 29.2686 288.022 30.5634L289.906 31.2334C290.446 29.7157 290.714 28.1256 290.714 26.4688H288.714ZM288.019 30.5695C287.57 31.8597 286.934 33.038 286.109 34.1085L287.693 35.329C288.65 34.087 289.389 32.7184 289.908 31.2274L288.019 30.5695ZM286.113 34.1033C285.289 35.1582 284.305 36.0707 283.157 36.8414L284.271 38.5023C285.591 37.6168 286.732 36.5605 287.689 35.3342L286.113 34.1033ZM283.157 36.8414C282.02 37.6037 280.767 38.1593 279.391 38.507L279.881 40.4461C281.473 40.0438 282.938 39.3963 284.271 38.5023L283.157 36.8414ZM278.636 39.4766V50H280.636V39.4766H278.636ZM355.673 50V51H357.46L356.526 49.477L355.673 50ZM347.517 50L346.658 50.512L346.949 51H347.517V50ZM341.048 39.1484L341.907 38.6364L341.05 37.1981L340.19 38.635L341.048 39.1484ZM334.556 50V51H335.123L335.414 50.5134L334.556 50ZM326.447 50L325.595 49.477L324.66 51H326.447V50ZM336.759 33.1953L337.612 33.7183L337.933 33.1953L337.612 32.6723L336.759 33.1953ZM326.447 16.3906V15.3906H324.66L325.595 16.9137L326.447 16.3906ZM334.556 16.3906L335.414 15.8772L335.123 15.3906H334.556V16.3906ZM341.048 27.2422L340.19 27.7556L341.05 29.1926L341.907 27.7542L341.048 27.2422ZM347.517 16.3906V15.3906H346.949L346.658 15.8786L347.517 16.3906ZM355.673 16.3906L356.526 16.9137L357.46 15.3906H355.673V16.3906ZM345.361 33.1953L344.509 32.6723L344.188 33.1953L344.509 33.7183L345.361 33.1953ZM355.673 49H347.517V51H355.673V49ZM348.376 49.488L341.907 38.6364L340.189 39.6605L346.658 50.512L348.376 49.488ZM340.19 38.635L333.698 49.4866L335.414 50.5134L341.907 39.6618L340.19 38.635ZM334.556 49H326.447V51H334.556V49ZM327.299 50.523L337.612 33.7183L335.907 32.6723L325.595 49.477L327.299 50.523ZM337.612 32.6723L327.299 15.8676L325.595 16.9137L335.907 33.7183L337.612 32.6723ZM326.447 17.3906H334.556V15.3906H326.447V17.3906ZM333.698 16.904L340.19 27.7556L341.907 26.7288L335.414 15.8772L333.698 16.904ZM341.907 27.7542L348.376 16.9027L346.658 15.8786L340.189 26.7301L341.907 27.7542ZM347.517 17.3906H355.673V15.3906H347.517V17.3906ZM354.821 15.8676L344.509 32.6723L346.213 33.7183L356.526 16.9137L354.821 15.8676ZM344.509 33.7183L354.821 50.523L356.526 49.477L346.213 32.6723L344.509 33.7183Z" fill="black" fill-opacity="0.8"/>
<path d="M22.8984 33.5703V26.8438C22.8984 25.9219 22.7188 25.0547 22.3594 24.2422C22.0156 23.4141 21.5391 22.6953 20.9297 22.0859C20.3203 21.4766 19.6016 21 18.7734 20.6562C17.9609 20.2969 17.0938 20.1172 16.1719 20.1172C15.25 20.1172 14.375 20.2969 13.5469 20.6562C12.7344 21 12.0234 21.4766 11.4141 22.0859C10.8047 22.6953 10.3203 23.4141 9.96094 24.2422C9.61719 25.0547 9.44531 25.9219 9.44531 26.8438V33.5703H22.8984ZM29.625 47H22.8984V40.2734H9.44531V47H2.74219V26.8438C2.74219 24.9844 3.09375 23.2422 3.79688 21.6172C4.5 19.9766 5.45312 18.5469 6.65625 17.3281C7.875 16.1094 9.29688 15.1484 10.9219 14.4453C12.5625 13.7422 14.3125 13.3906 16.1719 13.3906C18.0312 13.3906 19.7734 13.7422 21.3984 14.4453C23.0391 15.1484 24.4688 16.1094 25.6875 17.3281C26.9062 18.5469 27.8672 19.9766 28.5703 21.6172C29.2734 23.2422 29.625 24.9844 29.625 26.8438V47ZM68.7722 23.4688C68.7722 22.0781 69.0378 20.7734 69.5691 19.5547C70.1003 18.3359 70.8191 17.2734 71.7253 16.3672C72.6472 15.4453 73.7175 14.7188 74.9362 14.1875C76.155 13.6562 77.4597 13.3906 78.8503 13.3906H94.2722V20.1172H78.8503C78.3816 20.1172 77.9441 20.2031 77.5378 20.375C77.1316 20.5469 76.7722 20.7891 76.4597 21.1016C76.1628 21.3984 75.9284 21.75 75.7566 22.1562C75.5847 22.5625 75.4987 23 75.4987 23.4688C75.4987 23.9375 75.5847 24.3828 75.7566 24.8047C75.9284 25.2109 76.1628 25.5703 76.4597 25.8828C76.7722 26.1797 77.1316 26.4141 77.5378 26.5859C77.9441 26.7578 78.3816 26.8438 78.8503 26.8438H85.5769C86.9675 26.8438 88.2722 27.1094 89.4909 27.6406C90.7253 28.1562 91.7956 28.875 92.7019 29.7969C93.6237 30.7031 94.3425 31.7734 94.8581 33.0078C95.3894 34.2266 95.655 35.5312 95.655 36.9219C95.655 38.3125 95.3894 39.6172 94.8581 40.8359C94.3425 42.0547 93.6237 43.125 92.7019 44.0469C91.7956 44.9531 90.7253 45.6719 89.4909 46.2031C88.2722 46.7344 86.9675 47 85.5769 47H70.6472V40.2734H85.5769C86.0456 40.2734 86.4831 40.1875 86.8894 40.0156C87.2956 39.8438 87.6472 39.6094 87.9441 39.3125C88.2566 39 88.4987 38.6406 88.6706 38.2344C88.8425 37.8281 88.9284 37.3906 88.9284 36.9219C88.9284 36.4531 88.8425 36.0156 88.6706 35.6094C88.4987 35.2031 88.2566 34.8516 87.9441 34.5547C87.6472 34.2422 87.2956 34 86.8894 33.8281C86.4831 33.6562 86.0456 33.5703 85.5769 33.5703H78.8503C77.4597 33.5703 76.155 33.3047 74.9362 32.7734C73.7175 32.2422 72.6472 31.5234 71.7253 30.6172C70.8191 29.6953 70.1003 28.625 69.5691 27.4062C69.0378 26.1719 68.7722 24.8594 68.7722 23.4688ZM149.005 47H142.302V20.1172H132.201V13.3906H159.083V20.1172H149.005V47ZM204.652 20.1172V33.5703H211.379C212.301 33.5703 213.168 33.3984 213.981 33.0547C214.793 32.6953 215.504 32.2109 216.113 31.6016C216.723 30.9922 217.199 30.2812 217.543 29.4688C217.902 28.6406 218.082 27.7656 218.082 26.8438C218.082 25.9219 217.902 25.0547 217.543 24.2422C217.199 23.4141 216.723 22.6953 216.113 22.0859C215.504 21.4766 214.793 21 213.981 20.6562C213.168 20.2969 212.301 20.1172 211.379 20.1172H204.652ZM204.652 47H197.926V13.3906H211.379C212.613 13.3906 213.801 13.5547 214.942 13.8828C216.082 14.1953 217.145 14.6484 218.129 15.2422C219.129 15.8203 220.035 16.5234 220.848 17.3516C221.676 18.1641 222.379 19.0703 222.957 20.0703C223.551 21.0703 224.004 22.1406 224.317 23.2812C224.645 24.4219 224.809 25.6094 224.809 26.8438C224.809 28 224.66 29.125 224.363 30.2188C224.082 31.3125 223.668 32.3516 223.121 33.3359C222.59 34.3203 221.934 35.2266 221.152 36.0547C220.371 36.8828 219.496 37.6016 218.527 38.2109L222.254 47H215.106L212.176 40.2266L204.652 40.2734V47ZM279.636 47H272.932V36.4766C271.448 36.1016 270.081 35.5 268.831 34.6719C267.597 33.8438 266.534 32.8594 265.643 31.7188C264.753 30.5625 264.057 29.2891 263.557 27.8984C263.073 26.4922 262.831 25.0156 262.831 23.4688V13.3906H269.557V23.4688C269.557 24.3906 269.729 25.2656 270.073 26.0938C270.432 26.9062 270.917 27.6172 271.526 28.2266C272.136 28.8359 272.847 29.3203 273.659 29.6797C274.487 30.0234 275.362 30.1953 276.284 30.1953C277.206 30.1953 278.073 30.0234 278.886 29.6797C279.714 29.3203 280.432 28.8359 281.042 28.2266C281.651 27.6172 282.128 26.9062 282.472 26.0938C282.831 25.2656 283.011 24.3906 283.011 23.4688V13.3906H289.714V23.4688C289.714 25.0156 289.464 26.4922 288.964 27.8984C288.479 29.2891 287.792 30.5625 286.901 31.7188C286.011 32.8594 284.948 33.8438 283.714 34.6719C282.479 35.5 281.12 36.1016 279.636 36.4766V47ZM355.673 47H347.517L341.048 36.1484L334.556 47H326.447L336.759 30.1953L326.447 13.3906H334.556L341.048 24.2422L347.517 13.3906H355.673L345.361 30.1953L355.673 47Z" fill="white"/>
<path d="M22.8984 33.5703V34.5703H23.8984V33.5703H22.8984ZM22.3594 24.2422L21.4358 24.6256L21.4402 24.6362L21.4448 24.6467L22.3594 24.2422ZM18.7734 20.6562L18.3689 21.5708L18.3794 21.5754L18.3901 21.5798L18.7734 20.6562ZM13.5469 20.6562L13.9365 21.5773L13.945 21.5736L13.5469 20.6562ZM9.96094 24.2422L9.04355 23.8441L9.03997 23.8525L9.96094 24.2422ZM9.44531 33.5703H8.44531V34.5703H9.44531V33.5703ZM29.625 47V48H30.625V47H29.625ZM22.8984 47H21.8984V48H22.8984V47ZM22.8984 40.2734H23.8984V39.2734H22.8984V40.2734ZM9.44531 40.2734V39.2734H8.44531V40.2734H9.44531ZM9.44531 47V48H10.4453V47H9.44531ZM2.74219 47H1.74219V48H2.74219V47ZM3.79688 21.6172L4.71465 22.0143L4.71602 22.0111L3.79688 21.6172ZM6.65625 17.3281L5.94913 16.621L5.9446 16.6256L6.65625 17.3281ZM10.9219 14.4453L10.528 13.5262L10.5248 13.5275L10.9219 14.4453ZM21.3984 14.4453L21.0013 15.3631L21.0045 15.3645L21.3984 14.4453ZM28.5703 21.6172L27.6512 22.0111L27.6525 22.0143L28.5703 21.6172ZM23.8984 33.5703V26.8438H21.8984V33.5703H23.8984ZM23.8984 26.8438C23.8984 25.7879 23.6918 24.7824 23.2739 23.8377L21.4448 24.6467C21.7457 25.327 21.8984 26.0558 21.8984 26.8438H23.8984ZM23.283 23.8588C22.891 22.9146 22.3426 22.0846 21.6368 21.3788L20.2226 22.793C20.7355 23.306 21.1402 23.9135 21.4358 24.6256L23.283 23.8588ZM21.6368 21.3788C20.931 20.673 20.101 20.1246 19.1568 19.7327L18.3901 21.5798C19.1021 21.8754 19.7096 22.2801 20.2226 22.793L21.6368 21.3788ZM19.1779 19.7417C18.2332 19.3239 17.2277 19.1172 16.1719 19.1172V21.1172C16.9598 21.1172 17.6887 21.2699 18.3689 21.5708L19.1779 19.7417ZM16.1719 19.1172C15.116 19.1172 14.1053 19.3238 13.1488 19.7389L13.945 21.5736C14.6447 21.2699 15.384 21.1172 16.1719 21.1172V19.1172ZM13.1572 19.7353C12.229 20.128 11.4096 20.6762 10.707 21.3788L12.1212 22.793C12.6373 22.2769 13.2397 21.872 13.9365 21.5772L13.1572 19.7353ZM10.707 21.3788C10.0045 22.0813 9.45059 22.9062 9.04359 23.8441L10.8783 24.6403C11.19 23.9219 11.6049 23.3094 12.1212 22.793L10.707 21.3788ZM9.03997 23.8525C8.64173 24.7939 8.44531 25.7941 8.44531 26.8438H10.4453C10.4453 26.0496 10.5926 25.3155 10.8819 24.6318L9.03997 23.8525ZM8.44531 26.8438V33.5703H10.4453V26.8438H8.44531ZM9.44531 34.5703H22.8984V32.5703H9.44531V34.5703ZM29.625 46H22.8984V48H29.625V46ZM23.8984 47V40.2734H21.8984V47H23.8984ZM22.8984 39.2734H9.44531V41.2734H22.8984V39.2734ZM8.44531 40.2734V47H10.4453V40.2734H8.44531ZM9.44531 46H2.74219V48H9.44531V46ZM3.74219 47V26.8438H1.74219V47H3.74219ZM3.74219 26.8438C3.74219 25.114 4.06847 23.5077 4.71465 22.0143L2.8791 21.2201C2.11903 22.9767 1.74219 24.8548 1.74219 26.8438H3.74219ZM4.71602 22.0111C5.372 20.4805 6.25633 19.1567 7.3679 18.0307L5.9446 16.6256C4.64992 17.9371 3.628 19.4726 2.87773 21.2233L4.71602 22.0111ZM7.36336 18.0352C8.49053 16.9081 9.80645 16.0175 11.319 15.3631L10.5248 13.5275C8.7873 14.2793 7.25947 15.3107 5.94914 16.621L7.36336 18.0352ZM11.3158 15.3645C12.8268 14.7169 14.4422 14.3906 16.1719 14.3906V12.3906C14.1828 12.3906 12.2982 12.7675 10.528 13.5262L11.3158 15.3645ZM16.1719 14.3906C17.9016 14.3906 19.5079 14.7169 21.0013 15.3631L21.7955 13.5275C20.0389 12.7675 18.1609 12.3906 16.1719 12.3906V14.3906ZM21.0045 15.3645C22.5325 16.0193 23.8548 16.9096 24.9804 18.0352L26.3946 16.621C25.0827 15.3091 23.5457 14.2776 21.7924 13.5262L21.0045 15.3645ZM24.9804 18.0352C26.106 19.1608 26.9963 20.4832 27.6512 22.0111L29.4895 21.2233C28.738 19.47 27.7065 17.9329 26.3946 16.621L24.9804 18.0352ZM27.6525 22.0143C28.2987 23.5077 28.625 25.114 28.625 26.8438H30.625C30.625 24.8548 30.2482 22.9767 29.4881 21.2201L27.6525 22.0143ZM28.625 26.8438V47H30.625V26.8438H28.625ZM94.2722 13.3906H95.2722V12.3906H94.2722V13.3906ZM94.2722 20.1172V21.1172H95.2722V20.1172H94.2722ZM75.7566 24.8047L74.8304 25.182L74.8356 25.1943L75.7566 24.8047ZM76.4597 25.8828L75.7347 26.5716L75.7523 26.5902L75.7709 26.6078L76.4597 25.8828ZM89.4909 27.6406L89.0914 28.5573L89.0984 28.5604L89.1055 28.5634L89.4909 27.6406ZM92.7019 29.7969L91.9887 30.4979L91.9947 30.504L92.0008 30.51L92.7019 29.7969ZM94.8581 33.0078L93.9354 33.3933L93.9384 33.4004L93.9414 33.4074L94.8581 33.0078ZM94.8581 40.8359L93.9414 40.4363L93.9372 40.4463L94.8581 40.8359ZM89.4909 46.2031L89.0956 45.2846L89.0914 45.2864L89.4909 46.2031ZM70.6472 47H69.6472V48H70.6472V47ZM70.6472 40.2734V39.2734H69.6472V40.2734H70.6472ZM87.9441 34.5547L87.2191 35.2434L87.2367 35.262L87.2553 35.2797L87.9441 34.5547ZM71.7253 30.6172L71.0122 31.3182L71.0182 31.3243L71.0243 31.3303L71.7253 30.6172ZM69.5691 27.4062L68.6505 27.8016L68.6524 27.8058L69.5691 27.4062ZM69.7722 23.4688C69.7722 22.2092 70.012 21.0412 70.4858 19.9543L68.6524 19.1551C68.0636 20.5057 67.7722 21.9471 67.7722 23.4688H69.7722ZM70.4858 19.9543C70.9689 18.8459 71.618 17.8888 72.4324 17.0743L71.0182 15.6601C70.0202 16.6581 69.2317 17.826 68.6524 19.1551L70.4858 19.9543ZM72.4324 17.0743C73.264 16.2427 74.2295 15.5865 75.3358 15.1042L74.5367 13.2708C73.2055 13.851 72.0303 14.6479 71.0182 15.6601L72.4324 17.0743ZM75.3358 15.1042C76.4228 14.6304 77.5907 14.3906 78.8503 14.3906V12.3906C77.3286 12.3906 75.8872 12.6821 74.5367 13.2708L75.3358 15.1042ZM78.8503 14.3906H94.2722V12.3906H78.8503V14.3906ZM93.2722 13.3906V20.1172H95.2722V13.3906H93.2722ZM94.2722 19.1172H78.8503V21.1172H94.2722V19.1172ZM78.8503 19.1172C78.2562 19.1172 77.6853 19.2268 77.1482 19.454L77.9275 21.296C78.2028 21.1795 78.5069 21.1172 78.8503 21.1172V19.1172ZM77.1482 19.454C76.6231 19.6762 76.156 19.9911 75.7526 20.3945L77.1668 21.8087C77.3884 21.5871 77.64 21.4176 77.9275 21.296L77.1482 19.454ZM75.7526 20.3945C75.3601 20.787 75.0551 21.2479 74.8356 21.7666L76.6775 22.5459C76.8018 22.2521 76.9656 22.0099 77.1668 21.8087L75.7526 20.3945ZM74.8356 21.7666C74.6083 22.3037 74.4987 22.8746 74.4987 23.4688H76.4987C76.4987 23.1254 76.561 22.8213 76.6775 22.5459L74.8356 21.7666ZM74.4987 23.4688C74.4987 24.063 74.6084 24.6368 74.8305 25.182L76.6827 24.4274C76.561 24.1288 76.4987 23.812 76.4987 23.4688H74.4987ZM74.8356 25.1943C75.0532 25.7086 75.3531 26.1699 75.7347 26.5716L77.1847 25.1941C76.9725 24.9707 76.8037 24.7133 76.6775 24.415L74.8356 25.1943ZM75.7709 26.6078C76.1726 26.9894 76.6339 27.2893 77.1482 27.5069L77.9275 25.665C77.6292 25.5388 77.3718 25.37 77.1484 25.1578L75.7709 26.6078ZM77.1482 27.5069C77.6853 27.7342 78.2562 27.8438 78.8503 27.8438V25.8438C78.5069 25.8438 78.2028 25.7815 77.9275 25.665L77.1482 27.5069ZM78.8503 27.8438H85.5769V25.8438H78.8503V27.8438ZM85.5769 27.8438C86.8364 27.8438 88.0044 28.0835 89.0914 28.5573L89.8905 26.7239C88.5399 26.1352 87.0986 25.8438 85.5769 25.8438V27.8438ZM89.1055 28.5634C90.2213 29.0295 91.1791 29.6743 91.9887 30.4979L93.415 29.0958C92.4121 28.0757 91.2293 27.283 89.8764 26.7179L89.1055 28.5634ZM92.0008 30.51C92.8244 31.3196 93.4693 32.2774 93.9354 33.3933L95.7809 32.6224C95.2157 31.2695 94.4231 30.0866 93.4029 29.0838L92.0008 30.51ZM93.9414 33.4074C94.4152 34.4943 94.655 35.6623 94.655 36.9219H96.655C96.655 35.4002 96.3635 33.9588 95.7748 32.6082L93.9414 33.4074ZM94.655 36.9219C94.655 38.1814 94.4152 39.3494 93.9414 40.4364L95.7748 41.2355C96.3635 39.8849 96.655 38.4436 96.655 36.9219H94.655ZM93.9372 40.4463C93.4709 41.5483 92.8242 42.5104 91.9948 43.3398L93.409 44.754C94.4233 43.7396 95.2141 42.5611 95.7791 41.2256L93.9372 40.4463ZM91.9948 43.3398C91.1824 44.1521 90.2193 44.801 89.0956 45.2846L89.8863 47.1217C91.2313 46.5428 92.4088 45.7541 93.409 44.754L91.9948 43.3398ZM89.0914 45.2864C88.0044 45.7602 86.8364 46 85.5769 46V48C87.0986 48 88.5399 47.7085 89.8905 47.1198L89.0914 45.2864ZM85.5769 46H70.6472V48H85.5769V46ZM71.6472 47V40.2734H69.6472V47H71.6472ZM70.6472 41.2734H85.5769V39.2734H70.6472V41.2734ZM85.5769 41.2734C86.171 41.2734 86.7419 41.1638 87.279 40.9366L86.4997 39.0947C86.2244 39.2112 85.9203 39.2734 85.5769 39.2734V41.2734ZM87.279 40.9366C87.7978 40.7171 88.2587 40.4121 88.6512 40.0196L87.237 38.6054C87.0357 38.8066 86.7935 38.9704 86.4997 39.0947L87.279 40.9366ZM88.6512 40.0196C89.0546 39.6162 89.3694 39.1491 89.5916 38.624L87.7497 37.8447C87.6281 38.1322 87.4586 38.3838 87.237 38.6054L88.6512 40.0196ZM89.5916 38.624C89.8188 38.0869 89.9284 37.516 89.9284 36.9219H87.9284C87.9284 37.2653 87.8662 37.5694 87.7497 37.8447L89.5916 38.624ZM89.9284 36.9219C89.9284 36.3278 89.8188 35.7569 89.5916 35.2197L87.7497 35.999C87.8662 36.2744 87.9284 36.5785 87.9284 36.9219H89.9284ZM89.5916 35.2197C89.3675 34.69 89.0473 34.2235 88.6328 33.8297L87.2553 35.2797C87.4658 35.4797 87.63 35.7163 87.7497 35.999L89.5916 35.2197ZM88.6691 33.8659C88.2753 33.4514 87.8088 33.1313 87.279 32.9072L86.4997 34.7491C86.7825 34.8687 87.0191 35.0329 87.2191 35.2434L88.6691 33.8659ZM87.279 32.9072C86.7419 32.6799 86.171 32.5703 85.5769 32.5703V34.5703C85.9203 34.5703 86.2244 34.6326 86.4997 34.7491L87.279 32.9072ZM85.5769 32.5703H78.8503V34.5703H85.5769V32.5703ZM78.8503 32.5703C77.5907 32.5703 76.4228 32.3305 75.3358 31.8567L74.5367 33.6901C75.8872 34.2788 77.3286 34.5703 78.8503 34.5703V32.5703ZM75.3358 31.8567C74.2259 31.3729 73.2585 30.7221 72.4263 29.9041L71.0243 31.3303C72.0358 32.3247 73.2091 33.1114 74.5367 33.6901L75.3358 31.8567ZM72.4384 29.9161C71.6203 29.084 70.9696 28.1166 70.4858 27.0067L68.6524 27.8058C69.2311 29.1334 70.0178 30.3067 71.0122 31.3182L72.4384 29.9161ZM70.4876 27.0109C70.012 25.9058 69.7722 24.7283 69.7722 23.4688H67.7722C67.7722 24.9905 68.0636 26.438 68.6505 27.8016L70.4876 27.0109ZM149.005 47V48H150.005V47H149.005ZM142.302 47H141.302V48H142.302V47ZM142.302 20.1172H143.302V19.1172H142.302V20.1172ZM132.201 20.1172H131.201V21.1172H132.201V20.1172ZM132.201 13.3906V12.3906H131.201V13.3906H132.201ZM159.083 13.3906H160.083V12.3906H159.083V13.3906ZM159.083 20.1172V21.1172H160.083V20.1172H159.083ZM149.005 20.1172V19.1172H148.005V20.1172H149.005ZM149.005 46H142.302V48H149.005V46ZM143.302 47V20.1172H141.302V47H143.302ZM142.302 19.1172H132.201V21.1172H142.302V19.1172ZM133.201 20.1172V13.3906H131.201V20.1172H133.201ZM132.201 14.3906H159.083V12.3906H132.201V14.3906ZM158.083 13.3906V20.1172H160.083V13.3906H158.083ZM159.083 19.1172H149.005V21.1172H159.083V19.1172ZM148.005 20.1172V47H150.005V20.1172H148.005ZM204.652 20.1172V19.1172H203.652V20.1172H204.652ZM204.652 33.5703H203.652V34.5703H204.652V33.5703ZM213.981 33.0547L214.37 33.9757L214.378 33.9725L214.385 33.9692L213.981 33.0547ZM217.543 29.4688L216.626 29.0706L216.622 29.0791L217.543 29.4688ZM217.543 24.2422L216.62 24.6256L216.624 24.6362L216.629 24.6467L217.543 24.2422ZM213.981 20.6562L213.576 21.5708L213.584 21.5741L213.591 21.5772L213.981 20.6562ZM204.652 47V48H205.652V47H204.652ZM197.926 47H196.926V48H197.926V47ZM197.926 13.3906V12.3906H196.926V13.3906H197.926ZM214.942 13.8828L214.665 14.8439L214.677 14.8473L214.942 13.8828ZM218.129 15.2422L217.613 16.0985L217.621 16.1033L217.629 16.1079L218.129 15.2422ZM220.848 17.3516L220.134 18.0519L220.141 18.0587L220.147 18.0654L220.848 17.3516ZM222.957 20.0703L222.091 20.5708L222.097 20.5809L222.957 20.0703ZM224.317 23.2812L223.352 23.5455L223.356 23.5577L224.317 23.2812ZM224.363 30.2188L223.398 29.9568L223.395 29.9697L224.363 30.2188ZM223.121 33.3359L222.247 32.8503L222.241 32.861L223.121 33.3359ZM218.527 38.2109L217.995 37.3645L217.275 37.8177L217.607 38.6013L218.527 38.2109ZM222.254 47V48H223.764L223.175 46.6096L222.254 47ZM215.106 47L214.188 47.397L214.449 48H215.106V47ZM212.176 40.2266L213.094 39.8296L212.831 39.2225L212.17 39.2266L212.176 40.2266ZM204.652 40.2734L204.646 39.2735L203.652 39.2796V40.2734H204.652ZM203.652 20.1172V33.5703H205.652V20.1172H203.652ZM204.652 34.5703H211.379V32.5703H204.652V34.5703ZM211.379 34.5703C212.429 34.5703 213.429 34.3739 214.37 33.9757L213.591 32.1337C212.907 32.423 212.173 32.5703 211.379 32.5703V34.5703ZM214.385 33.9692C215.307 33.5615 216.121 33.008 216.821 32.3087L215.406 30.8945C214.887 31.4139 214.279 31.8291 213.576 32.1402L214.385 33.9692ZM216.821 32.3087C217.523 31.606 218.071 30.7866 218.464 29.8584L216.622 29.0791C216.327 29.7759 215.922 30.3783 215.406 30.8945L216.821 32.3087ZM218.46 29.8668C218.876 28.9104 219.082 27.8996 219.082 26.8438H217.082C217.082 27.6316 216.929 28.3709 216.626 29.0707L218.46 29.8668ZM219.082 26.8438C219.082 25.7879 218.876 24.7824 218.458 23.8377L216.629 24.6467C216.929 25.327 217.082 26.0558 217.082 26.8438H219.082ZM218.467 23.8588C218.075 22.9146 217.526 22.0846 216.821 21.3788L215.406 22.793C215.919 23.306 216.324 23.9135 216.62 24.6256L218.467 23.8588ZM216.821 21.3788C216.118 20.6762 215.298 20.128 214.37 19.7353L213.591 21.5772C214.288 21.872 214.89 22.2769 215.406 22.793L216.821 21.3788ZM214.385 19.7417C213.44 19.3239 212.435 19.1172 211.379 19.1172V21.1172C212.167 21.1172 212.896 21.2699 213.576 21.5708L214.385 19.7417ZM211.379 19.1172H204.652V21.1172H211.379V19.1172ZM204.652 46H197.926V48H204.652V46ZM198.926 47V13.3906H196.926V47H198.926ZM197.926 14.3906H211.379V12.3906H197.926V14.3906ZM211.379 14.3906C212.524 14.3906 213.618 14.5426 214.665 14.8438L215.218 12.9218C213.984 12.5668 212.703 12.3906 211.379 12.3906V14.3906ZM214.677 14.8473C215.732 15.1362 216.709 15.5536 217.613 16.0985L218.646 14.3859C217.58 13.7433 216.433 13.2544 215.206 12.9184L214.677 14.8473ZM217.629 16.1079C218.55 16.6406 219.385 17.288 220.134 18.0519L221.562 16.6512C220.686 15.7589 219.708 15 218.63 14.3765L217.629 16.1079ZM220.147 18.0654C220.911 18.8149 221.559 19.6494 222.091 20.5708L223.823 19.5698C223.199 18.4912 222.441 17.5133 221.548 16.6378L220.147 18.0654ZM222.097 20.5809C222.645 21.5025 223.063 22.4898 223.352 23.5455L225.281 23.017C224.945 21.7914 224.457 20.6381 223.817 19.5598L222.097 20.5809ZM223.356 23.5577C223.657 24.6049 223.809 25.6991 223.809 26.8438H225.809C225.809 25.5196 225.633 24.2388 225.278 23.0048L223.356 23.5577ZM223.809 26.8438C223.809 27.9133 223.672 28.9502 223.398 29.9568L225.329 30.4807C225.649 29.2998 225.809 28.0867 225.809 26.8438H223.809ZM223.395 29.9697C223.135 30.9811 222.752 31.9407 222.247 32.8503L223.995 33.8216C224.584 32.7625 225.03 31.6439 225.332 30.4678L223.395 29.9697ZM222.241 32.861C221.752 33.7672 221.148 34.6027 220.425 35.3685L221.88 36.7409C222.72 35.8505 223.428 34.8734 224.001 33.8109L222.241 32.861ZM220.425 35.3685C219.702 36.1348 218.893 36.7998 217.995 37.3645L219.06 39.0574C220.1 38.4033 221.04 37.6308 221.88 36.7409L220.425 35.3685ZM217.607 38.6013L221.333 47.3904L223.175 46.6096L219.448 37.8206L217.607 38.6013ZM222.254 46H215.106V48H222.254V46ZM216.023 46.603L213.094 39.8296L211.258 40.6235L214.188 47.397L216.023 46.603ZM212.17 39.2266L204.646 39.2735L204.659 41.2734L212.182 41.2265L212.17 39.2266ZM203.652 40.2734V47H205.652V40.2734H203.652ZM279.636 47V48H280.636V47H279.636ZM272.932 47H271.932V48H272.932V47ZM272.932 36.4766H273.932V35.6978L273.177 35.507L272.932 36.4766ZM268.831 34.6719L268.274 35.5023L268.279 35.5055L268.831 34.6719ZM265.643 31.7188L264.851 32.329L264.855 32.3342L265.643 31.7188ZM263.557 27.8984L262.612 28.2241L262.616 28.2368L263.557 27.8984ZM262.831 13.3906V12.3906H261.831V13.3906H262.831ZM269.557 13.3906H270.557V12.3906H269.557V13.3906ZM270.073 26.0938L269.15 26.4771L269.154 26.4877L269.159 26.4983L270.073 26.0938ZM273.659 29.6797L273.255 30.5942L273.265 30.5989L273.276 30.6033L273.659 29.6797ZM278.886 29.6797L279.275 30.6007L279.284 30.597L278.886 29.6797ZM282.472 26.0938L281.554 25.6956L281.551 25.7041L282.472 26.0938ZM283.011 13.3906V12.3906H282.011V13.3906H283.011ZM289.714 13.3906H290.714V12.3906H289.714V13.3906ZM288.964 27.8984L288.022 27.5634L288.019 27.5695L288.964 27.8984ZM286.901 31.7188L287.689 32.3342L287.693 32.329L286.901 31.7188ZM279.636 36.4766L279.391 35.507L278.636 35.6978V36.4766H279.636ZM279.636 46H272.932V48H279.636V46ZM273.932 47V36.4766H271.932V47H273.932ZM273.177 35.507C271.8 35.1591 270.537 34.6027 269.383 33.8382L268.279 35.5055C269.625 36.3973 271.096 37.0441 272.688 37.4461L273.177 35.507ZM269.388 33.8414C268.239 33.0707 267.255 32.1582 266.432 31.1033L264.855 32.3342C265.813 33.5605 266.954 34.6168 268.274 35.5023L269.388 33.8414ZM266.436 31.1085C265.609 30.0357 264.964 28.8542 264.499 27.5601L262.616 28.2368C263.151 29.724 263.896 31.0893 264.851 32.329L266.436 31.1085ZM264.503 27.5728C264.056 26.2755 263.831 24.9093 263.831 23.4688H261.831C261.831 25.122 262.09 26.7089 262.612 28.2241L264.503 27.5728ZM263.831 23.4688V13.3906H261.831V23.4688H263.831ZM262.831 14.3906H269.557V12.3906H262.831V14.3906ZM268.557 13.3906V23.4688H270.557V13.3906H268.557ZM268.557 23.4688C268.557 24.5184 268.754 25.524 269.15 26.4771L270.997 25.7104C270.705 25.0072 270.557 24.2628 270.557 23.4688H268.557ZM269.159 26.4983C269.566 27.42 270.12 28.2344 270.819 28.9337L272.233 27.5195C271.714 27 271.299 26.3925 270.988 25.6892L269.159 26.4983ZM270.819 28.9337C271.518 29.633 272.333 30.1865 273.255 30.5942L274.064 28.7652C273.36 28.4541 272.753 28.0389 272.233 27.5195L270.819 28.9337ZM273.276 30.6033C274.229 30.9989 275.234 31.1953 276.284 31.1953V29.1953C275.49 29.1953 274.746 29.048 274.042 28.7561L273.276 30.6033ZM276.284 31.1953C277.334 31.1953 278.334 30.9989 279.275 30.6007L278.496 28.7587C277.812 29.048 277.078 29.1953 276.284 29.1953V31.1953ZM279.284 30.597C280.222 30.19 281.047 29.6361 281.749 28.9337L280.335 27.5195C279.818 28.0358 279.206 28.4506 278.488 28.7623L279.284 30.597ZM281.749 28.9337C282.452 28.231 283 27.4116 283.393 26.4834L281.551 25.7041C281.256 26.4009 280.851 27.0033 280.335 27.5195L281.749 28.9337ZM283.389 26.4918C283.804 25.5354 284.011 24.5246 284.011 23.4688H282.011C282.011 24.2566 281.858 24.9959 281.554 25.6957L283.389 26.4918ZM284.011 23.4688V13.3906H282.011V23.4688H284.011ZM283.011 14.3906H289.714V12.3906H283.011V14.3906ZM288.714 13.3906V23.4688H290.714V13.3906H288.714ZM288.714 23.4688C288.714 24.9057 288.482 26.2686 288.022 27.5634L289.906 28.2334C290.446 26.7157 290.714 25.1256 290.714 23.4688H288.714ZM288.019 27.5695C287.57 28.8597 286.934 30.038 286.109 31.1085L287.693 32.329C288.65 31.087 289.389 29.7184 289.908 28.2274L288.019 27.5695ZM286.113 31.1033C285.289 32.1582 284.305 33.0707 283.157 33.8414L284.271 35.5023C285.591 34.6168 286.732 33.5605 287.689 32.3342L286.113 31.1033ZM283.157 33.8414C282.02 34.6037 280.767 35.1593 279.391 35.507L279.881 37.4461C281.473 37.0438 282.938 36.3963 284.271 35.5023L283.157 33.8414ZM278.636 36.4766V47H280.636V36.4766H278.636ZM355.673 47V48H357.46L356.526 46.477L355.673 47ZM347.517 47L346.658 47.512L346.949 48H347.517V47ZM341.048 36.1484L341.907 35.6364L341.05 34.1981L340.19 35.635L341.048 36.1484ZM334.556 47V48H335.123L335.414 47.5134L334.556 47ZM326.447 47L325.595 46.477L324.66 48H326.447V47ZM336.759 30.1953L337.612 30.7183L337.933 30.1953L337.612 29.6723L336.759 30.1953ZM326.447 13.3906V12.3906H324.66L325.595 13.9137L326.447 13.3906ZM334.556 13.3906L335.414 12.8772L335.123 12.3906H334.556V13.3906ZM341.048 24.2422L340.19 24.7556L341.05 26.1926L341.907 24.7542L341.048 24.2422ZM347.517 13.3906V12.3906H346.949L346.658 12.8786L347.517 13.3906ZM355.673 13.3906L356.526 13.9137L357.46 12.3906H355.673V13.3906ZM345.361 30.1953L344.509 29.6723L344.188 30.1953L344.509 30.7183L345.361 30.1953ZM355.673 46H347.517V48H355.673V46ZM348.376 46.488L341.907 35.6364L340.189 36.6605L346.658 47.512L348.376 46.488ZM340.19 35.635L333.698 46.4866L335.414 47.5134L341.907 36.6618L340.19 35.635ZM334.556 46H326.447V48H334.556V46ZM327.299 47.523L337.612 30.7183L335.907 29.6723L325.595 46.477L327.299 47.523ZM337.612 29.6723L327.299 12.8676L325.595 13.9137L335.907 30.7183L337.612 29.6723ZM326.447 14.3906H334.556V12.3906H326.447V14.3906ZM333.698 13.904L340.19 24.7556L341.907 23.7288L335.414 12.8772L333.698 13.904ZM341.907 24.7542L348.376 13.9027L346.658 12.8786L340.189 23.7301L341.907 24.7542ZM347.517 14.3906H355.673V12.3906H347.517V14.3906ZM354.821 12.8676L344.509 29.6723L346.213 30.7183L356.526 13.9137L354.821 12.8676ZM344.509 30.7183L354.821 47.523L356.526 46.477L346.213 29.6723L344.509 30.7183Z" fill="black"/>
</svg>
