<svg width="467" height="128" viewBox="0 0 467 128" fill="none" xmlns="http://www.w3.org/2000/svg">
<g filter="url(#filter0_d)">
<path d="M78.8984 49.0633V42.3367C78.8984 41.4149 78.7188 40.5477 78.3594 39.7352C78.0156 38.907 77.5391 38.1883 76.9297 37.5789C76.3203 36.9695 75.6016 36.493 74.7734 36.1492C73.9609 35.7899 73.0938 35.6102 72.1719 35.6102C71.25 35.6102 70.375 35.7899 69.5469 36.1492C68.7344 36.493 68.0234 36.9695 67.4141 37.5789C66.8047 38.1883 66.3203 38.907 65.9609 39.7352C65.6172 40.5477 65.4453 41.4149 65.4453 42.3367V49.0633H78.8984ZM85.625 62.493H78.8984V55.7664H65.4453V62.493H58.7422V42.3367C58.7422 40.4774 59.0938 38.7352 59.7969 37.1102C60.5 35.4695 61.4531 34.0399 62.6562 32.8211C63.875 31.6024 65.2969 30.6414 66.9219 29.9383C68.5625 29.2352 70.3125 28.8836 72.1719 28.8836C74.0312 28.8836 75.7734 29.2352 77.3984 29.9383C79.0391 30.6414 80.4688 31.6024 81.6875 32.8211C82.9062 34.0399 83.8672 35.4695 84.5703 37.1102C85.2734 38.7352 85.625 40.4774 85.625 42.3367V62.493ZM124.772 38.9617C124.772 37.5711 125.038 36.2664 125.569 35.0477C126.1 33.8289 126.819 32.7664 127.725 31.8602C128.647 30.9383 129.717 30.2117 130.936 29.6805C132.155 29.1492 133.46 28.8836 134.85 28.8836H150.272V35.6102H134.85C134.382 35.6102 133.944 35.6961 133.538 35.868C133.132 36.0399 132.772 36.282 132.46 36.5945C132.163 36.8914 131.928 37.243 131.757 37.6492C131.585 38.0555 131.499 38.493 131.499 38.9617C131.499 39.4305 131.585 39.8758 131.757 40.2977C131.928 40.7039 132.163 41.0633 132.46 41.3758C132.772 41.6727 133.132 41.907 133.538 42.0789C133.944 42.2508 134.382 42.3367 134.85 42.3367H141.577C142.967 42.3367 144.272 42.6024 145.491 43.1336C146.725 43.6492 147.796 44.368 148.702 45.2899C149.624 46.1961 150.342 47.2664 150.858 48.5008C151.389 49.7195 151.655 51.0242 151.655 52.4149C151.655 53.8055 151.389 55.1102 150.858 56.3289C150.342 57.5477 149.624 58.618 148.702 59.5399C147.796 60.4461 146.725 61.1649 145.491 61.6961C144.272 62.2274 142.967 62.493 141.577 62.493H126.647V55.7664H141.577C142.046 55.7664 142.483 55.6805 142.889 55.5086C143.296 55.3367 143.647 55.1024 143.944 54.8055C144.257 54.493 144.499 54.1336 144.671 53.7274C144.842 53.3211 144.928 52.8836 144.928 52.4149C144.928 51.9461 144.842 51.5086 144.671 51.1024C144.499 50.6961 144.257 50.3445 143.944 50.0477C143.647 49.7352 143.296 49.493 142.889 49.3211C142.483 49.1492 142.046 49.0633 141.577 49.0633H134.85C133.46 49.0633 132.155 48.7977 130.936 48.2664C129.717 47.7352 128.647 47.0164 127.725 46.1102C126.819 45.1883 126.1 44.118 125.569 42.8992C125.038 41.6649 124.772 40.3524 124.772 38.9617ZM205.005 62.493H198.302V35.6102H188.201V28.8836H215.083V35.6102H205.005V62.493ZM260.652 35.6102V49.0633H267.379C268.301 49.0633 269.168 48.8914 269.981 48.5477C270.793 48.1883 271.504 47.7039 272.113 47.0945C272.723 46.4852 273.199 45.7742 273.543 44.9617C273.902 44.1336 274.082 43.2586 274.082 42.3367C274.082 41.4149 273.902 40.5477 273.543 39.7352C273.199 38.907 272.723 38.1883 272.113 37.5789C271.504 36.9695 270.793 36.493 269.981 36.1492C269.168 35.7899 268.301 35.6102 267.379 35.6102H260.652ZM260.652 62.493H253.926V28.8836H267.379C268.613 28.8836 269.801 29.0477 270.942 29.3758C272.082 29.6883 273.145 30.1414 274.129 30.7352C275.129 31.3133 276.035 32.0164 276.848 32.8445C277.676 33.657 278.379 34.5633 278.957 35.5633C279.551 36.5633 280.004 37.6336 280.317 38.7742C280.645 39.9149 280.809 41.1024 280.809 42.3367C280.809 43.493 280.66 44.618 280.363 45.7117C280.082 46.8055 279.668 47.8445 279.121 48.8289C278.59 49.8133 277.934 50.7195 277.152 51.5477C276.371 52.3758 275.496 53.0945 274.527 53.7039L278.254 62.493H271.106L268.176 55.7195L260.652 55.7664V62.493ZM335.636 62.493H328.932V51.9695C327.448 51.5945 326.081 50.993 324.831 50.1649C323.597 49.3367 322.534 48.3524 321.643 47.2117C320.753 46.0555 320.057 44.782 319.557 43.3914C319.073 41.9852 318.831 40.5086 318.831 38.9617V28.8836H325.557V38.9617C325.557 39.8836 325.729 40.7586 326.073 41.5867C326.432 42.3992 326.917 43.1102 327.526 43.7195C328.136 44.3289 328.847 44.8133 329.659 45.1727C330.487 45.5164 331.362 45.6883 332.284 45.6883C333.206 45.6883 334.073 45.5164 334.886 45.1727C335.714 44.8133 336.432 44.3289 337.042 43.7195C337.651 43.1102 338.128 42.3992 338.472 41.5867C338.831 40.7586 339.011 39.8836 339.011 38.9617V28.8836H345.714V38.9617C345.714 40.5086 345.464 41.9852 344.964 43.3914C344.479 44.782 343.792 46.0555 342.901 47.2117C342.011 48.3524 340.948 49.3367 339.714 50.1649C338.479 50.993 337.12 51.5945 335.636 51.9695V62.493ZM411.673 62.493H403.517L397.048 51.6414L390.556 62.493H382.447L392.759 45.6883L382.447 28.8836H390.556L397.048 39.7352L403.517 28.8836H411.673L401.361 45.6883L411.673 62.493Z" fill="#FF00F5"/>
</g>
<g filter="url(#filter1_d)">
<path d="M78.8984 40.6125V33.886C78.8984 32.9641 78.7188 32.0969 78.3594 31.2844C78.0156 30.4563 77.5391 29.7375 76.9297 29.1282C76.3203 28.5188 75.6016 28.0422 74.7734 27.6985C73.9609 27.3391 73.0938 27.1594 72.1719 27.1594C71.25 27.1594 70.375 27.3391 69.5469 27.6985C68.7344 28.0422 68.0234 28.5188 67.4141 29.1282C66.8047 29.7375 66.3203 30.4563 65.9609 31.2844C65.6172 32.0969 65.4453 32.9641 65.4453 33.886V40.6125H78.8984ZM85.625 54.0422H78.8984V47.3157H65.4453V54.0422H58.7422V33.886C58.7422 32.0266 59.0938 30.2844 59.7969 28.6594C60.5 27.0188 61.4531 25.5891 62.6562 24.3704C63.875 23.1516 65.2969 22.1907 66.9219 21.4875C68.5625 20.7844 70.3125 20.4329 72.1719 20.4329C74.0312 20.4329 75.7734 20.7844 77.3984 21.4875C79.0391 22.1907 80.4688 23.1516 81.6875 24.3704C82.9062 25.5891 83.8672 27.0188 84.5703 28.6594C85.2734 30.2844 85.625 32.0266 85.625 33.886V54.0422ZM124.772 30.511C124.772 29.1204 125.038 27.8157 125.569 26.5969C126.1 25.3782 126.819 24.3157 127.725 23.4094C128.647 22.4875 129.717 21.761 130.936 21.2297C132.155 20.6985 133.46 20.4329 134.85 20.4329H150.272V27.1594H134.85C134.382 27.1594 133.944 27.2454 133.538 27.4172C133.132 27.5891 132.772 27.8313 132.46 28.1438C132.163 28.4407 131.928 28.7922 131.757 29.1985C131.585 29.6047 131.499 30.0422 131.499 30.511C131.499 30.9797 131.585 31.425 131.757 31.8469C131.928 32.2532 132.163 32.6125 132.46 32.925C132.772 33.2219 133.132 33.4563 133.538 33.6282C133.944 33.8 134.382 33.886 134.85 33.886H141.577C142.967 33.886 144.272 34.1516 145.491 34.6829C146.725 35.1985 147.796 35.9172 148.702 36.8391C149.624 37.7454 150.342 38.8157 150.858 40.05C151.389 41.2688 151.655 42.5735 151.655 43.9641C151.655 45.3547 151.389 46.6594 150.858 47.8782C150.342 49.0969 149.624 50.1672 148.702 51.0891C147.796 51.9954 146.725 52.7141 145.491 53.2454C144.272 53.7766 142.967 54.0422 141.577 54.0422H126.647V47.3157H141.577C142.046 47.3157 142.483 47.2297 142.889 47.0579C143.296 46.886 143.647 46.6516 143.944 46.3547C144.257 46.0422 144.499 45.6829 144.671 45.2766C144.842 44.8704 144.928 44.4329 144.928 43.9641C144.928 43.4954 144.842 43.0579 144.671 42.6516C144.499 42.2454 144.257 41.8938 143.944 41.5969C143.647 41.2844 143.296 41.0422 142.889 40.8704C142.483 40.6985 142.046 40.6125 141.577 40.6125H134.85C133.46 40.6125 132.155 40.3469 130.936 39.8157C129.717 39.2844 128.647 38.5657 127.725 37.6594C126.819 36.7375 126.1 35.6672 125.569 34.4485C125.038 33.2141 124.772 31.9016 124.772 30.511ZM205.005 54.0422H198.302V27.1594H188.201V20.4329H215.083V27.1594H205.005V54.0422ZM260.652 27.1594V40.6125H267.379C268.301 40.6125 269.168 40.4407 269.981 40.0969C270.793 39.7375 271.504 39.2532 272.113 38.6438C272.723 38.0344 273.199 37.3235 273.543 36.511C273.902 35.6829 274.082 34.8079 274.082 33.886C274.082 32.9641 273.902 32.0969 273.543 31.2844C273.199 30.4563 272.723 29.7375 272.113 29.1282C271.504 28.5188 270.793 28.0422 269.981 27.6985C269.168 27.3391 268.301 27.1594 267.379 27.1594H260.652ZM260.652 54.0422H253.926V20.4329H267.379C268.613 20.4329 269.801 20.5969 270.942 20.925C272.082 21.2375 273.145 21.6907 274.129 22.2844C275.129 22.8625 276.035 23.5657 276.848 24.3938C277.676 25.2063 278.379 26.1125 278.957 27.1125C279.551 28.1125 280.004 29.1829 280.317 30.3235C280.645 31.4641 280.809 32.6516 280.809 33.886C280.809 35.0422 280.66 36.1672 280.363 37.261C280.082 38.3547 279.668 39.3938 279.121 40.3782C278.59 41.3625 277.934 42.2688 277.152 43.0969C276.371 43.925 275.496 44.6438 274.527 45.2532L278.254 54.0422H271.106L268.176 47.2688L260.652 47.3157V54.0422ZM335.636 54.0422H328.932V43.5188C327.448 43.1438 326.081 42.5422 324.831 41.7141C323.597 40.886 322.534 39.9016 321.643 38.761C320.753 37.6047 320.057 36.3313 319.557 34.9407C319.073 33.5344 318.831 32.0579 318.831 30.511V20.4329H325.557V30.511C325.557 31.4329 325.729 32.3079 326.073 33.136C326.432 33.9485 326.917 34.6594 327.526 35.2688C328.136 35.8782 328.847 36.3625 329.659 36.7219C330.487 37.0657 331.362 37.2375 332.284 37.2375C333.206 37.2375 334.073 37.0657 334.886 36.7219C335.714 36.3625 336.432 35.8782 337.042 35.2688C337.651 34.6594 338.128 33.9485 338.472 33.136C338.831 32.3079 339.011 31.4329 339.011 30.511V20.4329H345.714V30.511C345.714 32.0579 345.464 33.5344 344.964 34.9407C344.479 36.3313 343.792 37.6047 342.901 38.761C342.011 39.9016 340.948 40.886 339.714 41.7141C338.479 42.5422 337.12 43.1438 335.636 43.5188V54.0422ZM411.673 54.0422H403.517L397.048 43.1907L390.556 54.0422H382.447L392.759 37.2375L382.447 20.4329H390.556L397.048 31.2844L403.517 20.4329H411.673L401.361 37.2375L411.673 54.0422Z" fill="#00F0FF"/>
</g>
<g filter="url(#filter2_d)">
<path d="M78.8984 33.5703V26.8438C78.8984 25.9219 78.7188 25.0547 78.3594 24.2422C78.0156 23.4141 77.5391 22.6953 76.9297 22.0859C76.3203 21.4766 75.6016 21 74.7734 20.6562C73.9609 20.2969 73.0938 20.1172 72.1719 20.1172C71.25 20.1172 70.375 20.2969 69.5469 20.6562C68.7344 21 68.0234 21.4766 67.4141 22.0859C66.8047 22.6953 66.3203 23.4141 65.9609 24.2422C65.6172 25.0547 65.4453 25.9219 65.4453 26.8438V33.5703H78.8984ZM85.625 47H78.8984V40.2734H65.4453V47H58.7422V26.8438C58.7422 24.9844 59.0938 23.2422 59.7969 21.6172C60.5 19.9766 61.4531 18.5469 62.6562 17.3281C63.875 16.1094 65.2969 15.1484 66.9219 14.4453C68.5625 13.7422 70.3125 13.3906 72.1719 13.3906C74.0312 13.3906 75.7734 13.7422 77.3984 14.4453C79.0391 15.1484 80.4688 16.1094 81.6875 17.3281C82.9062 18.5469 83.8672 19.9766 84.5703 21.6172C85.2734 23.2422 85.625 24.9844 85.625 26.8438V47ZM124.772 23.4688C124.772 22.0781 125.038 20.7734 125.569 19.5547C126.1 18.3359 126.819 17.2734 127.725 16.3672C128.647 15.4453 129.717 14.7188 130.936 14.1875C132.155 13.6562 133.46 13.3906 134.85 13.3906H150.272V20.1172H134.85C134.382 20.1172 133.944 20.2031 133.538 20.375C133.132 20.5469 132.772 20.7891 132.46 21.1016C132.163 21.3984 131.928 21.75 131.757 22.1562C131.585 22.5625 131.499 23 131.499 23.4688C131.499 23.9375 131.585 24.3828 131.757 24.8047C131.928 25.2109 132.163 25.5703 132.46 25.8828C132.772 26.1797 133.132 26.4141 133.538 26.5859C133.944 26.7578 134.382 26.8438 134.85 26.8438H141.577C142.967 26.8438 144.272 27.1094 145.491 27.6406C146.725 28.1562 147.796 28.875 148.702 29.7969C149.624 30.7031 150.342 31.7734 150.858 33.0078C151.389 34.2266 151.655 35.5312 151.655 36.9219C151.655 38.3125 151.389 39.6172 150.858 40.8359C150.342 42.0547 149.624 43.125 148.702 44.0469C147.796 44.9531 146.725 45.6719 145.491 46.2031C144.272 46.7344 142.967 47 141.577 47H126.647V40.2734H141.577C142.046 40.2734 142.483 40.1875 142.889 40.0156C143.296 39.8438 143.647 39.6094 143.944 39.3125C144.257 39 144.499 38.6406 144.671 38.2344C144.842 37.8281 144.928 37.3906 144.928 36.9219C144.928 36.4531 144.842 36.0156 144.671 35.6094C144.499 35.2031 144.257 34.8516 143.944 34.5547C143.647 34.2422 143.296 34 142.889 33.8281C142.483 33.6562 142.046 33.5703 141.577 33.5703H134.85C133.46 33.5703 132.155 33.3047 130.936 32.7734C129.717 32.2422 128.647 31.5234 127.725 30.6172C126.819 29.6953 126.1 28.625 125.569 27.4062C125.038 26.1719 124.772 24.8594 124.772 23.4688ZM205.005 47H198.302V20.1172H188.201V13.3906H215.083V20.1172H205.005V47ZM260.652 20.1172V33.5703H267.379C268.301 33.5703 269.168 33.3984 269.981 33.0547C270.793 32.6953 271.504 32.2109 272.113 31.6016C272.723 30.9922 273.199 30.2812 273.543 29.4688C273.902 28.6406 274.082 27.7656 274.082 26.8438C274.082 25.9219 273.902 25.0547 273.543 24.2422C273.199 23.4141 272.723 22.6953 272.113 22.0859C271.504 21.4766 270.793 21 269.981 20.6562C269.168 20.2969 268.301 20.1172 267.379 20.1172H260.652ZM260.652 47H253.926V13.3906H267.379C268.613 13.3906 269.801 13.5547 270.942 13.8828C272.082 14.1953 273.145 14.6484 274.129 15.2422C275.129 15.8203 276.035 16.5234 276.848 17.3516C277.676 18.1641 278.379 19.0703 278.957 20.0703C279.551 21.0703 280.004 22.1406 280.317 23.2812C280.645 24.4219 280.809 25.6094 280.809 26.8438C280.809 28 280.66 29.125 280.363 30.2188C280.082 31.3125 279.668 32.3516 279.121 33.3359C278.59 34.3203 277.934 35.2266 277.152 36.0547C276.371 36.8828 275.496 37.6016 274.527 38.2109L278.254 47H271.106L268.176 40.2266L260.652 40.2734V47ZM335.636 47H328.932V36.4766C327.448 36.1016 326.081 35.5 324.831 34.6719C323.597 33.8438 322.534 32.8594 321.643 31.7188C320.753 30.5625 320.057 29.2891 319.557 27.8984C319.073 26.4922 318.831 25.0156 318.831 23.4688V13.3906H325.557V23.4688C325.557 24.3906 325.729 25.2656 326.073 26.0938C326.432 26.9062 326.917 27.6172 327.526 28.2266C328.136 28.8359 328.847 29.3203 329.659 29.6797C330.487 30.0234 331.362 30.1953 332.284 30.1953C333.206 30.1953 334.073 30.0234 334.886 29.6797C335.714 29.3203 336.432 28.8359 337.042 28.2266C337.651 27.6172 338.128 26.9062 338.472 26.0938C338.831 25.2656 339.011 24.3906 339.011 23.4688V13.3906H345.714V23.4688C345.714 25.0156 345.464 26.4922 344.964 27.8984C344.479 29.2891 343.792 30.5625 342.901 31.7188C342.011 32.8594 340.948 33.8438 339.714 34.6719C338.479 35.5 337.12 36.1016 335.636 36.4766V47ZM411.673 47H403.517L397.048 36.1484L390.556 47H382.447L392.759 30.1953L382.447 13.3906H390.556L397.048 24.2422L403.517 13.3906H411.673L401.361 30.1953L411.673 47Z" fill="black"/>
</g>
<g filter="url(#filter3_d)">
<path d="M78.8984 62.7751V53.3011C78.8984 52.0027 78.7188 50.7813 78.3594 49.6369C78.0156 48.4705 77.5391 47.4582 76.9297 46.5999C76.3203 45.7416 75.6016 45.0704 74.7734 44.5863C73.9609 44.0801 73.0938 43.827 72.1719 43.827C71.25 43.827 70.375 44.0801 69.5469 44.5863C68.7344 45.0704 68.0234 45.7416 67.4141 46.5999C66.8047 47.4582 66.3203 48.4705 65.9609 49.6369C65.6172 50.7813 65.4453 52.0027 65.4453 53.3011V62.7751H78.8984ZM85.625 81.6902H78.8984V72.2161H65.4453V81.6902H58.7422V53.3011C58.7422 50.6822 59.0938 48.2284 59.7969 45.9397C60.5 43.629 61.4531 41.6153 62.6562 39.8988C63.875 38.1822 65.2969 36.8288 66.9219 35.8385C68.5625 34.8482 70.3125 34.353 72.1719 34.353C74.0312 34.353 75.7734 34.8482 77.3984 35.8385C79.0391 36.8288 80.4688 38.1822 81.6875 39.8988C82.9062 41.6153 83.8672 43.629 84.5703 45.9397C85.2734 48.2284 85.625 50.6822 85.625 53.3011V81.6902Z" stroke="black" stroke-opacity="0.1"/>
<path d="M124.772 48.5475C124.772 46.5889 125.038 44.7513 125.569 43.0348C126.1 41.3182 126.819 39.8218 127.725 38.5453C128.647 37.2469 129.717 36.2236 130.936 35.4754C132.155 34.7271 133.46 34.353 134.85 34.353H150.272V43.827H134.85C134.382 43.827 133.944 43.9481 133.538 44.1902C133.132 44.4322 132.772 44.7733 132.46 45.2135C132.163 45.6316 131.928 46.1268 131.757 46.699C131.585 47.2711 131.499 47.8873 131.499 48.5475C131.499 49.2078 131.585 49.835 131.757 50.4291C131.928 51.0013 132.163 51.5075 132.46 51.9476C132.772 52.3658 133.132 52.6959 133.538 52.938C133.944 53.18 134.382 53.3011 134.85 53.3011H141.577C142.967 53.3011 144.272 53.6752 145.491 54.4234C146.725 55.1497 147.796 56.162 148.702 57.4604C149.624 58.7368 150.342 60.2443 150.858 61.9828C151.389 63.6994 151.655 65.537 151.655 67.4956C151.655 69.4542 151.389 71.2918 150.858 73.0084C150.342 74.7249 149.624 76.2324 148.702 77.5308C147.796 78.8072 146.725 79.8196 145.491 80.5678C144.272 81.316 142.967 81.6902 141.577 81.6902H126.647V72.2161H141.577C142.046 72.2161 142.483 72.0951 142.889 71.853C143.296 71.6109 143.647 71.2808 143.944 70.8627C144.257 70.4225 144.499 69.9164 144.671 69.3442C144.842 68.772 144.928 68.1558 144.928 67.4956C144.928 66.8354 144.842 66.2192 144.671 65.647C144.499 65.0748 144.257 64.5797 143.944 64.1615C143.647 63.7214 143.296 63.3803 142.889 63.1382C142.483 62.8961 142.046 62.7751 141.577 62.7751H134.85C133.46 62.7751 132.155 62.401 130.936 61.6527C129.717 60.9045 128.647 59.8922 127.725 58.6158C126.819 57.3174 126.1 55.8099 125.569 54.0933C125.038 52.3548 124.772 50.5062 124.772 48.5475Z" stroke="black" stroke-opacity="0.1"/>
<path d="M205.005 81.6902H198.302V43.827H188.201V34.353H215.083V43.827H205.005V81.6902Z" stroke="black" stroke-opacity="0.1"/>
<path d="M260.652 43.827V62.7751H267.379C268.301 62.7751 269.168 62.533 269.981 62.0489C270.793 61.5427 271.504 60.8605 272.113 60.0022C272.723 59.1439 273.199 58.1426 273.543 56.9983C273.902 55.8319 274.082 54.5995 274.082 53.3011C274.082 52.0027 273.902 50.7813 273.543 49.6369C273.199 48.4705 272.723 47.4582 272.113 46.5999C271.504 45.7416 270.793 45.0704 269.981 44.5863C269.168 44.0801 268.301 43.827 267.379 43.827H260.652ZM260.652 81.6902H253.926V34.353H267.379C268.613 34.353 269.801 34.5841 270.942 35.0462C272.082 35.4864 273.145 36.1246 274.129 36.9608C275.129 37.7751 276.035 38.7654 276.848 39.9318C277.676 41.0762 278.379 42.3526 278.957 43.761C279.551 45.1695 280.004 46.6769 280.317 48.2835C280.645 49.89 280.809 51.5625 280.809 53.3011C280.809 54.9296 280.66 56.5141 280.363 58.0546C280.082 59.5951 279.668 61.0586 279.121 62.445C278.59 63.8314 277.934 65.1078 277.152 66.2742C276.371 67.4406 275.496 68.4529 274.527 69.3112L278.254 81.6902H271.106L268.176 72.1501L260.652 72.2161V81.6902Z" stroke="black" stroke-opacity="0.1"/>
<path d="M335.636 81.6902H328.932V66.8684C327.448 66.3402 326.081 65.493 324.831 64.3266C323.597 63.1602 322.534 61.7738 321.643 60.1673C320.753 58.5387 320.057 56.7452 319.557 54.7865C319.073 52.8059 318.831 50.7262 318.831 48.5475V34.353H325.557V48.5475C325.557 49.846 325.729 51.0784 326.073 52.2447C326.432 53.3891 326.917 54.3904 327.526 55.2487C328.136 56.107 328.847 56.7892 329.659 57.2953C330.487 57.7795 331.362 58.0216 332.284 58.0216C333.206 58.0216 334.073 57.7795 334.886 57.2953C335.714 56.7892 336.432 56.107 337.042 55.2487C337.651 54.3904 338.128 53.3891 338.472 52.2447C338.831 51.0784 339.011 49.846 339.011 48.5475V34.353H345.714V48.5475C345.714 50.7262 345.464 52.8059 344.964 54.7865C344.479 56.7452 343.792 58.5387 342.901 60.1673C342.011 61.7738 340.948 63.1602 339.714 64.3266C338.479 65.493 337.12 66.3402 335.636 66.8684V81.6902Z" stroke="black" stroke-opacity="0.1"/>
<path d="M411.673 81.6902H403.517L397.048 66.4063L390.556 81.6902H382.447L392.759 58.0216L382.447 34.353H390.556L397.048 49.6369L403.517 34.353H411.673L401.361 58.0216L411.673 81.6902Z" stroke="black" stroke-opacity="0.1"/>
<path d="M78.8984 54.3244V44.8504C78.8984 43.5519 78.7188 42.3306 78.3594 41.1862C78.0156 40.0198 77.5391 39.0075 76.9297 38.1492C76.3203 37.2909 75.6016 36.6197 74.7734 36.1356C73.9609 35.6294 73.0938 35.3763 72.1719 35.3763C71.25 35.3763 70.375 35.6294 69.5469 36.1356C68.7344 36.6197 68.0234 37.2909 67.4141 38.1492C66.8047 39.0075 66.3203 40.0198 65.9609 41.1862C65.6172 42.3306 65.4453 43.5519 65.4453 44.8504V54.3244H78.8984ZM85.625 73.2394H78.8984V63.7654H65.4453V73.2394H58.7422V44.8504C58.7422 42.2315 59.0938 39.7777 59.7969 37.489C60.5 35.1783 61.4531 33.1646 62.6562 31.4481C63.875 29.7315 65.2969 28.3781 66.9219 27.3878C68.5625 26.3975 70.3125 25.9023 72.1719 25.9023C74.0312 25.9023 75.7734 26.3975 77.3984 27.3878C79.0391 28.3781 80.4688 29.7315 81.6875 31.4481C82.9062 33.1646 83.8672 35.1783 84.5703 37.489C85.2734 39.7777 85.625 42.2315 85.625 44.8504V73.2394Z" stroke="black" stroke-opacity="0.1"/>
<path d="M124.772 40.0968C124.772 38.1382 125.038 36.3006 125.569 34.5841C126.1 32.8675 126.819 31.3711 127.725 30.0946C128.647 28.7962 129.717 27.7729 130.936 27.0247C132.155 26.2764 133.46 25.9023 134.85 25.9023H150.272V35.3763H134.85C134.382 35.3763 133.944 35.4974 133.538 35.7394C133.132 35.9815 132.772 36.3226 132.46 36.7628C132.163 37.1809 131.928 37.6761 131.757 38.2483C131.585 38.8204 131.499 39.4366 131.499 40.0968C131.499 40.7571 131.585 41.3843 131.757 41.9784C131.928 42.5506 132.163 43.0568 132.46 43.4969C132.772 43.9151 133.132 44.2452 133.538 44.4872C133.944 44.7293 134.382 44.8504 134.85 44.8504H141.577C142.967 44.8504 144.272 45.2245 145.491 45.9727C146.725 46.699 147.796 47.7113 148.702 49.0097C149.624 50.2861 150.342 51.7936 150.858 53.5321C151.389 55.2487 151.655 57.0863 151.655 59.0449C151.655 61.0035 151.389 62.8411 150.858 64.5577C150.342 66.2742 149.624 67.7817 148.702 69.0801C147.796 70.3565 146.725 71.3688 145.491 72.1171C144.272 72.8653 142.967 73.2394 141.577 73.2394H126.647V63.7654H141.577C142.046 63.7654 142.483 63.6444 142.889 63.4023C143.296 63.1602 143.647 62.8301 143.944 62.412C144.257 61.9718 144.499 61.4657 144.671 60.8935C144.842 60.3213 144.928 59.7051 144.928 59.0449C144.928 58.3847 144.842 57.7685 144.671 57.1963C144.499 56.6241 144.257 56.129 143.944 55.7108C143.647 55.2707 143.296 54.9296 142.889 54.6875C142.483 54.4454 142.046 54.3244 141.577 54.3244H134.85C133.46 54.3244 132.155 53.9503 130.936 53.202C129.717 52.4538 128.647 51.4415 127.725 50.1651C126.819 48.8666 126.1 47.3592 125.569 45.6426C125.038 43.9041 124.772 42.0555 124.772 40.0968Z" stroke="black" stroke-opacity="0.1"/>
<path d="M205.005 73.2394H198.302V35.3763H188.201V25.9023H215.083V35.3763H205.005V73.2394Z" stroke="black" stroke-opacity="0.1"/>
<path d="M260.652 35.3763V54.3244H267.379C268.301 54.3244 269.168 54.0823 269.981 53.5982C270.793 53.092 271.504 52.4098 272.113 51.5515C272.723 50.6932 273.199 49.6919 273.543 48.5475C273.902 47.3812 274.082 46.1488 274.082 44.8504C274.082 43.5519 273.902 42.3306 273.543 41.1862C273.199 40.0198 272.723 39.0075 272.113 38.1492C271.504 37.2909 270.793 36.6197 269.981 36.1356C269.168 35.6294 268.301 35.3763 267.379 35.3763H260.652ZM260.652 73.2394H253.926V25.9023H267.379C268.613 25.9023 269.801 26.1334 270.942 26.5955C272.082 27.0357 273.145 27.6739 274.129 28.5101C275.129 29.3244 276.035 30.3147 276.848 31.4811C277.676 32.6255 278.379 33.9019 278.957 35.3103C279.551 36.7188 280.004 38.2262 280.317 39.8328C280.645 41.4393 280.809 43.1118 280.809 44.8504C280.809 46.4789 280.66 48.0634 280.363 49.6039C280.082 51.1444 279.668 52.6078 279.121 53.9943C278.59 55.3807 277.934 56.6571 277.152 57.8235C276.371 58.9899 275.496 60.0022 274.527 60.8605L278.254 73.2394H271.106L268.176 63.6994L260.652 63.7654V73.2394Z" stroke="black" stroke-opacity="0.1"/>
<path d="M335.636 73.2394H328.932V58.4177C327.448 57.8895 326.081 57.0423 324.831 55.8759C323.597 54.7095 322.534 53.3231 321.643 51.7166C320.753 50.088 320.057 48.2945 319.557 46.3358C319.073 44.3552 318.831 42.2755 318.831 40.0968V25.9023H325.557V40.0968C325.557 41.3953 325.729 42.6277 326.073 43.794C326.432 44.9384 326.917 45.9397 327.526 46.798C328.136 47.6563 328.847 48.3385 329.659 48.8446C330.487 49.3288 331.362 49.5709 332.284 49.5709C333.206 49.5709 334.073 49.3288 334.886 48.8446C335.714 48.3385 336.432 47.6563 337.042 46.798C337.651 45.9397 338.128 44.9384 338.472 43.794C338.831 42.6277 339.011 41.3953 339.011 40.0968V25.9023H345.714V40.0968C345.714 42.2755 345.464 44.3552 344.964 46.3358C344.479 48.2945 343.792 50.088 342.901 51.7166C342.011 53.3231 340.948 54.7095 339.714 55.8759C338.479 57.0423 337.12 57.8895 335.636 58.4177V73.2394Z" stroke="black" stroke-opacity="0.1"/>
<path d="M411.673 73.2394H403.517L397.048 57.9556L390.556 73.2394H382.447L392.759 49.5709L382.447 25.9023H390.556L397.048 41.1862L403.517 25.9023H411.673L401.361 49.5709L411.673 73.2394Z" stroke="black" stroke-opacity="0.1"/>
<path d="M78.8984 47.2821V37.8081C78.8984 36.5097 78.7188 35.2883 78.3594 34.1439C78.0156 32.9776 77.5391 31.9652 76.9297 31.107C76.3203 30.2487 75.6016 29.5775 74.7734 29.0933C73.9609 28.5872 73.0938 28.3341 72.1719 28.3341C71.25 28.3341 70.375 28.5872 69.5469 29.0933C68.7344 29.5775 68.0234 30.2487 67.4141 31.107C66.8047 31.9652 66.3203 32.9776 65.9609 34.1439C65.6172 35.2883 65.4453 36.5097 65.4453 37.8081V47.2821H78.8984ZM85.625 66.1972H78.8984V56.7232H65.4453V66.1972H58.7422V37.8081C58.7422 35.1893 59.0938 32.7355 59.7969 30.4468C60.5 28.136 61.4531 26.1224 62.6562 24.4058C63.875 22.6893 65.2969 21.3358 66.9219 20.3455C68.5625 19.3552 70.3125 18.86 72.1719 18.86C74.0312 18.86 75.7734 19.3552 77.3984 20.3455C79.0391 21.3358 80.4688 22.6893 81.6875 24.4058C82.9062 26.1224 83.8672 28.136 84.5703 30.4468C85.2734 32.7355 85.625 35.1893 85.625 37.8081V66.1972Z" stroke="black" stroke-opacity="0.1"/>
<path d="M124.772 33.0546C124.772 31.096 125.038 29.2584 125.569 27.5418C126.1 25.8253 126.819 24.3288 127.725 23.0524C128.647 21.754 129.717 20.7306 130.936 19.9824C132.155 19.2342 133.46 18.86 134.85 18.86H150.272V28.3341H134.85C134.382 28.3341 133.944 28.4551 133.538 28.6972C133.132 28.9393 132.772 29.2804 132.46 29.7205C132.163 30.1387 131.928 30.6338 131.757 31.206C131.585 31.7782 131.499 32.3944 131.499 33.0546C131.499 33.7148 131.585 34.342 131.757 34.9362C131.928 35.5084 132.163 36.0145 132.46 36.4547C132.772 36.8728 133.132 37.2029 133.538 37.445C133.944 37.6871 134.382 37.8081 134.85 37.8081H141.577C142.967 37.8081 144.272 38.1822 145.491 38.9305C146.725 39.6567 147.796 40.669 148.702 41.9674C149.624 43.2438 150.342 44.7513 150.858 46.4899C151.389 48.2064 151.655 50.044 151.655 52.0027C151.655 53.9613 151.389 55.7989 150.858 57.5154C150.342 59.232 149.624 60.7394 148.702 62.0379C147.796 63.3143 146.725 64.3266 145.491 65.0748C144.272 65.8231 142.967 66.1972 141.577 66.1972H126.647V56.7232H141.577C142.046 56.7232 142.483 56.6021 142.889 56.36C143.296 56.118 143.647 55.7879 143.944 55.3697C144.257 54.9296 144.499 54.4234 144.671 53.8512C144.842 53.2791 144.928 52.6629 144.928 52.0027C144.928 51.3424 144.842 50.7262 144.671 50.1541C144.499 49.5819 144.257 49.0867 143.944 48.6686C143.647 48.2284 143.296 47.8873 142.889 47.6453C142.483 47.4032 142.046 47.2821 141.577 47.2821H134.85C133.46 47.2821 132.155 46.908 130.936 46.1598C129.717 45.4115 128.647 44.3992 127.725 43.1228C126.819 41.8244 126.1 40.3169 125.569 38.6004C125.038 36.8618 124.772 35.0132 124.772 33.0546Z" stroke="black" stroke-opacity="0.1"/>
<path d="M205.005 66.1972H198.302V28.3341H188.201V18.86H215.083V28.3341H205.005V66.1972Z" stroke="black" stroke-opacity="0.1"/>
<path d="M260.652 28.3341V47.2821H267.379C268.301 47.2821 269.168 47.0401 269.981 46.5559C270.793 46.0497 271.504 45.3675 272.113 44.5093C272.723 43.651 273.199 42.6497 273.543 41.5053C273.902 40.3389 274.082 39.1065 274.082 37.8081C274.082 36.5097 273.902 35.2883 273.543 34.1439C273.199 32.9776 272.723 31.9652 272.113 31.107C271.504 30.2487 270.793 29.5775 269.981 29.0933C269.168 28.5872 268.301 28.3341 267.379 28.3341H260.652ZM260.652 66.1972H253.926V18.86H267.379C268.613 18.86 269.801 19.0911 270.942 19.5533C272.082 19.9934 273.145 20.6316 274.129 21.4679C275.129 22.2821 276.035 23.2725 276.848 24.4388C277.676 25.5832 278.379 26.8596 278.957 28.2681C279.551 29.6765 280.004 31.184 280.317 32.7905C280.645 34.397 280.809 36.0696 280.809 37.8081C280.809 39.4366 280.66 41.0211 280.363 42.5616C280.082 44.1021 279.668 45.5656 279.121 46.952C278.59 48.3385 277.934 49.6149 277.152 50.7813C276.371 51.9476 275.496 52.96 274.527 53.8182L278.254 66.1972H271.106L268.176 56.6571L260.652 56.7232V66.1972Z" stroke="black" stroke-opacity="0.1"/>
<path d="M335.636 66.1972H328.932V51.3755C327.448 50.8473 326.081 50 324.831 48.8336C323.597 47.6673 322.534 46.2808 321.643 44.6743C320.753 43.0458 320.057 41.2522 319.557 39.2936C319.073 37.313 318.831 35.2333 318.831 33.0546V18.86H325.557V33.0546C325.557 34.353 325.729 35.5854 326.073 36.7518C326.432 37.8961 326.917 38.8975 327.526 39.7557C328.136 40.614 328.847 41.2962 329.659 41.8024C330.487 42.2865 331.362 42.5286 332.284 42.5286C333.206 42.5286 334.073 42.2865 334.886 41.8024C335.714 41.2962 336.432 40.614 337.042 39.7557C337.651 38.8975 338.128 37.8961 338.472 36.7518C338.831 35.5854 339.011 34.353 339.011 33.0546V18.86H345.714V33.0546C345.714 35.2333 345.464 37.313 344.964 39.2936C344.479 41.2522 343.792 43.0458 342.901 44.6743C342.011 46.2808 340.948 47.6673 339.714 48.8336C338.479 50 337.12 50.8473 335.636 51.3755V66.1972Z" stroke="black" stroke-opacity="0.1"/>
<path d="M411.673 66.1972H403.517L397.048 50.9133L390.556 66.1972H382.447L392.759 42.5286L382.447 18.86H390.556L397.048 34.1439L403.517 18.86H411.673L401.361 42.5286L411.673 66.1972Z" stroke="black" stroke-opacity="0.1"/>
</g>
<g filter="url(#filter4_d)">
<path d="M78.8984 33.5703V26.8438C78.8984 25.9219 78.7188 25.0547 78.3594 24.2422C78.0156 23.4141 77.5391 22.6953 76.9297 22.0859C76.3203 21.4766 75.6016 21 74.7734 20.6562C73.9609 20.2969 73.0938 20.1172 72.1719 20.1172C71.25 20.1172 70.375 20.2969 69.5469 20.6562C68.7344 21 68.0234 21.4766 67.4141 22.0859C66.8047 22.6953 66.3203 23.4141 65.9609 24.2422C65.6172 25.0547 65.4453 25.9219 65.4453 26.8438V33.5703H78.8984ZM85.625 47H78.8984V40.2734H65.4453V47H58.7422V26.8438C58.7422 24.9844 59.0938 23.2422 59.7969 21.6172C60.5 19.9766 61.4531 18.5469 62.6562 17.3281C63.875 16.1094 65.2969 15.1484 66.9219 14.4453C68.5625 13.7422 70.3125 13.3906 72.1719 13.3906C74.0312 13.3906 75.7734 13.7422 77.3984 14.4453C79.0391 15.1484 80.4688 16.1094 81.6875 17.3281C82.9062 18.5469 83.8672 19.9766 84.5703 21.6172C85.2734 23.2422 85.625 24.9844 85.625 26.8438V47ZM124.772 23.4688C124.772 22.0781 125.038 20.7734 125.569 19.5547C126.1 18.3359 126.819 17.2734 127.725 16.3672C128.647 15.4453 129.717 14.7188 130.936 14.1875C132.155 13.6562 133.46 13.3906 134.85 13.3906H150.272V20.1172H134.85C134.382 20.1172 133.944 20.2031 133.538 20.375C133.132 20.5469 132.772 20.7891 132.46 21.1016C132.163 21.3984 131.928 21.75 131.757 22.1562C131.585 22.5625 131.499 23 131.499 23.4688C131.499 23.9375 131.585 24.3828 131.757 24.8047C131.928 25.2109 132.163 25.5703 132.46 25.8828C132.772 26.1797 133.132 26.4141 133.538 26.5859C133.944 26.7578 134.382 26.8438 134.85 26.8438H141.577C142.967 26.8438 144.272 27.1094 145.491 27.6406C146.725 28.1562 147.796 28.875 148.702 29.7969C149.624 30.7031 150.342 31.7734 150.858 33.0078C151.389 34.2266 151.655 35.5312 151.655 36.9219C151.655 38.3125 151.389 39.6172 150.858 40.8359C150.342 42.0547 149.624 43.125 148.702 44.0469C147.796 44.9531 146.725 45.6719 145.491 46.2031C144.272 46.7344 142.967 47 141.577 47H126.647V40.2734H141.577C142.046 40.2734 142.483 40.1875 142.889 40.0156C143.296 39.8438 143.647 39.6094 143.944 39.3125C144.257 39 144.499 38.6406 144.671 38.2344C144.842 37.8281 144.928 37.3906 144.928 36.9219C144.928 36.4531 144.842 36.0156 144.671 35.6094C144.499 35.2031 144.257 34.8516 143.944 34.5547C143.647 34.2422 143.296 34 142.889 33.8281C142.483 33.6562 142.046 33.5703 141.577 33.5703H134.85C133.46 33.5703 132.155 33.3047 130.936 32.7734C129.717 32.2422 128.647 31.5234 127.725 30.6172C126.819 29.6953 126.1 28.625 125.569 27.4062C125.038 26.1719 124.772 24.8594 124.772 23.4688ZM205.005 47H198.302V20.1172H188.201V13.3906H215.083V20.1172H205.005V47ZM260.652 20.1172V33.5703H267.379C268.301 33.5703 269.168 33.3984 269.981 33.0547C270.793 32.6953 271.504 32.2109 272.113 31.6016C272.723 30.9922 273.199 30.2812 273.543 29.4688C273.902 28.6406 274.082 27.7656 274.082 26.8438C274.082 25.9219 273.902 25.0547 273.543 24.2422C273.199 23.4141 272.723 22.6953 272.113 22.0859C271.504 21.4766 270.793 21 269.981 20.6562C269.168 20.2969 268.301 20.1172 267.379 20.1172H260.652ZM260.652 47H253.926V13.3906H267.379C268.613 13.3906 269.801 13.5547 270.942 13.8828C272.082 14.1953 273.145 14.6484 274.129 15.2422C275.129 15.8203 276.035 16.5234 276.848 17.3516C277.676 18.1641 278.379 19.0703 278.957 20.0703C279.551 21.0703 280.004 22.1406 280.317 23.2812C280.645 24.4219 280.809 25.6094 280.809 26.8438C280.809 28 280.66 29.125 280.363 30.2188C280.082 31.3125 279.668 32.3516 279.121 33.3359C278.59 34.3203 277.934 35.2266 277.152 36.0547C276.371 36.8828 275.496 37.6016 274.527 38.2109L278.254 47H271.106L268.176 40.2266L260.652 40.2734V47ZM335.636 47H328.932V36.4766C327.448 36.1016 326.081 35.5 324.831 34.6719C323.597 33.8438 322.534 32.8594 321.643 31.7188C320.753 30.5625 320.057 29.2891 319.557 27.8984C319.073 26.4922 318.831 25.0156 318.831 23.4688V13.3906H325.557V23.4688C325.557 24.3906 325.729 25.2656 326.073 26.0938C326.432 26.9062 326.917 27.6172 327.526 28.2266C328.136 28.8359 328.847 29.3203 329.659 29.6797C330.487 30.0234 331.362 30.1953 332.284 30.1953C333.206 30.1953 334.073 30.0234 334.886 29.6797C335.714 29.3203 336.432 28.8359 337.042 28.2266C337.651 27.6172 338.128 26.9062 338.472 26.0938C338.831 25.2656 339.011 24.3906 339.011 23.4688V13.3906H345.714V23.4688C345.714 25.0156 345.464 26.4922 344.964 27.8984C344.479 29.2891 343.792 30.5625 342.901 31.7188C342.011 32.8594 340.948 33.8438 339.714 34.6719C338.479 35.5 337.12 36.1016 335.636 36.4766V47ZM411.673 47H403.517L397.048 36.1484L390.556 47H382.447L392.759 30.1953L382.447 13.3906H390.556L397.048 24.2422L403.517 13.3906H411.673L401.361 30.1953L411.673 47Z" fill="white"/>
<path d="M78.8984 33.5703V26.8438C78.8984 25.9219 78.7188 25.0547 78.3594 24.2422C78.0156 23.4141 77.5391 22.6953 76.9297 22.0859C76.3203 21.4766 75.6016 21 74.7734 20.6562C73.9609 20.2969 73.0938 20.1172 72.1719 20.1172C71.25 20.1172 70.375 20.2969 69.5469 20.6562C68.7344 21 68.0234 21.4766 67.4141 22.0859C66.8047 22.6953 66.3203 23.4141 65.9609 24.2422C65.6172 25.0547 65.4453 25.9219 65.4453 26.8438V33.5703H78.8984ZM85.625 47H78.8984V40.2734H65.4453V47H58.7422V26.8438C58.7422 24.9844 59.0938 23.2422 59.7969 21.6172C60.5 19.9766 61.4531 18.5469 62.6562 17.3281C63.875 16.1094 65.2969 15.1484 66.9219 14.4453C68.5625 13.7422 70.3125 13.3906 72.1719 13.3906C74.0312 13.3906 75.7734 13.7422 77.3984 14.4453C79.0391 15.1484 80.4688 16.1094 81.6875 17.3281C82.9062 18.5469 83.8672 19.9766 84.5703 21.6172C85.2734 23.2422 85.625 24.9844 85.625 26.8438V47ZM124.772 23.4688C124.772 22.0781 125.038 20.7734 125.569 19.5547C126.1 18.3359 126.819 17.2734 127.725 16.3672C128.647 15.4453 129.717 14.7188 130.936 14.1875C132.155 13.6562 133.46 13.3906 134.85 13.3906H150.272V20.1172H134.85C134.382 20.1172 133.944 20.2031 133.538 20.375C133.132 20.5469 132.772 20.7891 132.46 21.1016C132.163 21.3984 131.928 21.75 131.757 22.1562C131.585 22.5625 131.499 23 131.499 23.4688C131.499 23.9375 131.585 24.3828 131.757 24.8047C131.928 25.2109 132.163 25.5703 132.46 25.8828C132.772 26.1797 133.132 26.4141 133.538 26.5859C133.944 26.7578 134.382 26.8438 134.85 26.8438H141.577C142.967 26.8438 144.272 27.1094 145.491 27.6406C146.725 28.1562 147.796 28.875 148.702 29.7969C149.624 30.7031 150.342 31.7734 150.858 33.0078C151.389 34.2266 151.655 35.5312 151.655 36.9219C151.655 38.3125 151.389 39.6172 150.858 40.8359C150.342 42.0547 149.624 43.125 148.702 44.0469C147.796 44.9531 146.725 45.6719 145.491 46.2031C144.272 46.7344 142.967 47 141.577 47H126.647V40.2734H141.577C142.046 40.2734 142.483 40.1875 142.889 40.0156C143.296 39.8438 143.647 39.6094 143.944 39.3125C144.257 39 144.499 38.6406 144.671 38.2344C144.842 37.8281 144.928 37.3906 144.928 36.9219C144.928 36.4531 144.842 36.0156 144.671 35.6094C144.499 35.2031 144.257 34.8516 143.944 34.5547C143.647 34.2422 143.296 34 142.889 33.8281C142.483 33.6562 142.046 33.5703 141.577 33.5703H134.85C133.46 33.5703 132.155 33.3047 130.936 32.7734C129.717 32.2422 128.647 31.5234 127.725 30.6172C126.819 29.6953 126.1 28.625 125.569 27.4062C125.038 26.1719 124.772 24.8594 124.772 23.4688ZM205.005 47H198.302V20.1172H188.201V13.3906H215.083V20.1172H205.005V47ZM260.652 20.1172V33.5703H267.379C268.301 33.5703 269.168 33.3984 269.981 33.0547C270.793 32.6953 271.504 32.2109 272.113 31.6016C272.723 30.9922 273.199 30.2812 273.543 29.4688C273.902 28.6406 274.082 27.7656 274.082 26.8438C274.082 25.9219 273.902 25.0547 273.543 24.2422C273.199 23.4141 272.723 22.6953 272.113 22.0859C271.504 21.4766 270.793 21 269.981 20.6562C269.168 20.2969 268.301 20.1172 267.379 20.1172H260.652ZM260.652 47H253.926V13.3906H267.379C268.613 13.3906 269.801 13.5547 270.942 13.8828C272.082 14.1953 273.145 14.6484 274.129 15.2422C275.129 15.8203 276.035 16.5234 276.848 17.3516C277.676 18.1641 278.379 19.0703 278.957 20.0703C279.551 21.0703 280.004 22.1406 280.317 23.2812C280.645 24.4219 280.809 25.6094 280.809 26.8438C280.809 28 280.66 29.125 280.363 30.2188C280.082 31.3125 279.668 32.3516 279.121 33.3359C278.59 34.3203 277.934 35.2266 277.152 36.0547C276.371 36.8828 275.496 37.6016 274.527 38.2109L278.254 47H271.106L268.176 40.2266L260.652 40.2734V47ZM335.636 47H328.932V36.4766C327.448 36.1016 326.081 35.5 324.831 34.6719C323.597 33.8438 322.534 32.8594 321.643 31.7188C320.753 30.5625 320.057 29.2891 319.557 27.8984C319.073 26.4922 318.831 25.0156 318.831 23.4688V13.3906H325.557V23.4688C325.557 24.3906 325.729 25.2656 326.073 26.0938C326.432 26.9062 326.917 27.6172 327.526 28.2266C328.136 28.8359 328.847 29.3203 329.659 29.6797C330.487 30.0234 331.362 30.1953 332.284 30.1953C333.206 30.1953 334.073 30.0234 334.886 29.6797C335.714 29.3203 336.432 28.8359 337.042 28.2266C337.651 27.6172 338.128 26.9062 338.472 26.0938C338.831 25.2656 339.011 24.3906 339.011 23.4688V13.3906H345.714V23.4688C345.714 25.0156 345.464 26.4922 344.964 27.8984C344.479 29.2891 343.792 30.5625 342.901 31.7188C342.011 32.8594 340.948 33.8438 339.714 34.6719C338.479 35.5 337.12 36.1016 335.636 36.4766V47ZM411.673 47H403.517L397.048 36.1484L390.556 47H382.447L392.759 30.1953L382.447 13.3906H390.556L397.048 24.2422L403.517 13.3906H411.673L401.361 30.1953L411.673 47Z" fill="url(#paint0_linear)"/>
</g>
<g filter="url(#filter5_d)">
<path d="M78.8984 62.7751V53.3011C78.8984 52.0027 78.7188 50.7813 78.3594 49.6369C78.0156 48.4705 77.5391 47.4582 76.9297 46.5999C76.3203 45.7416 75.6016 45.0704 74.7734 44.5863C73.9609 44.0801 73.0938 43.827 72.1719 43.827C71.25 43.827 70.375 44.0801 69.5469 44.5863C68.7344 45.0704 68.0234 45.7416 67.4141 46.5999C66.8047 47.4582 66.3203 48.4705 65.9609 49.6369C65.6172 50.7813 65.4453 52.0027 65.4453 53.3011V62.7751H78.8984ZM85.625 81.6902H78.8984V72.2161H65.4453V81.6902H58.7422V53.3011C58.7422 50.6822 59.0938 48.2284 59.7969 45.9397C60.5 43.629 61.4531 41.6153 62.6562 39.8988C63.875 38.1822 65.2969 36.8288 66.9219 35.8385C68.5625 34.8482 70.3125 34.353 72.1719 34.353C74.0312 34.353 75.7734 34.8482 77.3984 35.8385C79.0391 36.8288 80.4688 38.1822 81.6875 39.8988C82.9062 41.6153 83.8672 43.629 84.5703 45.9397C85.2734 48.2284 85.625 50.6822 85.625 53.3011V81.6902Z" stroke="black" stroke-opacity="0.05"/>
<path d="M124.772 48.5475C124.772 46.5889 125.038 44.7513 125.569 43.0348C126.1 41.3182 126.819 39.8218 127.725 38.5453C128.647 37.2469 129.717 36.2236 130.936 35.4754C132.155 34.7271 133.46 34.353 134.85 34.353H150.272V43.827H134.85C134.382 43.827 133.944 43.9481 133.538 44.1902C133.132 44.4322 132.772 44.7733 132.46 45.2135C132.163 45.6316 131.928 46.1268 131.757 46.699C131.585 47.2711 131.499 47.8873 131.499 48.5475C131.499 49.2078 131.585 49.835 131.757 50.4291C131.928 51.0013 132.163 51.5075 132.46 51.9476C132.772 52.3658 133.132 52.6959 133.538 52.938C133.944 53.18 134.382 53.3011 134.85 53.3011H141.577C142.967 53.3011 144.272 53.6752 145.491 54.4234C146.725 55.1497 147.796 56.162 148.702 57.4604C149.624 58.7368 150.342 60.2443 150.858 61.9828C151.389 63.6994 151.655 65.537 151.655 67.4956C151.655 69.4542 151.389 71.2918 150.858 73.0084C150.342 74.7249 149.624 76.2324 148.702 77.5308C147.796 78.8072 146.725 79.8196 145.491 80.5678C144.272 81.316 142.967 81.6902 141.577 81.6902H126.647V72.2161H141.577C142.046 72.2161 142.483 72.0951 142.889 71.853C143.296 71.6109 143.647 71.2808 143.944 70.8627C144.257 70.4225 144.499 69.9164 144.671 69.3442C144.842 68.772 144.928 68.1558 144.928 67.4956C144.928 66.8354 144.842 66.2192 144.671 65.647C144.499 65.0748 144.257 64.5797 143.944 64.1615C143.647 63.7214 143.296 63.3803 142.889 63.1382C142.483 62.8961 142.046 62.7751 141.577 62.7751H134.85C133.46 62.7751 132.155 62.401 130.936 61.6527C129.717 60.9045 128.647 59.8922 127.725 58.6158C126.819 57.3174 126.1 55.8099 125.569 54.0933C125.038 52.3548 124.772 50.5062 124.772 48.5475Z" stroke="black" stroke-opacity="0.05"/>
<path d="M205.005 81.6902H198.302V43.827H188.201V34.353H215.083V43.827H205.005V81.6902Z" stroke="black" stroke-opacity="0.05"/>
<path d="M260.652 43.827V62.7751H267.379C268.301 62.7751 269.168 62.533 269.981 62.0489C270.793 61.5427 271.504 60.8605 272.113 60.0022C272.723 59.1439 273.199 58.1426 273.543 56.9983C273.902 55.8319 274.082 54.5995 274.082 53.3011C274.082 52.0027 273.902 50.7813 273.543 49.6369C273.199 48.4705 272.723 47.4582 272.113 46.5999C271.504 45.7416 270.793 45.0704 269.981 44.5863C269.168 44.0801 268.301 43.827 267.379 43.827H260.652ZM260.652 81.6902H253.926V34.353H267.379C268.613 34.353 269.801 34.5841 270.942 35.0462C272.082 35.4864 273.145 36.1246 274.129 36.9608C275.129 37.7751 276.035 38.7654 276.848 39.9318C277.676 41.0762 278.379 42.3526 278.957 43.761C279.551 45.1695 280.004 46.6769 280.317 48.2835C280.645 49.89 280.809 51.5625 280.809 53.3011C280.809 54.9296 280.66 56.5141 280.363 58.0546C280.082 59.5951 279.668 61.0586 279.121 62.445C278.59 63.8314 277.934 65.1078 277.152 66.2742C276.371 67.4406 275.496 68.4529 274.527 69.3112L278.254 81.6902H271.106L268.176 72.1501L260.652 72.2161V81.6902Z" stroke="black" stroke-opacity="0.05"/>
<path d="M335.636 81.6902H328.932V66.8684C327.448 66.3402 326.081 65.493 324.831 64.3266C323.597 63.1602 322.534 61.7738 321.643 60.1673C320.753 58.5387 320.057 56.7452 319.557 54.7865C319.073 52.8059 318.831 50.7262 318.831 48.5475V34.353H325.557V48.5475C325.557 49.846 325.729 51.0784 326.073 52.2447C326.432 53.3891 326.917 54.3904 327.526 55.2487C328.136 56.107 328.847 56.7892 329.659 57.2953C330.487 57.7795 331.362 58.0216 332.284 58.0216C333.206 58.0216 334.073 57.7795 334.886 57.2953C335.714 56.7892 336.432 56.107 337.042 55.2487C337.651 54.3904 338.128 53.3891 338.472 52.2447C338.831 51.0784 339.011 49.846 339.011 48.5475V34.353H345.714V48.5475C345.714 50.7262 345.464 52.8059 344.964 54.7865C344.479 56.7452 343.792 58.5387 342.901 60.1673C342.011 61.7738 340.948 63.1602 339.714 64.3266C338.479 65.493 337.12 66.3402 335.636 66.8684V81.6902Z" stroke="black" stroke-opacity="0.05"/>
<path d="M411.673 81.6902H403.517L397.048 66.4063L390.556 81.6902H382.447L392.759 58.0216L382.447 34.353H390.556L397.048 49.6369L403.517 34.353H411.673L401.361 58.0216L411.673 81.6902Z" stroke="black" stroke-opacity="0.05"/>
<path d="M78.8984 54.3244V44.8504C78.8984 43.5519 78.7188 42.3306 78.3594 41.1862C78.0156 40.0198 77.5391 39.0075 76.9297 38.1492C76.3203 37.2909 75.6016 36.6197 74.7734 36.1356C73.9609 35.6294 73.0938 35.3763 72.1719 35.3763C71.25 35.3763 70.375 35.6294 69.5469 36.1356C68.7344 36.6197 68.0234 37.2909 67.4141 38.1492C66.8047 39.0075 66.3203 40.0198 65.9609 41.1862C65.6172 42.3306 65.4453 43.5519 65.4453 44.8504V54.3244H78.8984ZM85.625 73.2394H78.8984V63.7654H65.4453V73.2394H58.7422V44.8504C58.7422 42.2315 59.0938 39.7777 59.7969 37.489C60.5 35.1783 61.4531 33.1646 62.6562 31.4481C63.875 29.7315 65.2969 28.3781 66.9219 27.3878C68.5625 26.3975 70.3125 25.9023 72.1719 25.9023C74.0312 25.9023 75.7734 26.3975 77.3984 27.3878C79.0391 28.3781 80.4688 29.7315 81.6875 31.4481C82.9062 33.1646 83.8672 35.1783 84.5703 37.489C85.2734 39.7777 85.625 42.2315 85.625 44.8504V73.2394Z" stroke="black" stroke-opacity="0.05"/>
<path d="M124.772 40.0968C124.772 38.1382 125.038 36.3006 125.569 34.5841C126.1 32.8675 126.819 31.3711 127.725 30.0946C128.647 28.7962 129.717 27.7729 130.936 27.0247C132.155 26.2764 133.46 25.9023 134.85 25.9023H150.272V35.3763H134.85C134.382 35.3763 133.944 35.4974 133.538 35.7394C133.132 35.9815 132.772 36.3226 132.46 36.7628C132.163 37.1809 131.928 37.6761 131.757 38.2483C131.585 38.8204 131.499 39.4366 131.499 40.0968C131.499 40.7571 131.585 41.3843 131.757 41.9784C131.928 42.5506 132.163 43.0568 132.46 43.4969C132.772 43.9151 133.132 44.2452 133.538 44.4872C133.944 44.7293 134.382 44.8504 134.85 44.8504H141.577C142.967 44.8504 144.272 45.2245 145.491 45.9727C146.725 46.699 147.796 47.7113 148.702 49.0097C149.624 50.2861 150.342 51.7936 150.858 53.5321C151.389 55.2487 151.655 57.0863 151.655 59.0449C151.655 61.0035 151.389 62.8411 150.858 64.5577C150.342 66.2742 149.624 67.7817 148.702 69.0801C147.796 70.3565 146.725 71.3688 145.491 72.1171C144.272 72.8653 142.967 73.2394 141.577 73.2394H126.647V63.7654H141.577C142.046 63.7654 142.483 63.6444 142.889 63.4023C143.296 63.1602 143.647 62.8301 143.944 62.412C144.257 61.9718 144.499 61.4657 144.671 60.8935C144.842 60.3213 144.928 59.7051 144.928 59.0449C144.928 58.3847 144.842 57.7685 144.671 57.1963C144.499 56.6241 144.257 56.129 143.944 55.7108C143.647 55.2707 143.296 54.9296 142.889 54.6875C142.483 54.4454 142.046 54.3244 141.577 54.3244H134.85C133.46 54.3244 132.155 53.9503 130.936 53.202C129.717 52.4538 128.647 51.4415 127.725 50.1651C126.819 48.8666 126.1 47.3592 125.569 45.6426C125.038 43.9041 124.772 42.0555 124.772 40.0968Z" stroke="black" stroke-opacity="0.05"/>
<path d="M205.005 73.2394H198.302V35.3763H188.201V25.9023H215.083V35.3763H205.005V73.2394Z" stroke="black" stroke-opacity="0.05"/>
<path d="M260.652 35.3763V54.3244H267.379C268.301 54.3244 269.168 54.0823 269.981 53.5982C270.793 53.092 271.504 52.4098 272.113 51.5515C272.723 50.6932 273.199 49.6919 273.543 48.5475C273.902 47.3812 274.082 46.1488 274.082 44.8504C274.082 43.5519 273.902 42.3306 273.543 41.1862C273.199 40.0198 272.723 39.0075 272.113 38.1492C271.504 37.2909 270.793 36.6197 269.981 36.1356C269.168 35.6294 268.301 35.3763 267.379 35.3763H260.652ZM260.652 73.2394H253.926V25.9023H267.379C268.613 25.9023 269.801 26.1334 270.942 26.5955C272.082 27.0357 273.145 27.6739 274.129 28.5101C275.129 29.3244 276.035 30.3147 276.848 31.4811C277.676 32.6255 278.379 33.9019 278.957 35.3103C279.551 36.7188 280.004 38.2262 280.317 39.8328C280.645 41.4393 280.809 43.1118 280.809 44.8504C280.809 46.4789 280.66 48.0634 280.363 49.6039C280.082 51.1444 279.668 52.6078 279.121 53.9943C278.59 55.3807 277.934 56.6571 277.152 57.8235C276.371 58.9899 275.496 60.0022 274.527 60.8605L278.254 73.2394H271.106L268.176 63.6994L260.652 63.7654V73.2394Z" stroke="black" stroke-opacity="0.05"/>
<path d="M335.636 73.2394H328.932V58.4177C327.448 57.8895 326.081 57.0423 324.831 55.8759C323.597 54.7095 322.534 53.3231 321.643 51.7166C320.753 50.088 320.057 48.2945 319.557 46.3358C319.073 44.3552 318.831 42.2755 318.831 40.0968V25.9023H325.557V40.0968C325.557 41.3953 325.729 42.6277 326.073 43.794C326.432 44.9384 326.917 45.9397 327.526 46.798C328.136 47.6563 328.847 48.3385 329.659 48.8446C330.487 49.3288 331.362 49.5709 332.284 49.5709C333.206 49.5709 334.073 49.3288 334.886 48.8446C335.714 48.3385 336.432 47.6563 337.042 46.798C337.651 45.9397 338.128 44.9384 338.472 43.794C338.831 42.6277 339.011 41.3953 339.011 40.0968V25.9023H345.714V40.0968C345.714 42.2755 345.464 44.3552 344.964 46.3358C344.479 48.2945 343.792 50.088 342.901 51.7166C342.011 53.3231 340.948 54.7095 339.714 55.8759C338.479 57.0423 337.12 57.8895 335.636 58.4177V73.2394Z" stroke="black" stroke-opacity="0.05"/>
<path d="M411.673 73.2394H403.517L397.048 57.9556L390.556 73.2394H382.447L392.759 49.5709L382.447 25.9023H390.556L397.048 41.1862L403.517 25.9023H411.673L401.361 49.5709L411.673 73.2394Z" stroke="black" stroke-opacity="0.05"/>
<path d="M78.8984 47.2821V37.8081C78.8984 36.5097 78.7188 35.2883 78.3594 34.1439C78.0156 32.9776 77.5391 31.9652 76.9297 31.107C76.3203 30.2487 75.6016 29.5775 74.7734 29.0933C73.9609 28.5872 73.0938 28.3341 72.1719 28.3341C71.25 28.3341 70.375 28.5872 69.5469 29.0933C68.7344 29.5775 68.0234 30.2487 67.4141 31.107C66.8047 31.9652 66.3203 32.9776 65.9609 34.1439C65.6172 35.2883 65.4453 36.5097 65.4453 37.8081V47.2821H78.8984ZM85.625 66.1972H78.8984V56.7232H65.4453V66.1972H58.7422V37.8081C58.7422 35.1893 59.0938 32.7355 59.7969 30.4468C60.5 28.136 61.4531 26.1224 62.6562 24.4058C63.875 22.6893 65.2969 21.3358 66.9219 20.3455C68.5625 19.3552 70.3125 18.86 72.1719 18.86C74.0312 18.86 75.7734 19.3552 77.3984 20.3455C79.0391 21.3358 80.4688 22.6893 81.6875 24.4058C82.9062 26.1224 83.8672 28.136 84.5703 30.4468C85.2734 32.7355 85.625 35.1893 85.625 37.8081V66.1972Z" stroke="black" stroke-opacity="0.05"/>
<path d="M124.772 33.0546C124.772 31.096 125.038 29.2584 125.569 27.5418C126.1 25.8253 126.819 24.3288 127.725 23.0524C128.647 21.754 129.717 20.7306 130.936 19.9824C132.155 19.2342 133.46 18.86 134.85 18.86H150.272V28.3341H134.85C134.382 28.3341 133.944 28.4551 133.538 28.6972C133.132 28.9393 132.772 29.2804 132.46 29.7205C132.163 30.1387 131.928 30.6338 131.757 31.206C131.585 31.7782 131.499 32.3944 131.499 33.0546C131.499 33.7148 131.585 34.342 131.757 34.9362C131.928 35.5084 132.163 36.0145 132.46 36.4547C132.772 36.8728 133.132 37.2029 133.538 37.445C133.944 37.6871 134.382 37.8081 134.85 37.8081H141.577C142.967 37.8081 144.272 38.1822 145.491 38.9305C146.725 39.6567 147.796 40.669 148.702 41.9674C149.624 43.2438 150.342 44.7513 150.858 46.4899C151.389 48.2064 151.655 50.044 151.655 52.0027C151.655 53.9613 151.389 55.7989 150.858 57.5154C150.342 59.232 149.624 60.7394 148.702 62.0379C147.796 63.3143 146.725 64.3266 145.491 65.0748C144.272 65.8231 142.967 66.1972 141.577 66.1972H126.647V56.7232H141.577C142.046 56.7232 142.483 56.6021 142.889 56.36C143.296 56.118 143.647 55.7879 143.944 55.3697C144.257 54.9296 144.499 54.4234 144.671 53.8512C144.842 53.2791 144.928 52.6629 144.928 52.0027C144.928 51.3424 144.842 50.7262 144.671 50.1541C144.499 49.5819 144.257 49.0867 143.944 48.6686C143.647 48.2284 143.296 47.8873 142.889 47.6453C142.483 47.4032 142.046 47.2821 141.577 47.2821H134.85C133.46 47.2821 132.155 46.908 130.936 46.1598C129.717 45.4115 128.647 44.3992 127.725 43.1228C126.819 41.8244 126.1 40.3169 125.569 38.6004C125.038 36.8618 124.772 35.0132 124.772 33.0546Z" stroke="black" stroke-opacity="0.05"/>
<path d="M205.005 66.1972H198.302V28.3341H188.201V18.86H215.083V28.3341H205.005V66.1972Z" stroke="black" stroke-opacity="0.05"/>
<path d="M260.652 28.3341V47.2821H267.379C268.301 47.2821 269.168 47.0401 269.981 46.5559C270.793 46.0497 271.504 45.3675 272.113 44.5093C272.723 43.651 273.199 42.6497 273.543 41.5053C273.902 40.3389 274.082 39.1065 274.082 37.8081C274.082 36.5097 273.902 35.2883 273.543 34.1439C273.199 32.9776 272.723 31.9652 272.113 31.107C271.504 30.2487 270.793 29.5775 269.981 29.0933C269.168 28.5872 268.301 28.3341 267.379 28.3341H260.652ZM260.652 66.1972H253.926V18.86H267.379C268.613 18.86 269.801 19.0911 270.942 19.5533C272.082 19.9934 273.145 20.6316 274.129 21.4679C275.129 22.2821 276.035 23.2725 276.848 24.4388C277.676 25.5832 278.379 26.8596 278.957 28.2681C279.551 29.6765 280.004 31.184 280.317 32.7905C280.645 34.397 280.809 36.0696 280.809 37.8081C280.809 39.4366 280.66 41.0211 280.363 42.5616C280.082 44.1021 279.668 45.5656 279.121 46.952C278.59 48.3385 277.934 49.6149 277.152 50.7813C276.371 51.9476 275.496 52.96 274.527 53.8182L278.254 66.1972H271.106L268.176 56.6571L260.652 56.7232V66.1972Z" stroke="black" stroke-opacity="0.05"/>
<path d="M335.636 66.1972H328.932V51.3755C327.448 50.8473 326.081 50 324.831 48.8336C323.597 47.6673 322.534 46.2808 321.643 44.6743C320.753 43.0458 320.057 41.2522 319.557 39.2936C319.073 37.313 318.831 35.2333 318.831 33.0546V18.86H325.557V33.0546C325.557 34.353 325.729 35.5854 326.073 36.7518C326.432 37.8961 326.917 38.8975 327.526 39.7557C328.136 40.614 328.847 41.2962 329.659 41.8024C330.487 42.2865 331.362 42.5286 332.284 42.5286C333.206 42.5286 334.073 42.2865 334.886 41.8024C335.714 41.2962 336.432 40.614 337.042 39.7557C337.651 38.8975 338.128 37.8961 338.472 36.7518C338.831 35.5854 339.011 34.353 339.011 33.0546V18.86H345.714V33.0546C345.714 35.2333 345.464 37.313 344.964 39.2936C344.479 41.2522 343.792 43.0458 342.901 44.6743C342.011 46.2808 340.948 47.6673 339.714 48.8336C338.479 50 337.12 50.8473 335.636 51.3755V66.1972Z" stroke="black" stroke-opacity="0.05"/>
<path d="M411.673 66.1972H403.517L397.048 50.9133L390.556 66.1972H382.447L392.759 42.5286L382.447 18.86H390.556L397.048 34.1439L403.517 18.86H411.673L401.361 42.5286L411.673 66.1972Z" stroke="black" stroke-opacity="0.05"/>
</g>
<g style="mix-blend-mode:soft-light">
<path d="M78.8984 33.5703V26.8438C78.8984 25.9219 78.7188 25.0547 78.3594 24.2422C78.0156 23.4141 77.5391 22.6953 76.9297 22.0859C76.3203 21.4766 75.6016 21 74.7734 20.6562C73.9609 20.2969 73.0938 20.1172 72.1719 20.1172C71.25 20.1172 70.375 20.2969 69.5469 20.6562C68.7344 21 68.0234 21.4766 67.4141 22.0859C66.8047 22.6953 66.3203 23.4141 65.9609 24.2422C65.6172 25.0547 65.4453 25.9219 65.4453 26.8438V33.5703H78.8984ZM85.625 47H78.8984V40.2734H65.4453V47H58.7422V26.8438C58.7422 24.9844 59.0938 23.2422 59.7969 21.6172C60.5 19.9766 61.4531 18.5469 62.6562 17.3281C63.875 16.1094 65.2969 15.1484 66.9219 14.4453C68.5625 13.7422 70.3125 13.3906 72.1719 13.3906C74.0312 13.3906 75.7734 13.7422 77.3984 14.4453C79.0391 15.1484 80.4688 16.1094 81.6875 17.3281C82.9062 18.5469 83.8672 19.9766 84.5703 21.6172C85.2734 23.2422 85.625 24.9844 85.625 26.8438V47ZM124.772 23.4688C124.772 22.0781 125.038 20.7734 125.569 19.5547C126.1 18.3359 126.819 17.2734 127.725 16.3672C128.647 15.4453 129.717 14.7188 130.936 14.1875C132.155 13.6562 133.46 13.3906 134.85 13.3906H150.272V20.1172H134.85C134.382 20.1172 133.944 20.2031 133.538 20.375C133.132 20.5469 132.772 20.7891 132.46 21.1016C132.163 21.3984 131.928 21.75 131.757 22.1562C131.585 22.5625 131.499 23 131.499 23.4688C131.499 23.9375 131.585 24.3828 131.757 24.8047C131.928 25.2109 132.163 25.5703 132.46 25.8828C132.772 26.1797 133.132 26.4141 133.538 26.5859C133.944 26.7578 134.382 26.8438 134.85 26.8438H141.577C142.967 26.8438 144.272 27.1094 145.491 27.6406C146.725 28.1562 147.796 28.875 148.702 29.7969C149.624 30.7031 150.342 31.7734 150.858 33.0078C151.389 34.2266 151.655 35.5312 151.655 36.9219C151.655 38.3125 151.389 39.6172 150.858 40.8359C150.342 42.0547 149.624 43.125 148.702 44.0469C147.796 44.9531 146.725 45.6719 145.491 46.2031C144.272 46.7344 142.967 47 141.577 47H126.647V40.2734H141.577C142.046 40.2734 142.483 40.1875 142.889 40.0156C143.296 39.8438 143.647 39.6094 143.944 39.3125C144.257 39 144.499 38.6406 144.671 38.2344C144.842 37.8281 144.928 37.3906 144.928 36.9219C144.928 36.4531 144.842 36.0156 144.671 35.6094C144.499 35.2031 144.257 34.8516 143.944 34.5547C143.647 34.2422 143.296 34 142.889 33.8281C142.483 33.6562 142.046 33.5703 141.577 33.5703H134.85C133.46 33.5703 132.155 33.3047 130.936 32.7734C129.717 32.2422 128.647 31.5234 127.725 30.6172C126.819 29.6953 126.1 28.625 125.569 27.4062C125.038 26.1719 124.772 24.8594 124.772 23.4688ZM205.005 47H198.302V20.1172H188.201V13.3906H215.083V20.1172H205.005V47ZM260.652 20.1172V33.5703H267.379C268.301 33.5703 269.168 33.3984 269.981 33.0547C270.793 32.6953 271.504 32.2109 272.113 31.6016C272.723 30.9922 273.199 30.2812 273.543 29.4688C273.902 28.6406 274.082 27.7656 274.082 26.8438C274.082 25.9219 273.902 25.0547 273.543 24.2422C273.199 23.4141 272.723 22.6953 272.113 22.0859C271.504 21.4766 270.793 21 269.981 20.6562C269.168 20.2969 268.301 20.1172 267.379 20.1172H260.652ZM260.652 47H253.926V13.3906H267.379C268.613 13.3906 269.801 13.5547 270.942 13.8828C272.082 14.1953 273.145 14.6484 274.129 15.2422C275.129 15.8203 276.035 16.5234 276.848 17.3516C277.676 18.1641 278.379 19.0703 278.957 20.0703C279.551 21.0703 280.004 22.1406 280.317 23.2812C280.645 24.4219 280.809 25.6094 280.809 26.8438C280.809 28 280.66 29.125 280.363 30.2188C280.082 31.3125 279.668 32.3516 279.121 33.3359C278.59 34.3203 277.934 35.2266 277.152 36.0547C276.371 36.8828 275.496 37.6016 274.527 38.2109L278.254 47H271.106L268.176 40.2266L260.652 40.2734V47ZM335.636 47H328.932V36.4766C327.448 36.1016 326.081 35.5 324.831 34.6719C323.597 33.8438 322.534 32.8594 321.643 31.7188C320.753 30.5625 320.057 29.2891 319.557 27.8984C319.073 26.4922 318.831 25.0156 318.831 23.4688V13.3906H325.557V23.4688C325.557 24.3906 325.729 25.2656 326.073 26.0938C326.432 26.9062 326.917 27.6172 327.526 28.2266C328.136 28.8359 328.847 29.3203 329.659 29.6797C330.487 30.0234 331.362 30.1953 332.284 30.1953C333.206 30.1953 334.073 30.0234 334.886 29.6797C335.714 29.3203 336.432 28.8359 337.042 28.2266C337.651 27.6172 338.128 26.9062 338.472 26.0938C338.831 25.2656 339.011 24.3906 339.011 23.4688V13.3906H345.714V23.4688C345.714 25.0156 345.464 26.4922 344.964 27.8984C344.479 29.2891 343.792 30.5625 342.901 31.7188C342.011 32.8594 340.948 33.8438 339.714 34.6719C338.479 35.5 337.12 36.1016 335.636 36.4766V47ZM411.673 47H403.517L397.048 36.1484L390.556 47H382.447L392.759 30.1953L382.447 13.3906H390.556L397.048 24.2422L403.517 13.3906H411.673L401.361 30.1953L411.673 47Z" fill="white" fill-opacity="0.8"/>
<path d="M78.8984 33.5703V34.5703H79.8984V33.5703H78.8984ZM78.3594 24.2422L77.4358 24.6256L77.4402 24.6362L77.4448 24.6467L78.3594 24.2422ZM74.7734 20.6562L74.3689 21.5708L74.3794 21.5754L74.3901 21.5798L74.7734 20.6562ZM69.5469 20.6562L69.9365 21.5773L69.945 21.5736L69.5469 20.6562ZM65.9609 24.2422L65.0436 23.8441L65.04 23.8525L65.9609 24.2422ZM65.4453 33.5703H64.4453V34.5703H65.4453V33.5703ZM85.625 47V48H86.625V47H85.625ZM78.8984 47H77.8984V48H78.8984V47ZM78.8984 40.2734H79.8984V39.2734H78.8984V40.2734ZM65.4453 40.2734V39.2734H64.4453V40.2734H65.4453ZM65.4453 47V48H66.4453V47H65.4453ZM58.7422 47H57.7422V48H58.7422V47ZM59.7969 21.6172L60.7147 22.0143L60.716 22.0111L59.7969 21.6172ZM62.6562 17.3281L61.9491 16.621L61.9446 16.6256L62.6562 17.3281ZM66.9219 14.4453L66.528 13.5262L66.5248 13.5275L66.9219 14.4453ZM77.3984 14.4453L77.0013 15.3631L77.0045 15.3645L77.3984 14.4453ZM84.5703 21.6172L83.6512 22.0111L83.6525 22.0143L84.5703 21.6172ZM79.8984 33.5703V26.8438H77.8984V33.5703H79.8984ZM79.8984 26.8438C79.8984 25.7879 79.6918 24.7824 79.2739 23.8377L77.4448 24.6467C77.7457 25.327 77.8984 26.0558 77.8984 26.8438H79.8984ZM79.283 23.8588C78.891 22.9146 78.3426 22.0846 77.6368 21.3788L76.2226 22.793C76.7355 23.306 77.1402 23.9135 77.4358 24.6256L79.283 23.8588ZM77.6368 21.3788C76.931 20.673 76.101 20.1246 75.1568 19.7327L74.3901 21.5798C75.1021 21.8754 75.7096 22.2801 76.2226 22.793L77.6368 21.3788ZM75.1779 19.7417C74.2332 19.3239 73.2277 19.1172 72.1719 19.1172V21.1172C72.9598 21.1172 73.6887 21.2699 74.3689 21.5708L75.1779 19.7417ZM72.1719 19.1172C71.116 19.1172 70.1053 19.3238 69.1488 19.7389L69.945 21.5736C70.6447 21.2699 71.384 21.1172 72.1719 21.1172V19.1172ZM69.1572 19.7353C68.229 20.128 67.4096 20.6762 66.707 21.3788L68.1212 22.793C68.6373 22.2769 69.2397 21.872 69.9365 21.5772L69.1572 19.7353ZM66.707 21.3788C66.0045 22.0813 65.4506 22.9062 65.0436 23.8441L66.8783 24.6403C67.19 23.9219 67.6049 23.3094 68.1212 22.793L66.707 21.3788ZM65.04 23.8525C64.6417 24.7939 64.4453 25.7941 64.4453 26.8438H66.4453C66.4453 26.0496 66.5926 25.3155 66.8819 24.6318L65.04 23.8525ZM64.4453 26.8438V33.5703H66.4453V26.8438H64.4453ZM65.4453 34.5703H78.8984V32.5703H65.4453V34.5703ZM85.625 46H78.8984V48H85.625V46ZM79.8984 47V40.2734H77.8984V47H79.8984ZM78.8984 39.2734H65.4453V41.2734H78.8984V39.2734ZM64.4453 40.2734V47H66.4453V40.2734H64.4453ZM65.4453 46H58.7422V48H65.4453V46ZM59.7422 47V26.8438H57.7422V47H59.7422ZM59.7422 26.8438C59.7422 25.114 60.0685 23.5077 60.7146 22.0143L58.8791 21.2201C58.119 22.9767 57.7422 24.8548 57.7422 26.8438H59.7422ZM60.716 22.0111C61.372 20.4805 62.2563 19.1567 63.3679 18.0307L61.9446 16.6256C60.6499 17.9371 59.628 19.4726 58.8777 21.2233L60.716 22.0111ZM63.3634 18.0352C64.4905 16.9081 65.8065 16.0175 67.319 15.3631L66.5248 13.5275C64.7873 14.2793 63.2595 15.3107 61.9491 16.621L63.3634 18.0352ZM67.3158 15.3645C68.8268 14.7169 70.4422 14.3906 72.1719 14.3906V12.3906C70.1828 12.3906 68.2982 12.7675 66.528 13.5262L67.3158 15.3645ZM72.1719 14.3906C73.9016 14.3906 75.5079 14.7169 77.0013 15.3631L77.7955 13.5275C76.0389 12.7675 74.1609 12.3906 72.1719 12.3906V14.3906ZM77.0045 15.3645C78.5325 16.0193 79.8548 16.9096 80.9804 18.0352L82.3946 16.621C81.0827 15.3091 79.5457 14.2776 77.7924 13.5262L77.0045 15.3645ZM80.9804 18.0352C82.106 19.1608 82.9963 20.4832 83.6512 22.0111L85.4895 21.2233C84.738 19.47 83.7065 17.9329 82.3946 16.621L80.9804 18.0352ZM83.6525 22.0143C84.2987 23.5077 84.625 25.114 84.625 26.8438H86.625C86.625 24.8548 86.2482 22.9767 85.4881 21.2201L83.6525 22.0143ZM84.625 26.8438V47H86.625V26.8438H84.625ZM150.272 13.3906H151.272V12.3906H150.272V13.3906ZM150.272 20.1172V21.1172H151.272V20.1172H150.272ZM131.757 24.8047L130.83 25.182L130.836 25.1943L131.757 24.8047ZM132.46 25.8828L131.735 26.5716L131.752 26.5902L131.771 26.6078L132.46 25.8828ZM145.491 27.6406L145.091 28.5573L145.098 28.5604L145.105 28.5634L145.491 27.6406ZM148.702 29.7969L147.989 30.4979L147.995 30.504L148.001 30.51L148.702 29.7969ZM150.858 33.0078L149.935 33.3933L149.938 33.4004L149.941 33.4074L150.858 33.0078ZM150.858 40.8359L149.941 40.4363L149.937 40.4463L150.858 40.8359ZM145.491 46.2031L145.096 45.2846L145.091 45.2864L145.491 46.2031ZM126.647 47H125.647V48H126.647V47ZM126.647 40.2734V39.2734H125.647V40.2734H126.647ZM143.944 34.5547L143.219 35.2434L143.237 35.262L143.255 35.2797L143.944 34.5547ZM127.725 30.6172L127.012 31.3182L127.018 31.3243L127.024 31.3303L127.725 30.6172ZM125.569 27.4062L124.651 27.8016L124.652 27.8058L125.569 27.4062ZM125.772 23.4688C125.772 22.2092 126.012 21.0412 126.486 19.9543L124.652 19.1551C124.064 20.5057 123.772 21.9471 123.772 23.4688H125.772ZM126.486 19.9543C126.969 18.8459 127.618 17.8888 128.432 17.0743L127.018 15.6601C126.02 16.6581 125.232 17.826 124.652 19.1551L126.486 19.9543ZM128.432 17.0743C129.264 16.2427 130.229 15.5865 131.336 15.1042L130.537 13.2708C129.206 13.851 128.03 14.6479 127.018 15.6601L128.432 17.0743ZM131.336 15.1042C132.423 14.6304 133.591 14.3906 134.85 14.3906V12.3906C133.329 12.3906 131.887 12.6821 130.537 13.2708L131.336 15.1042ZM134.85 14.3906H150.272V12.3906H134.85V14.3906ZM149.272 13.3906V20.1172H151.272V13.3906H149.272ZM150.272 19.1172H134.85V21.1172H150.272V19.1172ZM134.85 19.1172C134.256 19.1172 133.685 19.2268 133.148 19.454L133.927 21.296C134.203 21.1795 134.507 21.1172 134.85 21.1172V19.1172ZM133.148 19.454C132.623 19.6762 132.156 19.9911 131.753 20.3945L133.167 21.8087C133.388 21.5871 133.64 21.4176 133.927 21.296L133.148 19.454ZM131.753 20.3945C131.36 20.787 131.055 21.2479 130.836 21.7666L132.678 22.5459C132.802 22.2521 132.966 22.0099 133.167 21.8087L131.753 20.3945ZM130.836 21.7666C130.608 22.3037 130.499 22.8746 130.499 23.4688H132.499C132.499 23.1254 132.561 22.8213 132.678 22.5459L130.836 21.7666ZM130.499 23.4688C130.499 24.063 130.608 24.6368 130.83 25.182L132.683 24.4274C132.561 24.1288 132.499 23.812 132.499 23.4688H130.499ZM130.836 25.1943C131.053 25.7086 131.353 26.1699 131.735 26.5716L133.185 25.1941C132.973 24.9707 132.804 24.7133 132.678 24.415L130.836 25.1943ZM131.771 26.6078C132.173 26.9894 132.634 27.2893 133.148 27.5069L133.927 25.665C133.629 25.5388 133.372 25.37 133.148 25.1578L131.771 26.6078ZM133.148 27.5069C133.685 27.7342 134.256 27.8438 134.85 27.8438V25.8438C134.507 25.8438 134.203 25.7815 133.927 25.665L133.148 27.5069ZM134.85 27.8438H141.577V25.8438H134.85V27.8438ZM141.577 27.8438C142.836 27.8438 144.004 28.0835 145.091 28.5573L145.891 26.7239C144.54 26.1352 143.099 25.8438 141.577 25.8438V27.8438ZM145.105 28.5634C146.221 29.0295 147.179 29.6743 147.989 30.4979L149.415 29.0958C148.412 28.0757 147.229 27.283 145.876 26.7179L145.105 28.5634ZM148.001 30.51C148.824 31.3196 149.469 32.2774 149.935 33.3933L151.781 32.6224C151.216 31.2695 150.423 30.0866 149.403 29.0837L148.001 30.51ZM149.941 33.4074C150.415 34.4943 150.655 35.6623 150.655 36.9219H152.655C152.655 35.4002 152.364 33.9588 151.775 32.6082L149.941 33.4074ZM150.655 36.9219C150.655 38.1814 150.415 39.3494 149.941 40.4364L151.775 41.2355C152.364 39.8849 152.655 38.4436 152.655 36.9219H150.655ZM149.937 40.4463C149.471 41.5483 148.824 42.5103 147.995 43.3398L149.409 44.754C150.423 43.7397 151.214 42.5611 151.779 41.2256L149.937 40.4463ZM147.995 43.3398C147.182 44.1521 146.219 44.801 145.096 45.2846L145.886 47.1217C147.231 46.5428 148.409 45.7541 149.409 44.754L147.995 43.3398ZM145.091 45.2864C144.004 45.7602 142.836 46 141.577 46V48C143.099 48 144.54 47.7085 145.891 47.1198L145.091 45.2864ZM141.577 46H126.647V48H141.577V46ZM127.647 47V40.2734H125.647V47H127.647ZM126.647 41.2734H141.577V39.2734H126.647V41.2734ZM141.577 41.2734C142.171 41.2734 142.742 41.1638 143.279 40.9366L142.5 39.0947C142.224 39.2112 141.92 39.2734 141.577 39.2734V41.2734ZM143.279 40.9366C143.798 40.7171 144.259 40.4121 144.651 40.0196L143.237 38.6054C143.036 38.8066 142.793 38.9704 142.5 39.0947L143.279 40.9366ZM144.651 40.0196C145.055 39.6162 145.369 39.1491 145.592 38.624L143.75 37.8447C143.628 38.1321 143.459 38.3838 143.237 38.6054L144.651 40.0196ZM145.592 38.624C145.819 38.0869 145.928 37.516 145.928 36.9219H143.928C143.928 37.2653 143.866 37.5694 143.75 37.8447L145.592 38.624ZM145.928 36.9219C145.928 36.3278 145.819 35.7569 145.592 35.2197L143.75 35.999C143.866 36.2744 143.928 36.5785 143.928 36.9219H145.928ZM145.592 35.2197C145.367 34.69 145.047 34.2235 144.633 33.8297L143.255 35.2797C143.466 35.4797 143.63 35.7163 143.75 35.999L145.592 35.2197ZM144.669 33.8659C144.275 33.4515 143.809 33.1313 143.279 32.9072L142.5 34.7491C142.782 34.8687 143.019 35.0329 143.219 35.2434L144.669 33.8659ZM143.279 32.9072C142.742 32.6799 142.171 32.5703 141.577 32.5703V34.5703C141.92 34.5703 142.224 34.6326 142.5 34.7491L143.279 32.9072ZM141.577 32.5703H134.85V34.5703H141.577V32.5703ZM134.85 32.5703C133.591 32.5703 132.423 32.3305 131.336 31.8567L130.537 33.6901C131.887 34.2789 133.329 34.5703 134.85 34.5703V32.5703ZM131.336 31.8567C130.226 31.3729 129.259 30.7221 128.426 29.9041L127.024 31.3303C128.036 32.3247 129.209 33.1114 130.537 33.6901L131.336 31.8567ZM128.438 29.9161C127.62 29.084 126.97 28.1166 126.486 27.0067L124.652 27.8058C125.231 29.1334 126.018 30.3067 127.012 31.3182L128.438 29.9161ZM126.488 27.0109C126.012 25.9058 125.772 24.7283 125.772 23.4688H123.772C123.772 24.9905 124.064 26.438 124.651 27.8016L126.488 27.0109ZM205.005 47V48H206.005V47H205.005ZM198.302 47H197.302V48H198.302V47ZM198.302 20.1172H199.302V19.1172H198.302V20.1172ZM188.201 20.1172H187.201V21.1172H188.201V20.1172ZM188.201 13.3906V12.3906H187.201V13.3906H188.201ZM215.083 13.3906H216.083V12.3906H215.083V13.3906ZM215.083 20.1172V21.1172H216.083V20.1172H215.083ZM205.005 20.1172V19.1172H204.005V20.1172H205.005ZM205.005 46H198.302V48H205.005V46ZM199.302 47V20.1172H197.302V47H199.302ZM198.302 19.1172H188.201V21.1172H198.302V19.1172ZM189.201 20.1172V13.3906H187.201V20.1172H189.201ZM188.201 14.3906H215.083V12.3906H188.201V14.3906ZM214.083 13.3906V20.1172H216.083V13.3906H214.083ZM215.083 19.1172H205.005V21.1172H215.083V19.1172ZM204.005 20.1172V47H206.005V20.1172H204.005ZM260.652 20.1172V19.1172H259.652V20.1172H260.652ZM260.652 33.5703H259.652V34.5703H260.652V33.5703ZM269.981 33.0547L270.37 33.9757L270.378 33.9725L270.385 33.9692L269.981 33.0547ZM273.543 29.4688L272.626 29.0706L272.622 29.0791L273.543 29.4688ZM273.543 24.2422L272.62 24.6256L272.624 24.6362L272.629 24.6467L273.543 24.2422ZM269.981 20.6562L269.576 21.5708L269.584 21.5741L269.591 21.5772L269.981 20.6562ZM260.652 47V48H261.652V47H260.652ZM253.926 47H252.926V48H253.926V47ZM253.926 13.3906V12.3906H252.926V13.3906H253.926ZM270.942 13.8828L270.665 14.8439L270.677 14.8473L270.942 13.8828ZM274.129 15.2422L273.613 16.0985L273.621 16.1033L273.629 16.1079L274.129 15.2422ZM276.848 17.3516L276.134 18.0519L276.141 18.0587L276.147 18.0654L276.848 17.3516ZM278.957 20.0703L278.091 20.5708L278.097 20.5809L278.957 20.0703ZM280.317 23.2812L279.352 23.5455L279.356 23.5577L280.317 23.2812ZM280.363 30.2188L279.398 29.9568L279.395 29.9697L280.363 30.2188ZM279.121 33.3359L278.247 32.8503L278.241 32.861L279.121 33.3359ZM274.527 38.2109L273.995 37.3645L273.275 37.8177L273.607 38.6013L274.527 38.2109ZM278.254 47V48H279.764L279.175 46.6096L278.254 47ZM271.106 47L270.188 47.397L270.449 48H271.106V47ZM268.176 40.2266L269.094 39.8296L268.831 39.2225L268.17 39.2266L268.176 40.2266ZM260.652 40.2734L260.646 39.2735L259.652 39.2796V40.2734H260.652ZM259.652 20.1172V33.5703H261.652V20.1172H259.652ZM260.652 34.5703H267.379V32.5703H260.652V34.5703ZM267.379 34.5703C268.429 34.5703 269.429 34.3739 270.37 33.9757L269.591 32.1337C268.907 32.423 268.173 32.5703 267.379 32.5703V34.5703ZM270.385 33.9692C271.307 33.5615 272.121 33.008 272.821 32.3087L271.406 30.8945C270.887 31.4139 270.279 31.8291 269.576 32.1402L270.385 33.9692ZM272.821 32.3087C273.523 31.606 274.071 30.7866 274.464 29.8584L272.622 29.0791C272.327 29.7759 271.922 30.3783 271.406 30.8945L272.821 32.3087ZM274.46 29.8668C274.876 28.9104 275.082 27.8996 275.082 26.8438H273.082C273.082 27.6316 272.929 28.3709 272.626 29.0707L274.46 29.8668ZM275.082 26.8438C275.082 25.7879 274.876 24.7824 274.458 23.8377L272.629 24.6467C272.929 25.327 273.082 26.0558 273.082 26.8438H275.082ZM274.467 23.8588C274.075 22.9146 273.526 22.0846 272.821 21.3788L271.406 22.793C271.919 23.306 272.324 23.9135 272.62 24.6256L274.467 23.8588ZM272.821 21.3788C272.118 20.6762 271.298 20.128 270.37 19.7353L269.591 21.5772C270.288 21.872 270.89 22.2769 271.406 22.793L272.821 21.3788ZM270.385 19.7417C269.44 19.3239 268.435 19.1172 267.379 19.1172V21.1172C268.167 21.1172 268.896 21.2699 269.576 21.5708L270.385 19.7417ZM267.379 19.1172H260.652V21.1172H267.379V19.1172ZM260.652 46H253.926V48H260.652V46ZM254.926 47V13.3906H252.926V47H254.926ZM253.926 14.3906H267.379V12.3906H253.926V14.3906ZM267.379 14.3906C268.524 14.3906 269.618 14.5426 270.665 14.8438L271.218 12.9218C269.984 12.5668 268.703 12.3906 267.379 12.3906V14.3906ZM270.677 14.8473C271.732 15.1362 272.709 15.5536 273.613 16.0985L274.646 14.3859C273.58 13.7433 272.433 13.2544 271.206 12.9184L270.677 14.8473ZM273.629 16.1079C274.55 16.6406 275.385 17.288 276.134 18.0519L277.562 16.6512C276.686 15.7589 275.708 15 274.63 14.3765L273.629 16.1079ZM276.147 18.0654C276.911 18.8149 277.559 19.6494 278.091 20.5708L279.823 19.5698C279.199 18.4912 278.441 17.5133 277.548 16.6378L276.147 18.0654ZM278.097 20.5809C278.645 21.5025 279.063 22.4898 279.352 23.5455L281.281 23.017C280.945 21.7914 280.457 20.6381 279.817 19.5598L278.097 20.5809ZM279.356 23.5577C279.657 24.6049 279.809 25.6991 279.809 26.8438H281.809C281.809 25.5196 281.633 24.2388 281.278 23.0048L279.356 23.5577ZM279.809 26.8438C279.809 27.9133 279.672 28.9502 279.398 29.9568L281.329 30.4807C281.649 29.2998 281.809 28.0867 281.809 26.8438H279.809ZM279.395 29.9697C279.135 30.9811 278.752 31.9407 278.247 32.8503L279.995 33.8216C280.584 32.7625 281.03 31.6439 281.332 30.4678L279.395 29.9697ZM278.241 32.861C277.752 33.7672 277.148 34.6027 276.425 35.3685L277.88 36.7409C278.72 35.8505 279.428 34.8734 280.001 33.8109L278.241 32.861ZM276.425 35.3685C275.702 36.1348 274.893 36.7998 273.995 37.3645L275.06 39.0574C276.1 38.4033 277.04 37.6308 277.88 36.7409L276.425 35.3685ZM273.607 38.6013L277.333 47.3904L279.175 46.6096L275.448 37.8206L273.607 38.6013ZM278.254 46H271.106V48H278.254V46ZM272.023 46.603L269.094 39.8296L267.258 40.6235L270.188 47.397L272.023 46.603ZM268.17 39.2266L260.646 39.2735L260.659 41.2734L268.182 41.2265L268.17 39.2266ZM259.652 40.2734V47H261.652V40.2734H259.652ZM335.636 47V48H336.636V47H335.636ZM328.932 47H327.932V48H328.932V47ZM328.932 36.4766H329.932V35.6978L329.177 35.507L328.932 36.4766ZM324.831 34.6719L324.274 35.5023L324.279 35.5055L324.831 34.6719ZM321.643 31.7188L320.851 32.329L320.855 32.3342L321.643 31.7188ZM319.557 27.8984L318.612 28.2241L318.616 28.2368L319.557 27.8984ZM318.831 13.3906V12.3906H317.831V13.3906H318.831ZM325.557 13.3906H326.557V12.3906H325.557V13.3906ZM326.073 26.0938L325.15 26.4771L325.154 26.4877L325.159 26.4983L326.073 26.0938ZM329.659 29.6797L329.255 30.5942L329.265 30.5989L329.276 30.6033L329.659 29.6797ZM334.886 29.6797L335.275 30.6007L335.284 30.597L334.886 29.6797ZM338.472 26.0938L337.554 25.6956L337.551 25.7041L338.472 26.0938ZM339.011 13.3906V12.3906H338.011V13.3906H339.011ZM345.714 13.3906H346.714V12.3906H345.714V13.3906ZM344.964 27.8984L344.022 27.5634L344.019 27.5695L344.964 27.8984ZM342.901 31.7188L343.689 32.3342L343.693 32.329L342.901 31.7188ZM335.636 36.4766L335.391 35.507L334.636 35.6978V36.4766H335.636ZM335.636 46H328.932V48H335.636V46ZM329.932 47V36.4766H327.932V47H329.932ZM329.177 35.507C327.8 35.1591 326.537 34.6027 325.383 33.8382L324.279 35.5055C325.625 36.3973 327.096 37.0441 328.688 37.4461L329.177 35.507ZM325.388 33.8414C324.239 33.0707 323.255 32.1582 322.432 31.1033L320.855 32.3342C321.813 33.5605 322.954 34.6168 324.274 35.5023L325.388 33.8414ZM322.436 31.1085C321.609 30.0357 320.964 28.8542 320.499 27.5601L318.616 28.2368C319.151 29.724 319.896 31.0893 320.851 32.329L322.436 31.1085ZM320.503 27.5728C320.056 26.2755 319.831 24.9093 319.831 23.4688H317.831C317.831 25.122 318.09 26.7089 318.612 28.2241L320.503 27.5728ZM319.831 23.4688V13.3906H317.831V23.4688H319.831ZM318.831 14.3906H325.557V12.3906H318.831V14.3906ZM324.557 13.3906V23.4688H326.557V13.3906H324.557ZM324.557 23.4688C324.557 24.5184 324.754 25.524 325.15 26.4771L326.997 25.7104C326.705 25.0072 326.557 24.2628 326.557 23.4688H324.557ZM325.159 26.4983C325.566 27.42 326.12 28.2344 326.819 28.9337L328.233 27.5195C327.714 27 327.299 26.3925 326.988 25.6892L325.159 26.4983ZM326.819 28.9337C327.518 29.633 328.333 30.1865 329.255 30.5942L330.064 28.7652C329.36 28.4541 328.753 28.0389 328.233 27.5195L326.819 28.9337ZM329.276 30.6033C330.229 30.9989 331.234 31.1953 332.284 31.1953V29.1953C331.49 29.1953 330.746 29.048 330.042 28.7561L329.276 30.6033ZM332.284 31.1953C333.334 31.1953 334.334 30.9989 335.275 30.6007L334.496 28.7587C333.812 29.048 333.078 29.1953 332.284 29.1953V31.1953ZM335.284 30.597C336.222 30.19 337.047 29.6361 337.749 28.9337L336.335 27.5195C335.818 28.0358 335.206 28.4506 334.488 28.7623L335.284 30.597ZM337.749 28.9337C338.452 28.231 339 27.4116 339.393 26.4834L337.551 25.7041C337.256 26.4009 336.851 27.0033 336.335 27.5195L337.749 28.9337ZM339.389 26.4918C339.804 25.5354 340.011 24.5246 340.011 23.4688H338.011C338.011 24.2566 337.858 24.9959 337.554 25.6957L339.389 26.4918ZM340.011 23.4688V13.3906H338.011V23.4688H340.011ZM339.011 14.3906H345.714V12.3906H339.011V14.3906ZM344.714 13.3906V23.4688H346.714V13.3906H344.714ZM344.714 23.4688C344.714 24.9057 344.482 26.2686 344.022 27.5634L345.906 28.2334C346.446 26.7157 346.714 25.1256 346.714 23.4688H344.714ZM344.019 27.5695C343.57 28.8597 342.934 30.038 342.109 31.1085L343.693 32.329C344.65 31.087 345.389 29.7184 345.908 28.2274L344.019 27.5695ZM342.113 31.1033C341.289 32.1582 340.305 33.0707 339.157 33.8414L340.271 35.5023C341.591 34.6168 342.732 33.5605 343.689 32.3342L342.113 31.1033ZM339.157 33.8414C338.02 34.6037 336.767 35.1593 335.391 35.507L335.881 37.4461C337.473 37.0438 338.938 36.3963 340.271 35.5023L339.157 33.8414ZM334.636 36.4766V47H336.636V36.4766H334.636ZM411.673 47V48H413.46L412.526 46.477L411.673 47ZM403.517 47L402.658 47.512L402.949 48H403.517V47ZM397.048 36.1484L397.907 35.6364L397.05 34.1981L396.19 35.635L397.048 36.1484ZM390.556 47V48H391.123L391.414 47.5134L390.556 47ZM382.447 47L381.595 46.477L380.66 48H382.447V47ZM392.759 30.1953L393.612 30.7183L393.933 30.1953L393.612 29.6723L392.759 30.1953ZM382.447 13.3906V12.3906H380.66L381.595 13.9137L382.447 13.3906ZM390.556 13.3906L391.414 12.8772L391.123 12.3906H390.556V13.3906ZM397.048 24.2422L396.19 24.7556L397.05 26.1926L397.907 24.7542L397.048 24.2422ZM403.517 13.3906V12.3906H402.949L402.658 12.8786L403.517 13.3906ZM411.673 13.3906L412.526 13.9137L413.46 12.3906H411.673V13.3906ZM401.361 30.1953L400.509 29.6723L400.188 30.1953L400.509 30.7183L401.361 30.1953ZM411.673 46H403.517V48H411.673V46ZM404.376 46.488L397.907 35.6364L396.189 36.6605L402.658 47.512L404.376 46.488ZM396.19 35.635L389.698 46.4866L391.414 47.5134L397.907 36.6618L396.19 35.635ZM390.556 46H382.447V48H390.556V46ZM383.299 47.523L393.612 30.7183L391.907 29.6723L381.595 46.477L383.299 47.523ZM393.612 29.6723L383.299 12.8676L381.595 13.9137L391.907 30.7183L393.612 29.6723ZM382.447 14.3906H390.556V12.3906H382.447V14.3906ZM389.698 13.904L396.19 24.7556L397.907 23.7288L391.414 12.8772L389.698 13.904ZM397.907 24.7542L404.376 13.9027L402.658 12.8786L396.189 23.7302L397.907 24.7542ZM403.517 14.3906H411.673V12.3906H403.517V14.3906ZM410.821 12.8676L400.509 29.6723L402.213 30.7183L412.526 13.9137L410.821 12.8676ZM400.509 30.7183L410.821 47.523L412.526 46.477L402.213 29.6723L400.509 30.7183Z" fill="black"/>
</g>
<path d="M1.2168 125V116.469H3.19141C3.78516 116.477 4.31445 116.578 4.7793 116.773C5.24805 116.965 5.64258 117.234 5.96289 117.582C6.28711 117.926 6.5332 118.34 6.70117 118.824C6.87305 119.305 6.96094 119.838 6.96484 120.424V121.051C6.96094 121.637 6.87305 122.172 6.70117 122.656C6.5332 123.137 6.28711 123.551 5.96289 123.898C5.64258 124.242 5.24805 124.512 4.7793 124.707C4.31445 124.898 3.78516 124.996 3.19141 125H1.2168ZM2.31836 117.359V124.115H3.19141C3.65234 124.111 4.05078 124.031 4.38672 123.875C4.72266 123.715 5 123.498 5.21875 123.225C5.44141 122.951 5.60547 122.629 5.71094 122.258C5.82031 121.887 5.87695 121.484 5.88086 121.051V120.412C5.87695 119.979 5.82031 119.578 5.71094 119.211C5.60156 118.84 5.4375 118.52 5.21875 118.25C5 117.977 4.72266 117.762 4.38672 117.605C4.05078 117.449 3.65234 117.367 3.19141 117.359H2.31836ZM24.3885 121.057H20.826V124.08H24.9803V125H19.742V116.469H24.9276V117.395H20.826V120.137H24.3885V121.057ZM43.5876 122.434C43.5368 122.828 43.4352 123.191 43.2829 123.523C43.1305 123.852 42.9313 124.135 42.6852 124.373C42.443 124.607 42.154 124.791 41.818 124.924C41.486 125.053 41.1149 125.117 40.7048 125.117C40.3532 125.117 40.0329 125.068 39.7438 124.971C39.4587 124.869 39.2028 124.73 38.9762 124.555C38.7536 124.379 38.5602 124.172 38.3962 123.934C38.236 123.695 38.1012 123.436 37.9919 123.154C37.8864 122.873 37.8063 122.578 37.7516 122.27C37.7009 121.961 37.6735 121.648 37.6696 121.332V120.143C37.6735 119.826 37.7009 119.514 37.7516 119.205C37.8063 118.896 37.8864 118.602 37.9919 118.32C38.1012 118.039 38.236 117.779 38.3962 117.541C38.5602 117.299 38.7536 117.09 38.9762 116.914C39.2028 116.738 39.4587 116.602 39.7438 116.504C40.029 116.402 40.3493 116.352 40.7048 116.352C41.1305 116.352 41.5114 116.418 41.8473 116.551C42.1833 116.68 42.4723 116.865 42.7145 117.107C42.9567 117.346 43.1501 117.633 43.2946 117.969C43.443 118.305 43.5407 118.676 43.5876 119.082H42.5036C42.4684 118.824 42.4079 118.584 42.322 118.361C42.236 118.139 42.1208 117.943 41.9762 117.775C41.8317 117.607 41.654 117.477 41.443 117.383C41.236 117.285 40.9899 117.236 40.7048 117.236C40.447 117.236 40.2184 117.279 40.0192 117.365C39.8239 117.447 39.654 117.561 39.5095 117.705C39.3688 117.85 39.2497 118.018 39.152 118.209C39.0583 118.4 38.9821 118.604 38.9235 118.818C38.8649 119.033 38.822 119.254 38.7946 119.48C38.7712 119.703 38.7595 119.92 38.7595 120.131V121.332C38.7595 121.543 38.7712 121.762 38.7946 121.988C38.822 122.211 38.8649 122.432 38.9235 122.65C38.9821 122.865 39.0583 123.068 39.152 123.26C39.2458 123.451 39.3649 123.621 39.5095 123.77C39.654 123.914 39.8239 124.029 40.0192 124.115C40.2145 124.197 40.443 124.238 40.7048 124.238C40.9899 124.238 41.236 124.193 41.443 124.104C41.654 124.014 41.8317 123.889 41.9762 123.729C42.1208 123.564 42.236 123.373 42.322 123.154C42.4079 122.932 42.4684 122.691 42.5036 122.434H43.5876ZM57.6538 124.08H61.8257V125H56.5698V116.469H57.6538V124.08ZM78.8685 122.791H76.0209L75.3353 125H74.2513L77.0052 116.469H77.9134L80.6205 125H79.5423L78.8685 122.791ZM76.3138 121.848H78.5814L77.4564 118.145L76.3138 121.848ZM95.9875 121.52H94.2824V125H93.2043V116.469H95.7063C96.1047 116.477 96.4797 116.533 96.8313 116.639C97.1828 116.744 97.4895 116.902 97.7512 117.113C98.0168 117.324 98.2238 117.59 98.3723 117.91C98.5246 118.227 98.6008 118.6 98.6008 119.029C98.6008 119.307 98.5598 119.561 98.4777 119.791C98.3996 120.021 98.2902 120.23 98.1496 120.418C98.009 120.605 97.841 120.771 97.6457 120.916C97.4504 121.061 97.2355 121.184 97.0012 121.285L98.8117 124.93L98.8059 125H97.6633L95.9875 121.52ZM94.2824 120.629H95.7355C95.9777 120.625 96.2063 120.588 96.4211 120.518C96.6359 120.443 96.8234 120.338 96.9836 120.201C97.1477 120.064 97.2766 119.898 97.3703 119.703C97.4641 119.504 97.5109 119.275 97.5109 119.018C97.5109 118.744 97.466 118.506 97.3762 118.303C97.2863 118.096 97.1613 117.924 97.0012 117.787C96.841 117.646 96.6496 117.541 96.427 117.471C96.2082 117.4 95.968 117.363 95.7063 117.359H94.2824V120.629ZM115.603 122.791H112.755L112.069 125H110.985L113.739 116.469H114.647L117.355 125H116.276L115.603 122.791ZM113.048 121.848H115.315L114.19 118.145L113.048 121.848ZM135.651 117.395H133.015V125H131.96V117.395H129.323V116.469H135.651V117.395ZM148.264 116.469H153.421V117.412H151.376V124.062H153.421V125H148.264V124.062H150.262V117.412H148.264V116.469ZM169.186 123.254L171.202 116.469H172.356L169.667 125H168.723L166.028 116.469H167.188L169.186 123.254ZM189.692 121.057H186.129V124.08H190.284V125H185.045V116.469H190.231V117.395H186.129V120.137H189.692V121.057ZM225.734 116.469H226.842V122.404C226.834 122.799 226.758 123.162 226.613 123.494C226.473 123.826 226.279 124.113 226.033 124.355C225.787 124.594 225.496 124.781 225.16 124.918C224.828 125.051 224.465 125.117 224.07 125.117C223.672 125.117 223.309 125.057 222.981 124.936C222.656 124.814 222.373 124.643 222.131 124.42C221.893 124.193 221.701 123.922 221.557 123.605C221.412 123.285 221.322 122.928 221.287 122.533H222.389C222.4 122.771 222.447 122.992 222.529 123.195C222.615 123.398 222.731 123.576 222.875 123.729C223.02 123.877 223.191 123.992 223.391 124.074C223.594 124.156 223.82 124.197 224.07 124.197C224.328 124.197 224.559 124.15 224.762 124.057C224.965 123.959 225.137 123.828 225.277 123.664C225.422 123.5 225.531 123.311 225.606 123.096C225.684 122.877 225.727 122.646 225.734 122.404V116.469ZM244.793 121.057H241.23V124.08H245.385V125H240.146V116.469H245.332V117.395H241.23V120.137H244.793V121.057ZM264.22 117.395H261.584V125H260.529V117.395H257.892V116.469H264.22V117.395ZM281.58 121.232H278.029V125H276.933V116.469H282.171V117.395H278.029V120.312H281.58V121.232ZM300.556 116.469L300.568 122.246C300.56 122.645 300.488 123.018 300.351 123.365C300.214 123.713 300.023 124.018 299.777 124.279C299.531 124.537 299.238 124.742 298.898 124.895C298.558 125.043 298.185 125.117 297.779 125.117C297.365 125.117 296.988 125.043 296.648 124.895C296.308 124.746 296.017 124.543 295.775 124.285C295.533 124.023 295.343 123.719 295.206 123.371C295.07 123.02 294.999 122.645 294.996 122.246L295.007 116.469H296.039L296.062 122.246C296.066 122.5 296.105 122.744 296.179 122.979C296.257 123.213 296.367 123.42 296.507 123.6C296.652 123.779 296.83 123.924 297.04 124.033C297.255 124.143 297.501 124.197 297.779 124.197C298.056 124.197 298.3 124.145 298.511 124.039C298.722 123.93 298.898 123.785 299.039 123.605C299.183 123.422 299.292 123.213 299.367 122.979C299.441 122.744 299.482 122.5 299.49 122.246L299.507 116.469H300.556ZM318.261 121.057H314.699V124.08H318.853V125H313.615V116.469H318.8V117.395H314.699V120.137H318.261V121.057ZM333.159 124.08H337.331V125H332.075V116.469H333.159V124.08ZM372.899 122.691L373.55 116.469H374.575L373.538 125H372.43L371.335 118.572L370.227 125H369.114L368.077 116.469H369.108L369.759 122.691L370.854 116.469H371.798L372.899 122.691ZM391.729 121.057H388.167V124.08H392.321V125H387.083V116.469H392.268V117.395H388.167V120.137H391.729V121.057ZM405.391 125V116.469H407.928C408.28 116.473 408.624 116.52 408.959 116.609C409.295 116.695 409.594 116.83 409.856 117.014C410.118 117.197 410.327 117.432 410.483 117.717C410.639 118.002 410.715 118.344 410.711 118.742C410.707 118.965 410.67 119.168 410.6 119.352C410.534 119.535 410.44 119.701 410.319 119.85C410.202 119.994 410.063 120.121 409.903 120.23C409.743 120.34 409.573 120.434 409.393 120.512C409.62 120.578 409.827 120.674 410.014 120.799C410.206 120.92 410.37 121.068 410.506 121.244C410.643 121.416 410.749 121.611 410.823 121.83C410.901 122.049 410.94 122.285 410.94 122.539C410.944 122.938 410.868 123.289 410.711 123.594C410.555 123.898 410.346 124.154 410.084 124.361C409.823 124.564 409.52 124.721 409.176 124.83C408.836 124.939 408.485 124.996 408.122 125H405.391ZM406.481 121.01V124.08H408.151C408.377 124.076 408.592 124.039 408.795 123.969C408.999 123.895 409.178 123.793 409.334 123.664C409.491 123.535 409.614 123.377 409.704 123.189C409.797 123.002 409.844 122.789 409.844 122.551C409.848 122.309 409.807 122.094 409.721 121.906C409.639 121.719 409.524 121.561 409.375 121.432C409.227 121.299 409.053 121.197 408.854 121.127C408.655 121.057 408.44 121.018 408.209 121.01H406.481ZM406.481 120.107H407.993C408.196 120.104 408.395 120.072 408.59 120.014C408.786 119.951 408.959 119.863 409.112 119.75C409.264 119.633 409.387 119.49 409.481 119.322C409.575 119.154 409.622 118.959 409.622 118.736C409.622 118.498 409.575 118.295 409.481 118.127C409.391 117.959 409.268 117.822 409.112 117.717C408.959 117.607 408.782 117.527 408.579 117.477C408.379 117.426 408.174 117.398 407.963 117.395H406.481V120.107ZM429.289 123.881C428.93 124.303 428.518 124.615 428.053 124.818C427.588 125.021 427.078 125.121 426.524 125.117C426.172 125.113 425.848 125.061 425.551 124.959C425.258 124.854 424.994 124.711 424.76 124.531C424.526 124.348 424.321 124.133 424.145 123.887C423.969 123.641 423.821 123.375 423.7 123.09C423.582 122.801 423.492 122.5 423.43 122.188C423.371 121.871 423.34 121.553 423.336 121.232V120.242C423.34 119.926 423.367 119.611 423.418 119.299C423.473 118.982 423.555 118.68 423.664 118.391C423.774 118.102 423.91 117.834 424.075 117.588C424.239 117.338 424.434 117.123 424.66 116.943C424.891 116.76 425.151 116.615 425.44 116.51C425.729 116.404 426.053 116.352 426.412 116.352C426.811 116.352 427.178 116.414 427.514 116.539C427.85 116.66 428.143 116.836 428.393 117.066C428.643 117.293 428.844 117.568 428.996 117.893C429.149 118.213 429.242 118.572 429.278 118.971H428.205C428.162 118.725 428.096 118.498 428.006 118.291C427.916 118.08 427.797 117.9 427.649 117.752C427.504 117.604 427.33 117.488 427.127 117.406C426.924 117.32 426.688 117.277 426.418 117.277C426.16 117.277 425.932 117.322 425.733 117.412C425.534 117.498 425.36 117.615 425.211 117.764C425.063 117.912 424.94 118.086 424.842 118.285C424.744 118.48 424.664 118.688 424.602 118.906C424.539 119.125 424.494 119.348 424.467 119.574C424.44 119.801 424.426 120.02 424.426 120.23V121.232C424.43 121.447 424.448 121.67 424.479 121.9C424.514 122.127 424.567 122.35 424.637 122.568C424.707 122.787 424.797 122.994 424.907 123.189C425.016 123.385 425.147 123.557 425.299 123.705C425.455 123.854 425.635 123.973 425.838 124.062C426.041 124.148 426.272 124.193 426.53 124.197C426.678 124.201 426.832 124.195 426.992 124.18C427.157 124.164 427.315 124.133 427.467 124.086C427.619 124.039 427.762 123.977 427.895 123.898C428.028 123.816 428.139 123.711 428.229 123.582L428.241 121.666H426.506V120.752H429.272L429.289 123.881ZM446.83 121.057H443.268V124.08H447.422V125H442.184V116.469H447.369V117.395H443.268V120.137H446.83V121.057ZM465.848 125H464.746L461.436 118.625L461.418 125H460.322V116.469H461.424L464.734 122.832L464.752 116.469H465.848V125Z" fill="#241F1A"/>
<defs>
<filter id="filter0_d" x="54.7422" y="28.8836" width="360.931" height="41.6094" filterUnits="userSpaceOnUse" color-interpolation-filters="sRGB">
<feFlood flood-opacity="0" result="BackgroundImageFix"/>
<feColorMatrix in="SourceAlpha" type="matrix" values="0 0 0 0 0 0 0 0 0 0 0 0 0 0 0 0 0 0 127 0"/>
<feOffset dy="4"/>
<feGaussianBlur stdDeviation="2"/>
<feColorMatrix type="matrix" values="0 0 0 0 1 0 0 0 0 0 0 0 0 0 0.9 0 0 0 0.25 0"/>
<feBlend mode="normal" in2="BackgroundImageFix" result="effect1_dropShadow"/>
<feBlend mode="normal" in="SourceGraphic" in2="effect1_dropShadow" result="shape"/>
</filter>
<filter id="filter1_d" x="54.7422" y="20.4329" width="360.931" height="41.6094" filterUnits="userSpaceOnUse" color-interpolation-filters="sRGB">
<feFlood flood-opacity="0" result="BackgroundImageFix"/>
<feColorMatrix in="SourceAlpha" type="matrix" values="0 0 0 0 0 0 0 0 0 0 0 0 0 0 0 0 0 0 127 0"/>
<feOffset dy="4"/>
<feGaussianBlur stdDeviation="2"/>
<feColorMatrix type="matrix" values="0 0 0 0 1 0 0 0 0 0 0 0 0 0 0.9 0 0 0 0.25 0"/>
<feBlend mode="normal" in2="BackgroundImageFix" result="effect1_dropShadow"/>
<feBlend mode="normal" in="SourceGraphic" in2="effect1_dropShadow" result="shape"/>
</filter>
<filter id="filter2_d" x="54.7422" y="13.3906" width="360.931" height="41.6094" filterUnits="userSpaceOnUse" color-interpolation-filters="sRGB">
<feFlood flood-opacity="0" result="BackgroundImageFix"/>
<feColorMatrix in="SourceAlpha" type="matrix" values="0 0 0 0 0 0 0 0 0 0 0 0 0 0 0 0 0 0 127 0"/>
<feOffset dy="4"/>
<feGaussianBlur stdDeviation="2"/>
<feColorMatrix type="matrix" values="0 0 0 0 1 0 0 0 0 0 0 0 0 0 0.9 0 0 0 0.25 0"/>
<feBlend mode="normal" in2="BackgroundImageFix" result="effect1_dropShadow"/>
<feBlend mode="normal" in="SourceGraphic" in2="effect1_dropShadow" result="shape"/>
</filter>
<filter id="filter3_d" x="54.2422" y="18.36" width="362.194" height="71.8301" filterUnits="userSpaceOnUse" color-interpolation-filters="sRGB">
<feFlood flood-opacity="0" result="BackgroundImageFix"/>
<feColorMatrix in="SourceAlpha" type="matrix" values="0 0 0 0 0 0 0 0 0 0 0 0 0 0 0 0 0 0 127 0"/>
<feOffset dy="4"/>
<feGaussianBlur stdDeviation="2"/>
<feColorMatrix type="matrix" values="0 0 0 0 1 0 0 0 0 0 0 0 0 0 0.9 0 0 0 0.25 0"/>
<feBlend mode="normal" in2="BackgroundImageFix" result="effect1_dropShadow"/>
<feBlend mode="normal" in="SourceGraphic" in2="effect1_dropShadow" result="shape"/>
</filter>
<filter id="filter4_d" x="54.7422" y="13.3906" width="360.931" height="41.6094" filterUnits="userSpaceOnUse" color-interpolation-filters="sRGB">
<feFlood flood-opacity="0" result="BackgroundImageFix"/>
<feColorMatrix in="SourceAlpha" type="matrix" values="0 0 0 0 0 0 0 0 0 0 0 0 0 0 0 0 0 0 127 0"/>
<feOffset dy="4"/>
<feGaussianBlur stdDeviation="2"/>
<feColorMatrix type="matrix" values="0 0 0 0 1 0 0 0 0 0 0 0 0 0 0.9 0 0 0 0.25 0"/>
<feBlend mode="normal" in2="BackgroundImageFix" result="effect1_dropShadow"/>
<feBlend mode="normal" in="SourceGraphic" in2="effect1_dropShadow" result="shape"/>
</filter>
<filter id="filter5_d" x="54.2422" y="18.36" width="362.194" height="71.8301" filterUnits="userSpaceOnUse" color-interpolation-filters="sRGB">
<feFlood flood-opacity="0" result="BackgroundImageFix"/>
<feColorMatrix in="SourceAlpha" type="matrix" values="0 0 0 0 0 0 0 0 0 0 0 0 0 0 0 0 0 0 127 0"/>
<feOffset dy="4"/>
<feGaussianBlur stdDeviation="2"/>
<feColorMatrix type="matrix" values="0 0 0 0 1 0 0 0 0 0 0 0 0 0 0.9 0 0 0 0.25 0"/>
<feBlend mode="normal" in2="BackgroundImageFix" result="effect1_dropShadow"/>
<feBlend mode="normal" in="SourceGraphic" in2="effect1_dropShadow" result="shape"/>
</filter>
<linearGradient id="paint0_linear" x1="234" y1="0" x2="234" y2="84.507" gradientUnits="userSpaceOnUse">
<stop offset="0.187487" stop-color="#F3EEE0"/>
<stop offset="0.489583" stop-color="white"/>
<stop offset="0.489683" stop-color="#FFEBCC"/>
<stop offset="0.557294" stop-color="#FFE2B6"/>
<stop offset="0.796787" stop-color="#C6B499"/>
<stop offset="0.796887" stop-color="#FFEFD7"/>
</linearGradient>
</defs>
</svg>
