<svg width="363" height="71" viewBox="0 0 363 71" fill="none" xmlns="http://www.w3.org/2000/svg">
<g filter="url(#filter0_d)">
<path d="M24.8984 44.5703V37.8438C24.8984 36.9219 24.7188 36.0547 24.3594 35.2422C24.0156 34.4141 23.5391 33.6953 22.9297 33.0859C22.3203 32.4766 21.6016 32 20.7734 31.6562C19.9609 31.2969 19.0938 31.1172 18.1719 31.1172C17.25 31.1172 16.375 31.2969 15.5469 31.6562C14.7344 32 14.0234 32.4766 13.4141 33.0859C12.8047 33.6953 12.3203 34.4141 11.9609 35.2422C11.6172 36.0547 11.4453 36.9219 11.4453 37.8438V44.5703H24.8984ZM31.625 58H24.8984V51.2734H11.4453V58H4.74219V37.8438C4.74219 35.9844 5.09375 34.2422 5.79688 32.6172C6.5 30.9766 7.45312 29.5469 8.65625 28.3281C9.875 27.1094 11.2969 26.1484 12.9219 25.4453C14.5625 24.7422 16.3125 24.3906 18.1719 24.3906C20.0312 24.3906 21.7734 24.7422 23.3984 25.4453C25.0391 26.1484 26.4688 27.1094 27.6875 28.3281C28.9062 29.5469 29.8672 30.9766 30.5703 32.6172C31.2734 34.2422 31.625 35.9844 31.625 37.8438V58ZM70.7722 34.4688C70.7722 33.0781 71.0378 31.7734 71.5691 30.5547C72.1003 29.3359 72.8191 28.2734 73.7253 27.3672C74.6472 26.4453 75.7175 25.7188 76.9362 25.1875C78.155 24.6562 79.4597 24.3906 80.8503 24.3906H96.2722V31.1172H80.8503C80.3816 31.1172 79.9441 31.2031 79.5378 31.375C79.1316 31.5469 78.7722 31.7891 78.4597 32.1016C78.1628 32.3984 77.9284 32.75 77.7566 33.1562C77.5847 33.5625 77.4987 34 77.4987 34.4688C77.4987 34.9375 77.5847 35.3828 77.7566 35.8047C77.9284 36.2109 78.1628 36.5703 78.4597 36.8828C78.7722 37.1797 79.1316 37.4141 79.5378 37.5859C79.9441 37.7578 80.3816 37.8438 80.8503 37.8438H87.5769C88.9675 37.8438 90.2722 38.1094 91.4909 38.6406C92.7253 39.1562 93.7956 39.875 94.7019 40.7969C95.6237 41.7031 96.3425 42.7734 96.8581 44.0078C97.3894 45.2266 97.655 46.5312 97.655 47.9219C97.655 49.3125 97.3894 50.6172 96.8581 51.8359C96.3425 53.0547 95.6237 54.125 94.7019 55.0469C93.7956 55.9531 92.7253 56.6719 91.4909 57.2031C90.2722 57.7344 88.9675 58 87.5769 58H72.6472V51.2734H87.5769C88.0456 51.2734 88.4831 51.1875 88.8894 51.0156C89.2956 50.8438 89.6472 50.6094 89.9441 50.3125C90.2566 50 90.4987 49.6406 90.6706 49.2344C90.8425 48.8281 90.9284 48.3906 90.9284 47.9219C90.9284 47.4531 90.8425 47.0156 90.6706 46.6094C90.4987 46.2031 90.2566 45.8516 89.9441 45.5547C89.6472 45.2422 89.2956 45 88.8894 44.8281C88.4831 44.6562 88.0456 44.5703 87.5769 44.5703H80.8503C79.4597 44.5703 78.155 44.3047 76.9362 43.7734C75.7175 43.2422 74.6472 42.5234 73.7253 41.6172C72.8191 40.6953 72.1003 39.625 71.5691 38.4062C71.0378 37.1719 70.7722 35.8594 70.7722 34.4688ZM151.005 58H144.302V31.1172H134.201V24.3906H161.083V31.1172H151.005V58ZM206.652 31.1172V44.5703H213.379C214.301 44.5703 215.168 44.3984 215.981 44.0547C216.793 43.6953 217.504 43.2109 218.113 42.6016C218.723 41.9922 219.199 41.2812 219.543 40.4688C219.902 39.6406 220.082 38.7656 220.082 37.8438C220.082 36.9219 219.902 36.0547 219.543 35.2422C219.199 34.4141 218.723 33.6953 218.113 33.0859C217.504 32.4766 216.793 32 215.981 31.6562C215.168 31.2969 214.301 31.1172 213.379 31.1172H206.652ZM206.652 58H199.926V24.3906H213.379C214.613 24.3906 215.801 24.5547 216.942 24.8828C218.082 25.1953 219.145 25.6484 220.129 26.2422C221.129 26.8203 222.035 27.5234 222.848 28.3516C223.676 29.1641 224.379 30.0703 224.957 31.0703C225.551 32.0703 226.004 33.1406 226.317 34.2812C226.645 35.4219 226.809 36.6094 226.809 37.8438C226.809 39 226.66 40.125 226.363 41.2188C226.082 42.3125 225.668 43.3516 225.121 44.3359C224.59 45.3203 223.934 46.2266 223.152 47.0547C222.371 47.8828 221.496 48.6016 220.527 49.2109L224.254 58H217.106L214.176 51.2266L206.652 51.2734V58ZM281.636 58H274.932V47.4766C273.448 47.1016 272.081 46.5 270.831 45.6719C269.597 44.8438 268.534 43.8594 267.643 42.7188C266.753 41.5625 266.057 40.2891 265.557 38.8984C265.073 37.4922 264.831 36.0156 264.831 34.4688V24.3906H271.557V34.4688C271.557 35.3906 271.729 36.2656 272.073 37.0938C272.432 37.9062 272.917 38.6172 273.526 39.2266C274.136 39.8359 274.847 40.3203 275.659 40.6797C276.487 41.0234 277.362 41.1953 278.284 41.1953C279.206 41.1953 280.073 41.0234 280.886 40.6797C281.714 40.3203 282.432 39.8359 283.042 39.2266C283.651 38.6172 284.128 37.9062 284.472 37.0938C284.831 36.2656 285.011 35.3906 285.011 34.4688V24.3906H291.714V34.4688C291.714 36.0156 291.464 37.4922 290.964 38.8984C290.479 40.2891 289.792 41.5625 288.901 42.7188C288.011 43.8594 286.948 44.8438 285.714 45.6719C284.479 46.5 283.12 47.1016 281.636 47.4766V58ZM357.673 58H349.517L343.048 47.1484L336.556 58H328.447L338.759 41.1953L328.447 24.3906H336.556L343.048 35.2422L349.517 24.3906H357.673L347.361 41.1953L357.673 58Z" fill="#FF00F5"/>
</g>
<g filter="url(#filter1_d)">
<path d="M24.8984 38.5703V31.8438C24.8984 30.9219 24.7188 30.0547 24.3594 29.2422C24.0156 28.4141 23.5391 27.6953 22.9297 27.0859C22.3203 26.4766 21.6016 26 20.7734 25.6562C19.9609 25.2969 19.0938 25.1172 18.1719 25.1172C17.25 25.1172 16.375 25.2969 15.5469 25.6562C14.7344 26 14.0234 26.4766 13.4141 27.0859C12.8047 27.6953 12.3203 28.4141 11.9609 29.2422C11.6172 30.0547 11.4453 30.9219 11.4453 31.8438V38.5703H24.8984ZM31.625 52H24.8984V45.2734H11.4453V52H4.74219V31.8438C4.74219 29.9844 5.09375 28.2422 5.79688 26.6172C6.5 24.9766 7.45312 23.5469 8.65625 22.3281C9.875 21.1094 11.2969 20.1484 12.9219 19.4453C14.5625 18.7422 16.3125 18.3906 18.1719 18.3906C20.0312 18.3906 21.7734 18.7422 23.3984 19.4453C25.0391 20.1484 26.4688 21.1094 27.6875 22.3281C28.9062 23.5469 29.8672 24.9766 30.5703 26.6172C31.2734 28.2422 31.625 29.9844 31.625 31.8438V52ZM70.7722 28.4688C70.7722 27.0781 71.0378 25.7734 71.5691 24.5547C72.1003 23.3359 72.8191 22.2734 73.7253 21.3672C74.6472 20.4453 75.7175 19.7188 76.9362 19.1875C78.155 18.6562 79.4597 18.3906 80.8503 18.3906H96.2722V25.1172H80.8503C80.3816 25.1172 79.9441 25.2031 79.5378 25.375C79.1316 25.5469 78.7722 25.7891 78.4597 26.1016C78.1628 26.3984 77.9284 26.75 77.7566 27.1562C77.5847 27.5625 77.4987 28 77.4987 28.4688C77.4987 28.9375 77.5847 29.3828 77.7566 29.8047C77.9284 30.2109 78.1628 30.5703 78.4597 30.8828C78.7722 31.1797 79.1316 31.4141 79.5378 31.5859C79.9441 31.7578 80.3816 31.8438 80.8503 31.8438H87.5769C88.9675 31.8438 90.2722 32.1094 91.4909 32.6406C92.7253 33.1562 93.7956 33.875 94.7019 34.7969C95.6237 35.7031 96.3425 36.7734 96.8581 38.0078C97.3894 39.2266 97.655 40.5312 97.655 41.9219C97.655 43.3125 97.3894 44.6172 96.8581 45.8359C96.3425 47.0547 95.6237 48.125 94.7019 49.0469C93.7956 49.9531 92.7253 50.6719 91.4909 51.2031C90.2722 51.7344 88.9675 52 87.5769 52H72.6472V45.2734H87.5769C88.0456 45.2734 88.4831 45.1875 88.8894 45.0156C89.2956 44.8438 89.6472 44.6094 89.9441 44.3125C90.2566 44 90.4987 43.6406 90.6706 43.2344C90.8425 42.8281 90.9284 42.3906 90.9284 41.9219C90.9284 41.4531 90.8425 41.0156 90.6706 40.6094C90.4987 40.2031 90.2566 39.8516 89.9441 39.5547C89.6472 39.2422 89.2956 39 88.8894 38.8281C88.4831 38.6562 88.0456 38.5703 87.5769 38.5703H80.8503C79.4597 38.5703 78.155 38.3047 76.9362 37.7734C75.7175 37.2422 74.6472 36.5234 73.7253 35.6172C72.8191 34.6953 72.1003 33.625 71.5691 32.4062C71.0378 31.1719 70.7722 29.8594 70.7722 28.4688ZM151.005 52H144.302V25.1172H134.201V18.3906H161.083V25.1172H151.005V52ZM206.652 25.1172V38.5703H213.379C214.301 38.5703 215.168 38.3984 215.981 38.0547C216.793 37.6953 217.504 37.2109 218.113 36.6016C218.723 35.9922 219.199 35.2812 219.543 34.4688C219.902 33.6406 220.082 32.7656 220.082 31.8438C220.082 30.9219 219.902 30.0547 219.543 29.2422C219.199 28.4141 218.723 27.6953 218.113 27.0859C217.504 26.4766 216.793 26 215.981 25.6562C215.168 25.2969 214.301 25.1172 213.379 25.1172H206.652ZM206.652 52H199.926V18.3906H213.379C214.613 18.3906 215.801 18.5547 216.942 18.8828C218.082 19.1953 219.145 19.6484 220.129 20.2422C221.129 20.8203 222.035 21.5234 222.848 22.3516C223.676 23.1641 224.379 24.0703 224.957 25.0703C225.551 26.0703 226.004 27.1406 226.317 28.2812C226.645 29.4219 226.809 30.6094 226.809 31.8438C226.809 33 226.66 34.125 226.363 35.2188C226.082 36.3125 225.668 37.3516 225.121 38.3359C224.59 39.3203 223.934 40.2266 223.152 41.0547C222.371 41.8828 221.496 42.6016 220.527 43.2109L224.254 52H217.106L214.176 45.2266L206.652 45.2734V52ZM281.636 52H274.932V41.4766C273.448 41.1016 272.081 40.5 270.831 39.6719C269.597 38.8438 268.534 37.8594 267.643 36.7188C266.753 35.5625 266.057 34.2891 265.557 32.8984C265.073 31.4922 264.831 30.0156 264.831 28.4688V18.3906H271.557V28.4688C271.557 29.3906 271.729 30.2656 272.073 31.0938C272.432 31.9062 272.917 32.6172 273.526 33.2266C274.136 33.8359 274.847 34.3203 275.659 34.6797C276.487 35.0234 277.362 35.1953 278.284 35.1953C279.206 35.1953 280.073 35.0234 280.886 34.6797C281.714 34.3203 282.432 33.8359 283.042 33.2266C283.651 32.6172 284.128 31.9062 284.472 31.0938C284.831 30.2656 285.011 29.3906 285.011 28.4688V18.3906H291.714V28.4688C291.714 30.0156 291.464 31.4922 290.964 32.8984C290.479 34.2891 289.792 35.5625 288.901 36.7188C288.011 37.8594 286.948 38.8438 285.714 39.6719C284.479 40.5 283.12 41.1016 281.636 41.4766V52ZM357.673 52H349.517L343.048 41.1484L336.556 52H328.447L338.759 35.1953L328.447 18.3906H336.556L343.048 29.2422L349.517 18.3906H357.673L347.361 35.1953L357.673 52Z" fill="#00F0FF"/>
</g>
<g filter="url(#filter2_d)">
<path d="M24.8984 33.5703V26.8438C24.8984 25.9219 24.7188 25.0547 24.3594 24.2422C24.0156 23.4141 23.5391 22.6953 22.9297 22.0859C22.3203 21.4766 21.6016 21 20.7734 20.6562C19.9609 20.2969 19.0938 20.1172 18.1719 20.1172C17.25 20.1172 16.375 20.2969 15.5469 20.6562C14.7344 21 14.0234 21.4766 13.4141 22.0859C12.8047 22.6953 12.3203 23.4141 11.9609 24.2422C11.6172 25.0547 11.4453 25.9219 11.4453 26.8438V33.5703H24.8984ZM31.625 47H24.8984V40.2734H11.4453V47H4.74219V26.8438C4.74219 24.9844 5.09375 23.2422 5.79688 21.6172C6.5 19.9766 7.45312 18.5469 8.65625 17.3281C9.875 16.1094 11.2969 15.1484 12.9219 14.4453C14.5625 13.7422 16.3125 13.3906 18.1719 13.3906C20.0312 13.3906 21.7734 13.7422 23.3984 14.4453C25.0391 15.1484 26.4688 16.1094 27.6875 17.3281C28.9062 18.5469 29.8672 19.9766 30.5703 21.6172C31.2734 23.2422 31.625 24.9844 31.625 26.8438V47ZM70.7722 23.4688C70.7722 22.0781 71.0378 20.7734 71.5691 19.5547C72.1003 18.3359 72.8191 17.2734 73.7253 16.3672C74.6472 15.4453 75.7175 14.7188 76.9362 14.1875C78.155 13.6562 79.4597 13.3906 80.8503 13.3906H96.2722V20.1172H80.8503C80.3816 20.1172 79.9441 20.2031 79.5378 20.375C79.1316 20.5469 78.7722 20.7891 78.4597 21.1016C78.1628 21.3984 77.9284 21.75 77.7566 22.1562C77.5847 22.5625 77.4987 23 77.4987 23.4688C77.4987 23.9375 77.5847 24.3828 77.7566 24.8047C77.9284 25.2109 78.1628 25.5703 78.4597 25.8828C78.7722 26.1797 79.1316 26.4141 79.5378 26.5859C79.9441 26.7578 80.3816 26.8438 80.8503 26.8438H87.5769C88.9675 26.8438 90.2722 27.1094 91.4909 27.6406C92.7253 28.1562 93.7956 28.875 94.7019 29.7969C95.6237 30.7031 96.3425 31.7734 96.8581 33.0078C97.3894 34.2266 97.655 35.5312 97.655 36.9219C97.655 38.3125 97.3894 39.6172 96.8581 40.8359C96.3425 42.0547 95.6237 43.125 94.7019 44.0469C93.7956 44.9531 92.7253 45.6719 91.4909 46.2031C90.2722 46.7344 88.9675 47 87.5769 47H72.6472V40.2734H87.5769C88.0456 40.2734 88.4831 40.1875 88.8894 40.0156C89.2956 39.8438 89.6472 39.6094 89.9441 39.3125C90.2566 39 90.4987 38.6406 90.6706 38.2344C90.8425 37.8281 90.9284 37.3906 90.9284 36.9219C90.9284 36.4531 90.8425 36.0156 90.6706 35.6094C90.4987 35.2031 90.2566 34.8516 89.9441 34.5547C89.6472 34.2422 89.2956 34 88.8894 33.8281C88.4831 33.6562 88.0456 33.5703 87.5769 33.5703H80.8503C79.4597 33.5703 78.155 33.3047 76.9362 32.7734C75.7175 32.2422 74.6472 31.5234 73.7253 30.6172C72.8191 29.6953 72.1003 28.625 71.5691 27.4062C71.0378 26.1719 70.7722 24.8594 70.7722 23.4688ZM151.005 47H144.302V20.1172H134.201V13.3906H161.083V20.1172H151.005V47ZM206.652 20.1172V33.5703H213.379C214.301 33.5703 215.168 33.3984 215.981 33.0547C216.793 32.6953 217.504 32.2109 218.113 31.6016C218.723 30.9922 219.199 30.2812 219.543 29.4688C219.902 28.6406 220.082 27.7656 220.082 26.8438C220.082 25.9219 219.902 25.0547 219.543 24.2422C219.199 23.4141 218.723 22.6953 218.113 22.0859C217.504 21.4766 216.793 21 215.981 20.6562C215.168 20.2969 214.301 20.1172 213.379 20.1172H206.652ZM206.652 47H199.926V13.3906H213.379C214.613 13.3906 215.801 13.5547 216.942 13.8828C218.082 14.1953 219.145 14.6484 220.129 15.2422C221.129 15.8203 222.035 16.5234 222.848 17.3516C223.676 18.1641 224.379 19.0703 224.957 20.0703C225.551 21.0703 226.004 22.1406 226.317 23.2812C226.645 24.4219 226.809 25.6094 226.809 26.8438C226.809 28 226.66 29.125 226.363 30.2188C226.082 31.3125 225.668 32.3516 225.121 33.3359C224.59 34.3203 223.934 35.2266 223.152 36.0547C222.371 36.8828 221.496 37.6016 220.527 38.2109L224.254 47H217.106L214.176 40.2266L206.652 40.2734V47ZM281.636 47H274.932V36.4766C273.448 36.1016 272.081 35.5 270.831 34.6719C269.597 33.8438 268.534 32.8594 267.643 31.7188C266.753 30.5625 266.057 29.2891 265.557 27.8984C265.073 26.4922 264.831 25.0156 264.831 23.4688V13.3906H271.557V23.4688C271.557 24.3906 271.729 25.2656 272.073 26.0938C272.432 26.9062 272.917 27.6172 273.526 28.2266C274.136 28.8359 274.847 29.3203 275.659 29.6797C276.487 30.0234 277.362 30.1953 278.284 30.1953C279.206 30.1953 280.073 30.0234 280.886 29.6797C281.714 29.3203 282.432 28.8359 283.042 28.2266C283.651 27.6172 284.128 26.9062 284.472 26.0938C284.831 25.2656 285.011 24.3906 285.011 23.4688V13.3906H291.714V23.4688C291.714 25.0156 291.464 26.4922 290.964 27.8984C290.479 29.2891 289.792 30.5625 288.901 31.7188C288.011 32.8594 286.948 33.8438 285.714 34.6719C284.479 35.5 283.12 36.1016 281.636 36.4766V47ZM357.673 47H349.517L343.048 36.1484L336.556 47H328.447L338.759 30.1953L328.447 13.3906H336.556L343.048 24.2422L349.517 13.3906H357.673L347.361 30.1953L357.673 47Z" fill="black"/>
</g>
<g filter="url(#filter3_d)">
<path d="M24.8984 44.5703V37.8438C24.8984 36.9219 24.7188 36.0547 24.3594 35.2422C24.0156 34.4141 23.5391 33.6953 22.9297 33.0859C22.3203 32.4766 21.6016 32 20.7734 31.6562C19.9609 31.2969 19.0938 31.1172 18.1719 31.1172C17.25 31.1172 16.375 31.2969 15.5469 31.6562C14.7344 32 14.0234 32.4766 13.4141 33.0859C12.8047 33.6953 12.3203 34.4141 11.9609 35.2422C11.6172 36.0547 11.4453 36.9219 11.4453 37.8438V44.5703H24.8984ZM31.625 58H24.8984V51.2734H11.4453V58H4.74219V37.8438C4.74219 35.9844 5.09375 34.2422 5.79688 32.6172C6.5 30.9766 7.45312 29.5469 8.65625 28.3281C9.875 27.1094 11.2969 26.1484 12.9219 25.4453C14.5625 24.7422 16.3125 24.3906 18.1719 24.3906C20.0312 24.3906 21.7734 24.7422 23.3984 25.4453C25.0391 26.1484 26.4688 27.1094 27.6875 28.3281C28.9062 29.5469 29.8672 30.9766 30.5703 32.6172C31.2734 34.2422 31.625 35.9844 31.625 37.8438V58Z" stroke="black" stroke-opacity="0.33"/>
<path d="M70.7722 34.4688C70.7722 33.0781 71.0378 31.7734 71.5691 30.5547C72.1003 29.3359 72.8191 28.2734 73.7253 27.3672C74.6472 26.4453 75.7175 25.7188 76.9362 25.1875C78.155 24.6562 79.4597 24.3906 80.8503 24.3906H96.2722V31.1172H80.8503C80.3816 31.1172 79.9441 31.2031 79.5378 31.375C79.1316 31.5469 78.7722 31.7891 78.4597 32.1016C78.1628 32.3984 77.9284 32.75 77.7566 33.1562C77.5847 33.5625 77.4987 34 77.4987 34.4688C77.4987 34.9375 77.5847 35.3828 77.7566 35.8047C77.9284 36.2109 78.1628 36.5703 78.4597 36.8828C78.7722 37.1797 79.1316 37.4141 79.5378 37.5859C79.9441 37.7578 80.3816 37.8438 80.8503 37.8438H87.5769C88.9675 37.8438 90.2722 38.1094 91.4909 38.6406C92.7253 39.1562 93.7956 39.875 94.7019 40.7969C95.6237 41.7031 96.3425 42.7734 96.8581 44.0078C97.3894 45.2266 97.655 46.5312 97.655 47.9219C97.655 49.3125 97.3894 50.6172 96.8581 51.8359C96.3425 53.0547 95.6237 54.125 94.7019 55.0469C93.7956 55.9531 92.7253 56.6719 91.4909 57.2031C90.2722 57.7344 88.9675 58 87.5769 58H72.6472V51.2734H87.5769C88.0456 51.2734 88.4831 51.1875 88.8894 51.0156C89.2956 50.8438 89.6472 50.6094 89.9441 50.3125C90.2566 50 90.4987 49.6406 90.6706 49.2344C90.8425 48.8281 90.9284 48.3906 90.9284 47.9219C90.9284 47.4531 90.8425 47.0156 90.6706 46.6094C90.4987 46.2031 90.2566 45.8516 89.9441 45.5547C89.6472 45.2422 89.2956 45 88.8894 44.8281C88.4831 44.6562 88.0456 44.5703 87.5769 44.5703H80.8503C79.4597 44.5703 78.155 44.3047 76.9362 43.7734C75.7175 43.2422 74.6472 42.5234 73.7253 41.6172C72.8191 40.6953 72.1003 39.625 71.5691 38.4062C71.0378 37.1719 70.7722 35.8594 70.7722 34.4688Z" stroke="black" stroke-opacity="0.33"/>
<path d="M151.005 58H144.302V31.1172H134.201V24.3906H161.083V31.1172H151.005V58Z" stroke="black" stroke-opacity="0.33"/>
<path d="M206.652 31.1172V44.5703H213.379C214.301 44.5703 215.168 44.3984 215.981 44.0547C216.793 43.6953 217.504 43.2109 218.113 42.6016C218.723 41.9922 219.199 41.2812 219.543 40.4688C219.902 39.6406 220.082 38.7656 220.082 37.8438C220.082 36.9219 219.902 36.0547 219.543 35.2422C219.199 34.4141 218.723 33.6953 218.113 33.0859C217.504 32.4766 216.793 32 215.981 31.6562C215.168 31.2969 214.301 31.1172 213.379 31.1172H206.652ZM206.652 58H199.926V24.3906H213.379C214.613 24.3906 215.801 24.5547 216.942 24.8828C218.082 25.1953 219.145 25.6484 220.129 26.2422C221.129 26.8203 222.035 27.5234 222.848 28.3516C223.676 29.1641 224.379 30.0703 224.957 31.0703C225.551 32.0703 226.004 33.1406 226.317 34.2812C226.645 35.4219 226.809 36.6094 226.809 37.8438C226.809 39 226.66 40.125 226.363 41.2188C226.082 42.3125 225.668 43.3516 225.121 44.3359C224.59 45.3203 223.934 46.2266 223.152 47.0547C222.371 47.8828 221.496 48.6016 220.527 49.2109L224.254 58H217.106L214.176 51.2266L206.652 51.2734V58Z" stroke="black" stroke-opacity="0.33"/>
<path d="M281.636 58H274.932V47.4766C273.448 47.1016 272.081 46.5 270.831 45.6719C269.597 44.8438 268.534 43.8594 267.643 42.7188C266.753 41.5625 266.057 40.2891 265.557 38.8984C265.073 37.4922 264.831 36.0156 264.831 34.4688V24.3906H271.557V34.4688C271.557 35.3906 271.729 36.2656 272.073 37.0938C272.432 37.9062 272.917 38.6172 273.526 39.2266C274.136 39.8359 274.847 40.3203 275.659 40.6797C276.487 41.0234 277.362 41.1953 278.284 41.1953C279.206 41.1953 280.073 41.0234 280.886 40.6797C281.714 40.3203 282.432 39.8359 283.042 39.2266C283.651 38.6172 284.128 37.9062 284.472 37.0938C284.831 36.2656 285.011 35.3906 285.011 34.4688V24.3906H291.714V34.4688C291.714 36.0156 291.464 37.4922 290.964 38.8984C290.479 40.2891 289.792 41.5625 288.901 42.7188C288.011 43.8594 286.948 44.8438 285.714 45.6719C284.479 46.5 283.12 47.1016 281.636 47.4766V58Z" stroke="black" stroke-opacity="0.33"/>
<path d="M357.673 58H349.517L343.048 47.1484L336.556 58H328.447L338.759 41.1953L328.447 24.3906H336.556L343.048 35.2422L349.517 24.3906H357.673L347.361 41.1953L357.673 58Z" stroke="black" stroke-opacity="0.33"/>
<path d="M24.8984 38.5703V31.8438C24.8984 30.9219 24.7188 30.0547 24.3594 29.2422C24.0156 28.4141 23.5391 27.6953 22.9297 27.0859C22.3203 26.4766 21.6016 26 20.7734 25.6562C19.9609 25.2969 19.0938 25.1172 18.1719 25.1172C17.25 25.1172 16.375 25.2969 15.5469 25.6562C14.7344 26 14.0234 26.4766 13.4141 27.0859C12.8047 27.6953 12.3203 28.4141 11.9609 29.2422C11.6172 30.0547 11.4453 30.9219 11.4453 31.8438V38.5703H24.8984ZM31.625 52H24.8984V45.2734H11.4453V52H4.74219V31.8438C4.74219 29.9844 5.09375 28.2422 5.79688 26.6172C6.5 24.9766 7.45312 23.5469 8.65625 22.3281C9.875 21.1094 11.2969 20.1484 12.9219 19.4453C14.5625 18.7422 16.3125 18.3906 18.1719 18.3906C20.0312 18.3906 21.7734 18.7422 23.3984 19.4453C25.0391 20.1484 26.4688 21.1094 27.6875 22.3281C28.9062 23.5469 29.8672 24.9766 30.5703 26.6172C31.2734 28.2422 31.625 29.9844 31.625 31.8438V52Z" stroke="black" stroke-opacity="0.33"/>
<path d="M70.7722 28.4688C70.7722 27.0781 71.0378 25.7734 71.5691 24.5547C72.1003 23.3359 72.8191 22.2734 73.7253 21.3672C74.6472 20.4453 75.7175 19.7188 76.9362 19.1875C78.155 18.6562 79.4597 18.3906 80.8503 18.3906H96.2722V25.1172H80.8503C80.3816 25.1172 79.9441 25.2031 79.5378 25.375C79.1316 25.5469 78.7722 25.7891 78.4597 26.1016C78.1628 26.3984 77.9284 26.75 77.7566 27.1562C77.5847 27.5625 77.4987 28 77.4987 28.4688C77.4987 28.9375 77.5847 29.3828 77.7566 29.8047C77.9284 30.2109 78.1628 30.5703 78.4597 30.8828C78.7722 31.1797 79.1316 31.4141 79.5378 31.5859C79.9441 31.7578 80.3816 31.8438 80.8503 31.8438H87.5769C88.9675 31.8438 90.2722 32.1094 91.4909 32.6406C92.7253 33.1562 93.7956 33.875 94.7019 34.7969C95.6237 35.7031 96.3425 36.7734 96.8581 38.0078C97.3894 39.2266 97.655 40.5312 97.655 41.9219C97.655 43.3125 97.3894 44.6172 96.8581 45.8359C96.3425 47.0547 95.6237 48.125 94.7019 49.0469C93.7956 49.9531 92.7253 50.6719 91.4909 51.2031C90.2722 51.7344 88.9675 52 87.5769 52H72.6472V45.2734H87.5769C88.0456 45.2734 88.4831 45.1875 88.8894 45.0156C89.2956 44.8438 89.6472 44.6094 89.9441 44.3125C90.2566 44 90.4987 43.6406 90.6706 43.2344C90.8425 42.8281 90.9284 42.3906 90.9284 41.9219C90.9284 41.4531 90.8425 41.0156 90.6706 40.6094C90.4987 40.2031 90.2566 39.8516 89.9441 39.5547C89.6472 39.2422 89.2956 39 88.8894 38.8281C88.4831 38.6562 88.0456 38.5703 87.5769 38.5703H80.8503C79.4597 38.5703 78.155 38.3047 76.9362 37.7734C75.7175 37.2422 74.6472 36.5234 73.7253 35.6172C72.8191 34.6953 72.1003 33.625 71.5691 32.4062C71.0378 31.1719 70.7722 29.8594 70.7722 28.4688Z" stroke="black" stroke-opacity="0.33"/>
<path d="M151.005 52H144.302V25.1172H134.201V18.3906H161.083V25.1172H151.005V52Z" stroke="black" stroke-opacity="0.33"/>
<path d="M206.652 25.1172V38.5703H213.379C214.301 38.5703 215.168 38.3984 215.981 38.0547C216.793 37.6953 217.504 37.2109 218.113 36.6016C218.723 35.9922 219.199 35.2812 219.543 34.4688C219.902 33.6406 220.082 32.7656 220.082 31.8438C220.082 30.9219 219.902 30.0547 219.543 29.2422C219.199 28.4141 218.723 27.6953 218.113 27.0859C217.504 26.4766 216.793 26 215.981 25.6562C215.168 25.2969 214.301 25.1172 213.379 25.1172H206.652ZM206.652 52H199.926V18.3906H213.379C214.613 18.3906 215.801 18.5547 216.942 18.8828C218.082 19.1953 219.145 19.6484 220.129 20.2422C221.129 20.8203 222.035 21.5234 222.848 22.3516C223.676 23.1641 224.379 24.0703 224.957 25.0703C225.551 26.0703 226.004 27.1406 226.317 28.2812C226.645 29.4219 226.809 30.6094 226.809 31.8438C226.809 33 226.66 34.125 226.363 35.2188C226.082 36.3125 225.668 37.3516 225.121 38.3359C224.59 39.3203 223.934 40.2266 223.152 41.0547C222.371 41.8828 221.496 42.6016 220.527 43.2109L224.254 52H217.106L214.176 45.2266L206.652 45.2734V52Z" stroke="black" stroke-opacity="0.33"/>
<path d="M281.636 52H274.932V41.4766C273.448 41.1016 272.081 40.5 270.831 39.6719C269.597 38.8438 268.534 37.8594 267.643 36.7188C266.753 35.5625 266.057 34.2891 265.557 32.8984C265.073 31.4922 264.831 30.0156 264.831 28.4688V18.3906H271.557V28.4688C271.557 29.3906 271.729 30.2656 272.073 31.0938C272.432 31.9062 272.917 32.6172 273.526 33.2266C274.136 33.8359 274.847 34.3203 275.659 34.6797C276.487 35.0234 277.362 35.1953 278.284 35.1953C279.206 35.1953 280.073 35.0234 280.886 34.6797C281.714 34.3203 282.432 33.8359 283.042 33.2266C283.651 32.6172 284.128 31.9062 284.472 31.0938C284.831 30.2656 285.011 29.3906 285.011 28.4688V18.3906H291.714V28.4688C291.714 30.0156 291.464 31.4922 290.964 32.8984C290.479 34.2891 289.792 35.5625 288.901 36.7188C288.011 37.8594 286.948 38.8438 285.714 39.6719C284.479 40.5 283.12 41.1016 281.636 41.4766V52Z" stroke="black" stroke-opacity="0.33"/>
<path d="M357.673 52H349.517L343.048 41.1484L336.556 52H328.447L338.759 35.1953L328.447 18.3906H336.556L343.048 29.2422L349.517 18.3906H357.673L347.361 35.1953L357.673 52Z" stroke="black" stroke-opacity="0.33"/>
<path d="M24.8984 33.5703V26.8438C24.8984 25.9219 24.7188 25.0547 24.3594 24.2422C24.0156 23.4141 23.5391 22.6953 22.9297 22.0859C22.3203 21.4766 21.6016 21 20.7734 20.6562C19.9609 20.2969 19.0938 20.1172 18.1719 20.1172C17.25 20.1172 16.375 20.2969 15.5469 20.6562C14.7344 21 14.0234 21.4766 13.4141 22.0859C12.8047 22.6953 12.3203 23.4141 11.9609 24.2422C11.6172 25.0547 11.4453 25.9219 11.4453 26.8438V33.5703H24.8984ZM31.625 47H24.8984V40.2734H11.4453V47H4.74219V26.8438C4.74219 24.9844 5.09375 23.2422 5.79688 21.6172C6.5 19.9766 7.45312 18.5469 8.65625 17.3281C9.875 16.1094 11.2969 15.1484 12.9219 14.4453C14.5625 13.7422 16.3125 13.3906 18.1719 13.3906C20.0312 13.3906 21.7734 13.7422 23.3984 14.4453C25.0391 15.1484 26.4688 16.1094 27.6875 17.3281C28.9062 18.5469 29.8672 19.9766 30.5703 21.6172C31.2734 23.2422 31.625 24.9844 31.625 26.8438V47Z" stroke="black" stroke-opacity="0.33"/>
<path d="M70.7722 23.4688C70.7722 22.0781 71.0378 20.7734 71.5691 19.5547C72.1003 18.3359 72.8191 17.2734 73.7253 16.3672C74.6472 15.4453 75.7175 14.7188 76.9362 14.1875C78.155 13.6562 79.4597 13.3906 80.8503 13.3906H96.2722V20.1172H80.8503C80.3816 20.1172 79.9441 20.2031 79.5378 20.375C79.1316 20.5469 78.7722 20.7891 78.4597 21.1016C78.1628 21.3984 77.9284 21.75 77.7566 22.1562C77.5847 22.5625 77.4987 23 77.4987 23.4688C77.4987 23.9375 77.5847 24.3828 77.7566 24.8047C77.9284 25.2109 78.1628 25.5703 78.4597 25.8828C78.7722 26.1797 79.1316 26.4141 79.5378 26.5859C79.9441 26.7578 80.3816 26.8438 80.8503 26.8438H87.5769C88.9675 26.8438 90.2722 27.1094 91.4909 27.6406C92.7253 28.1562 93.7956 28.875 94.7019 29.7969C95.6237 30.7031 96.3425 31.7734 96.8581 33.0078C97.3894 34.2266 97.655 35.5312 97.655 36.9219C97.655 38.3125 97.3894 39.6172 96.8581 40.8359C96.3425 42.0547 95.6237 43.125 94.7019 44.0469C93.7956 44.9531 92.7253 45.6719 91.4909 46.2031C90.2722 46.7344 88.9675 47 87.5769 47H72.6472V40.2734H87.5769C88.0456 40.2734 88.4831 40.1875 88.8894 40.0156C89.2956 39.8438 89.6472 39.6094 89.9441 39.3125C90.2566 39 90.4987 38.6406 90.6706 38.2344C90.8425 37.8281 90.9284 37.3906 90.9284 36.9219C90.9284 36.4531 90.8425 36.0156 90.6706 35.6094C90.4987 35.2031 90.2566 34.8516 89.9441 34.5547C89.6472 34.2422 89.2956 34 88.8894 33.8281C88.4831 33.6562 88.0456 33.5703 87.5769 33.5703H80.8503C79.4597 33.5703 78.155 33.3047 76.9362 32.7734C75.7175 32.2422 74.6472 31.5234 73.7253 30.6172C72.8191 29.6953 72.1003 28.625 71.5691 27.4062C71.0378 26.1719 70.7722 24.8594 70.7722 23.4688Z" stroke="black" stroke-opacity="0.33"/>
<path d="M151.005 47H144.302V20.1172H134.201V13.3906H161.083V20.1172H151.005V47Z" stroke="black" stroke-opacity="0.33"/>
<path d="M206.652 20.1172V33.5703H213.379C214.301 33.5703 215.168 33.3984 215.981 33.0547C216.793 32.6953 217.504 32.2109 218.113 31.6016C218.723 30.9922 219.199 30.2812 219.543 29.4688C219.902 28.6406 220.082 27.7656 220.082 26.8438C220.082 25.9219 219.902 25.0547 219.543 24.2422C219.199 23.4141 218.723 22.6953 218.113 22.0859C217.504 21.4766 216.793 21 215.981 20.6562C215.168 20.2969 214.301 20.1172 213.379 20.1172H206.652ZM206.652 47H199.926V13.3906H213.379C214.613 13.3906 215.801 13.5547 216.942 13.8828C218.082 14.1953 219.145 14.6484 220.129 15.2422C221.129 15.8203 222.035 16.5234 222.848 17.3516C223.676 18.1641 224.379 19.0703 224.957 20.0703C225.551 21.0703 226.004 22.1406 226.317 23.2812C226.645 24.4219 226.809 25.6094 226.809 26.8438C226.809 28 226.66 29.125 226.363 30.2188C226.082 31.3125 225.668 32.3516 225.121 33.3359C224.59 34.3203 223.934 35.2266 223.152 36.0547C222.371 36.8828 221.496 37.6016 220.527 38.2109L224.254 47H217.106L214.176 40.2266L206.652 40.2734V47Z" stroke="black" stroke-opacity="0.33"/>
<path d="M281.636 47H274.932V36.4766C273.448 36.1016 272.081 35.5 270.831 34.6719C269.597 33.8438 268.534 32.8594 267.643 31.7188C266.753 30.5625 266.057 29.2891 265.557 27.8984C265.073 26.4922 264.831 25.0156 264.831 23.4688V13.3906H271.557V23.4688C271.557 24.3906 271.729 25.2656 272.073 26.0938C272.432 26.9062 272.917 27.6172 273.526 28.2266C274.136 28.8359 274.847 29.3203 275.659 29.6797C276.487 30.0234 277.362 30.1953 278.284 30.1953C279.206 30.1953 280.073 30.0234 280.886 29.6797C281.714 29.3203 282.432 28.8359 283.042 28.2266C283.651 27.6172 284.128 26.9062 284.472 26.0938C284.831 25.2656 285.011 24.3906 285.011 23.4688V13.3906H291.714V23.4688C291.714 25.0156 291.464 26.4922 290.964 27.8984C290.479 29.2891 289.792 30.5625 288.901 31.7188C288.011 32.8594 286.948 33.8438 285.714 34.6719C284.479 35.5 283.12 36.1016 281.636 36.4766V47Z" stroke="black" stroke-opacity="0.33"/>
<path d="M357.673 47H349.517L343.048 36.1484L336.556 47H328.447L338.759 30.1953L328.447 13.3906H336.556L343.048 24.2422L349.517 13.3906H357.673L347.361 30.1953L357.673 47Z" stroke="black" stroke-opacity="0.33"/>
</g>
<defs>
<filter id="filter0_d" x="0.742188" y="24.3906" width="360.931" height="41.6094" filterUnits="userSpaceOnUse" color-interpolation-filters="sRGB">
<feFlood flood-opacity="0" result="BackgroundImageFix"/>
<feColorMatrix in="SourceAlpha" type="matrix" values="0 0 0 0 0 0 0 0 0 0 0 0 0 0 0 0 0 0 127 0"/>
<feOffset dy="4"/>
<feGaussianBlur stdDeviation="2"/>
<feColorMatrix type="matrix" values="0 0 0 0 1 0 0 0 0 0 0 0 0 0 0.9 0 0 0 0.25 0"/>
<feBlend mode="normal" in2="BackgroundImageFix" result="effect1_dropShadow"/>
<feBlend mode="normal" in="SourceGraphic" in2="effect1_dropShadow" result="shape"/>
</filter>
<filter id="filter1_d" x="0.742188" y="18.3906" width="360.931" height="41.6094" filterUnits="userSpaceOnUse" color-interpolation-filters="sRGB">
<feFlood flood-opacity="0" result="BackgroundImageFix"/>
<feColorMatrix in="SourceAlpha" type="matrix" values="0 0 0 0 0 0 0 0 0 0 0 0 0 0 0 0 0 0 127 0"/>
<feOffset dy="4"/>
<feGaussianBlur stdDeviation="2"/>
<feColorMatrix type="matrix" values="0 0 0 0 1 0 0 0 0 0 0 0 0 0 0.9 0 0 0 0.25 0"/>
<feBlend mode="normal" in2="BackgroundImageFix" result="effect1_dropShadow"/>
<feBlend mode="normal" in="SourceGraphic" in2="effect1_dropShadow" result="shape"/>
</filter>
<filter id="filter2_d" x="0.742188" y="13.3906" width="360.931" height="41.6094" filterUnits="userSpaceOnUse" color-interpolation-filters="sRGB">
<feFlood flood-opacity="0" result="BackgroundImageFix"/>
<feColorMatrix in="SourceAlpha" type="matrix" values="0 0 0 0 0 0 0 0 0 0 0 0 0 0 0 0 0 0 127 0"/>
<feOffset dy="4"/>
<feGaussianBlur stdDeviation="2"/>
<feColorMatrix type="matrix" values="0 0 0 0 1 0 0 0 0 0 0 0 0 0 0.9 0 0 0 0.25 0"/>
<feBlend mode="normal" in2="BackgroundImageFix" result="effect1_dropShadow"/>
<feBlend mode="normal" in="SourceGraphic" in2="effect1_dropShadow" result="shape"/>
</filter>
<filter id="filter3_d" x="0.242188" y="12.8906" width="362.325" height="53.6094" filterUnits="userSpaceOnUse" color-interpolation-filters="sRGB">
<feFlood flood-opacity="0" result="BackgroundImageFix"/>
<feColorMatrix in="SourceAlpha" type="matrix" values="0 0 0 0 0 0 0 0 0 0 0 0 0 0 0 0 0 0 127 0"/>
<feOffset dy="4"/>
<feGaussianBlur stdDeviation="2"/>
<feColorMatrix type="matrix" values="0 0 0 0 1 0 0 0 0 0 0 0 0 0 0.9 0 0 0 0.25 0"/>
<feBlend mode="normal" in2="BackgroundImageFix" result="effect1_dropShadow"/>
<feBlend mode="normal" in="SourceGraphic" in2="effect1_dropShadow" result="shape"/>
</filter>
</defs>
</svg>
